<svg width="850" height="550" viewBox="0 0 850 550" fill="none" xmlns="http://www.w3.org/2000/svg">
<g clip-path="url(#clip0_117_2941)">
<path d="M850 0H0V550H850V0Z" fill="white"/>
<path d="M594.636 431.695C594.512 431.263 594.337 430.882 594.113 430.55C593.888 430.213 593.612 429.929 593.287 429.698C592.967 429.461 592.6 429.281 592.186 429.156C591.778 429.032 591.325 428.97 590.828 428.97C589.899 428.97 589.082 429.201 588.377 429.662C587.679 430.124 587.135 430.796 586.744 431.678C586.353 432.554 586.158 433.625 586.158 434.891C586.158 436.158 586.35 437.235 586.735 438.123C587.12 439.011 587.664 439.688 588.369 440.156C589.073 440.618 589.904 440.848 590.863 440.848C591.733 440.848 592.476 440.694 593.092 440.387C593.713 440.073 594.187 439.632 594.512 439.064C594.844 438.496 595.009 437.824 595.009 437.049L595.79 437.164H591.103V434.27H598.711V436.56C598.711 438.158 598.374 439.531 597.699 440.68C597.025 441.822 596.095 442.704 594.912 443.325C593.728 443.941 592.373 444.249 590.846 444.249C589.141 444.249 587.644 443.873 586.353 443.121C585.063 442.364 584.057 441.289 583.335 439.898C582.619 438.502 582.261 436.844 582.261 434.927C582.261 433.453 582.474 432.139 582.9 430.985C583.332 429.825 583.936 428.843 584.711 428.038C585.486 427.233 586.389 426.62 587.419 426.2C588.449 425.78 589.564 425.57 590.766 425.57C591.795 425.57 592.754 425.721 593.642 426.022C594.53 426.318 595.317 426.739 596.004 427.283C596.696 427.828 597.261 428.476 597.699 429.227C598.137 429.973 598.418 430.796 598.543 431.695H594.636ZM605.31 425.818V444H601.528V425.818H605.31ZM617.084 438.194V430.364H620.866V444H617.235V441.523H617.093C616.785 442.322 616.273 442.964 615.557 443.45C614.847 443.935 613.98 444.178 612.956 444.178C612.044 444.178 611.242 443.97 610.55 443.556C609.857 443.142 609.316 442.553 608.925 441.789C608.541 441.026 608.345 440.112 608.339 439.046V430.364H612.121V438.371C612.127 439.176 612.343 439.813 612.769 440.28C613.195 440.748 613.767 440.982 614.483 440.982C614.939 440.982 615.365 440.878 615.761 440.671C616.158 440.458 616.477 440.144 616.72 439.73C616.969 439.315 617.09 438.804 617.084 438.194ZM631.144 430.364V433.205H622.932V430.364H631.144ZM624.797 427.097H628.579V439.81C628.579 440.159 628.632 440.431 628.738 440.626C628.845 440.816 628.993 440.949 629.182 441.026C629.378 441.103 629.602 441.141 629.857 441.141C630.035 441.141 630.212 441.127 630.39 441.097C630.567 441.061 630.703 441.035 630.798 441.017L631.393 443.831C631.203 443.891 630.937 443.959 630.594 444.036C630.251 444.118 629.833 444.169 629.342 444.186C628.431 444.222 627.632 444.101 626.945 443.822C626.264 443.544 625.735 443.112 625.356 442.526C624.977 441.94 624.791 441.201 624.797 440.307V427.097ZM639.676 444.266C638.273 444.266 637.066 443.982 636.054 443.414C635.048 442.84 634.272 442.029 633.728 440.982C633.183 439.928 632.911 438.682 632.911 437.244C632.911 435.841 633.183 434.61 633.728 433.551C634.272 432.491 635.039 431.666 636.027 431.074C637.021 430.482 638.187 430.186 639.525 430.186C640.425 430.186 641.262 430.331 642.037 430.621C642.819 430.905 643.499 431.334 644.079 431.908C644.665 432.482 645.121 433.205 645.446 434.075C645.772 434.939 645.935 435.951 645.935 437.111V438.15H634.42V435.806H642.375C642.375 435.261 642.256 434.779 642.02 434.359C641.783 433.938 641.454 433.61 641.034 433.373C640.62 433.131 640.138 433.009 639.587 433.009C639.013 433.009 638.504 433.142 638.06 433.409C637.622 433.669 637.279 434.021 637.03 434.465C636.782 434.903 636.654 435.391 636.649 435.93V438.158C636.649 438.833 636.773 439.416 637.021 439.907C637.276 440.399 637.634 440.777 638.096 441.044C638.557 441.31 639.105 441.443 639.738 441.443C640.158 441.443 640.543 441.384 640.892 441.266C641.241 441.147 641.54 440.97 641.789 440.733C642.037 440.496 642.227 440.206 642.357 439.863L645.855 440.094C645.677 440.934 645.313 441.668 644.763 442.295C644.218 442.917 643.514 443.402 642.65 443.751C641.792 444.095 640.8 444.266 639.676 444.266ZM652.185 436.116V444H648.403V430.364H652.007V432.77H652.167C652.469 431.976 652.975 431.349 653.685 430.887C654.395 430.42 655.256 430.186 656.269 430.186C657.216 430.186 658.041 430.393 658.745 430.808C659.45 431.222 659.997 431.814 660.388 432.583C660.778 433.347 660.974 434.258 660.974 435.317V444H657.192V435.992C657.198 435.158 656.985 434.507 656.553 434.039C656.121 433.566 655.526 433.329 654.768 433.329C654.259 433.329 653.809 433.438 653.419 433.657C653.034 433.876 652.732 434.196 652.513 434.616C652.3 435.03 652.191 435.531 652.185 436.116ZM672.451 435.033V438.034H664.159V435.033H672.451ZM675.744 444V425.818H687.783V428.988H679.588V433.32H686.984V436.489H679.588V444H675.744ZM690.078 444V430.364H693.744V432.743H693.886C694.135 431.897 694.552 431.257 695.138 430.825C695.724 430.387 696.399 430.168 697.162 430.168C697.352 430.168 697.556 430.18 697.775 430.204C697.994 430.228 698.186 430.26 698.352 430.301V433.657C698.174 433.604 697.929 433.557 697.615 433.515C697.301 433.474 697.014 433.453 696.754 433.453C696.197 433.453 695.7 433.574 695.262 433.817C694.83 434.054 694.487 434.385 694.232 434.811C693.984 435.238 693.86 435.729 693.86 436.285V444H690.078ZM705.887 444.266C704.484 444.266 703.277 443.982 702.265 443.414C701.258 442.84 700.483 442.029 699.939 440.982C699.394 439.928 699.122 438.682 699.122 437.244C699.122 435.841 699.394 434.61 699.939 433.551C700.483 432.491 701.25 431.666 702.238 431.074C703.232 430.482 704.398 430.186 705.736 430.186C706.636 430.186 707.473 430.331 708.248 430.621C709.03 430.905 709.71 431.334 710.29 431.908C710.876 432.482 711.332 433.205 711.657 434.075C711.983 434.939 712.146 435.951 712.146 437.111V438.15H700.631V435.806H708.586C708.586 435.261 708.467 434.779 708.231 434.359C707.994 433.938 707.665 433.61 707.245 433.373C706.831 433.131 706.348 433.009 705.798 433.009C705.224 433.009 704.715 433.142 704.271 433.409C703.833 433.669 703.49 434.021 703.241 434.465C702.993 434.903 702.865 435.391 702.859 435.93V438.158C702.859 438.833 702.984 439.416 703.232 439.907C703.487 440.399 703.845 440.777 704.307 441.044C704.768 441.31 705.316 441.443 705.949 441.443C706.369 441.443 706.754 441.384 707.103 441.266C707.452 441.147 707.751 440.97 708 440.733C708.248 440.496 708.438 440.206 708.568 439.863L712.066 440.094C711.888 440.934 711.524 441.668 710.974 442.295C710.429 442.917 709.725 443.402 708.861 443.751C708.003 444.095 707.011 444.266 705.887 444.266ZM720.828 444.266C719.426 444.266 718.218 443.982 717.206 443.414C716.2 442.84 715.425 442.029 714.88 440.982C714.336 439.928 714.063 438.682 714.063 437.244C714.063 435.841 714.336 434.61 714.88 433.551C715.425 432.491 716.191 431.666 717.179 431.074C718.174 430.482 719.34 430.186 720.677 430.186C721.577 430.186 722.414 430.331 723.19 430.621C723.971 430.905 724.652 431.334 725.232 431.908C725.818 432.482 726.273 433.205 726.599 434.075C726.924 434.939 727.087 435.951 727.087 437.111V438.15H715.573V435.806H723.527C723.527 435.261 723.409 434.779 723.172 434.359C722.935 433.938 722.607 433.61 722.187 433.373C721.772 433.131 721.29 433.009 720.739 433.009C720.165 433.009 719.656 433.142 719.212 433.409C718.774 433.669 718.431 434.021 718.183 434.465C717.934 434.903 717.807 435.391 717.801 435.93V438.158C717.801 438.833 717.925 439.416 718.174 439.907C718.428 440.399 718.786 440.777 719.248 441.044C719.71 441.31 720.257 441.443 720.89 441.443C721.311 441.443 721.695 441.384 722.044 441.266C722.394 441.147 722.693 440.97 722.941 440.733C723.19 440.496 723.379 440.206 723.509 439.863L727.007 440.094C726.83 440.934 726.466 441.668 725.915 442.295C725.371 442.917 724.666 443.402 723.802 443.751C722.944 444.095 721.953 444.266 720.828 444.266Z" fill="#424242"/>
<path d="M278.788 522.818V541H275.468L267.558 529.556H267.424V541H263.58V522.818H266.954L274.802 534.253H274.962V522.818H278.788ZM290.389 530.409V533.409H282.097V530.409H290.389ZM308.891 522.818V541H305.57L297.66 529.556H297.527V541H293.683V522.818H297.056L304.904 534.253H305.064V522.818H308.891ZM311.996 541V527.364H315.778V541H311.996ZM313.895 525.606C313.333 525.606 312.851 525.419 312.448 525.047C312.052 524.668 311.854 524.215 311.854 523.688C311.854 523.167 312.052 522.721 312.448 522.348C312.851 521.969 313.333 521.779 313.895 521.779C314.458 521.779 314.937 521.969 315.334 522.348C315.736 522.721 315.937 523.167 315.937 523.688C315.937 524.215 315.736 524.668 315.334 525.047C314.937 525.419 314.458 525.606 313.895 525.606ZM326.06 527.364V530.205H317.848V527.364H326.06ZM319.713 524.097H323.495V536.81C323.495 537.159 323.548 537.431 323.654 537.626C323.761 537.816 323.909 537.949 324.098 538.026C324.294 538.103 324.518 538.141 324.773 538.141C324.951 538.141 325.128 538.127 325.306 538.097C325.483 538.061 325.619 538.035 325.714 538.017L326.309 540.831C326.119 540.891 325.853 540.959 325.51 541.036C325.167 541.118 324.749 541.169 324.258 541.186C323.347 541.222 322.548 541.101 321.861 540.822C321.18 540.544 320.651 540.112 320.272 539.526C319.893 538.94 319.707 538.201 319.713 537.307V524.097ZM328.524 541V527.364H332.19V529.743H332.332C332.581 528.897 332.998 528.257 333.584 527.825C334.17 527.387 334.845 527.168 335.608 527.168C335.798 527.168 336.002 527.18 336.221 527.204C336.44 527.228 336.632 527.26 336.798 527.301V530.657C336.62 530.604 336.375 530.557 336.061 530.515C335.747 530.474 335.46 530.453 335.2 530.453C334.644 530.453 334.147 530.574 333.709 530.817C333.276 531.054 332.933 531.385 332.679 531.811C332.43 532.238 332.306 532.729 332.306 533.285V541H328.524ZM344.28 541.266C342.901 541.266 341.708 540.973 340.702 540.387C339.702 539.796 338.929 538.973 338.385 537.919C337.84 536.86 337.568 535.632 337.568 534.235C337.568 532.826 337.84 531.595 338.385 530.542C338.929 529.482 339.702 528.66 340.702 528.074C341.708 527.482 342.901 527.186 344.28 527.186C345.659 527.186 346.848 527.482 347.849 528.074C348.855 528.66 349.63 529.482 350.175 530.542C350.719 531.595 350.991 532.826 350.991 534.235C350.991 535.632 350.719 536.86 350.175 537.919C349.63 538.973 348.855 539.796 347.849 540.387C346.848 540.973 345.659 541.266 344.28 541.266ZM344.298 538.337C344.925 538.337 345.449 538.159 345.869 537.804C346.289 537.443 346.606 536.952 346.819 536.33C347.038 535.709 347.147 535.002 347.147 534.208C347.147 533.415 347.038 532.708 346.819 532.087C346.606 531.465 346.289 530.974 345.869 530.613C345.449 530.252 344.925 530.071 344.298 530.071C343.664 530.071 343.132 530.252 342.7 530.613C342.273 530.974 341.951 531.465 341.732 532.087C341.519 532.708 341.412 533.415 341.412 534.208C341.412 535.002 341.519 535.709 341.732 536.33C341.951 536.952 342.273 537.443 342.7 537.804C343.132 538.159 343.664 538.337 344.298 538.337ZM364.797 531.252L361.334 531.465C361.275 531.169 361.148 530.903 360.952 530.666C360.757 530.424 360.5 530.231 360.18 530.089C359.866 529.941 359.491 529.867 359.053 529.867C358.467 529.867 357.972 529.991 357.57 530.24C357.167 530.483 356.966 530.808 356.966 531.217C356.966 531.542 357.096 531.817 357.357 532.042C357.617 532.267 358.064 532.448 358.697 532.584L361.165 533.081C362.491 533.353 363.48 533.791 364.131 534.395C364.782 534.999 365.107 535.792 365.107 536.774C365.107 537.668 364.844 538.452 364.317 539.127C363.796 539.801 363.08 540.328 362.169 540.707C361.263 541.08 360.219 541.266 359.035 541.266C357.23 541.266 355.791 540.891 354.72 540.139C353.655 539.381 353.03 538.351 352.847 537.049L356.567 536.854C356.679 537.404 356.951 537.825 357.384 538.115C357.816 538.399 358.369 538.541 359.044 538.541C359.707 538.541 360.239 538.414 360.642 538.159C361.05 537.899 361.257 537.564 361.263 537.156C361.257 536.813 361.112 536.531 360.828 536.312C360.544 536.088 360.106 535.916 359.514 535.798L357.153 535.327C355.821 535.061 354.83 534.599 354.179 533.942C353.533 533.285 353.211 532.448 353.211 531.43C353.211 530.554 353.448 529.799 353.921 529.166C354.401 528.533 355.072 528.044 355.936 527.701C356.806 527.358 357.824 527.186 358.99 527.186C360.713 527.186 362.068 527.55 363.056 528.278C364.051 529.006 364.631 529.997 364.797 531.252ZM373.65 541.266C372.271 541.266 371.078 540.973 370.072 540.387C369.072 539.796 368.3 538.973 367.755 537.919C367.211 536.86 366.938 535.632 366.938 534.235C366.938 532.826 367.211 531.595 367.755 530.542C368.3 529.482 369.072 528.66 370.072 528.074C371.078 527.482 372.271 527.186 373.65 527.186C375.029 527.186 376.219 527.482 377.219 528.074C378.225 528.66 379 529.482 379.545 530.542C380.089 531.595 380.362 532.826 380.362 534.235C380.362 535.632 380.089 536.86 379.545 537.919C379 538.973 378.225 539.796 377.219 540.387C376.219 540.973 375.029 541.266 373.65 541.266ZM373.668 538.337C374.295 538.337 374.819 538.159 375.239 537.804C375.659 537.443 375.976 536.952 376.189 536.33C376.408 535.709 376.517 535.002 376.517 534.208C376.517 533.415 376.408 532.708 376.189 532.087C375.976 531.465 375.659 530.974 375.239 530.613C374.819 530.252 374.295 530.071 373.668 530.071C373.034 530.071 372.502 530.252 372.07 530.613C371.644 530.974 371.321 531.465 371.102 532.087C370.889 532.708 370.782 533.415 370.782 534.208C370.782 535.002 370.889 535.709 371.102 536.33C371.321 536.952 371.644 537.443 372.07 537.804C372.502 538.159 373.034 538.337 373.668 538.337ZM387.846 541.222C386.81 541.222 385.872 540.956 385.031 540.423C384.197 539.884 383.534 539.094 383.043 538.053C382.557 537.005 382.315 535.721 382.315 534.2C382.315 532.637 382.566 531.338 383.069 530.302C383.572 529.261 384.241 528.482 385.076 527.967C385.916 527.446 386.836 527.186 387.837 527.186C388.6 527.186 389.236 527.316 389.745 527.577C390.26 527.831 390.675 528.151 390.988 528.536C391.308 528.914 391.551 529.287 391.716 529.654H391.832V522.818H395.605V541H391.876V538.816H391.716C391.539 539.195 391.287 539.571 390.962 539.944C390.642 540.31 390.225 540.615 389.71 540.858C389.201 541.101 388.58 541.222 387.846 541.222ZM389.044 538.212C389.654 538.212 390.169 538.047 390.589 537.715C391.015 537.378 391.341 536.907 391.565 536.304C391.796 535.7 391.912 534.993 391.912 534.182C391.912 533.371 391.799 532.667 391.574 532.069C391.349 531.471 391.024 531.009 390.598 530.684C390.172 530.358 389.654 530.196 389.044 530.196C388.423 530.196 387.899 530.364 387.473 530.702C387.047 531.039 386.724 531.507 386.505 532.104C386.286 532.702 386.177 533.395 386.177 534.182C386.177 534.975 386.286 535.676 386.505 536.286C386.73 536.89 387.053 537.363 387.473 537.706C387.899 538.044 388.423 538.212 389.044 538.212ZM398.714 541V527.364H402.496V541H398.714ZM400.614 525.606C400.052 525.606 399.57 525.419 399.167 525.047C398.771 524.668 398.572 524.215 398.572 523.688C398.572 523.167 398.771 522.721 399.167 522.348C399.57 521.969 400.052 521.779 400.614 521.779C401.176 521.779 401.656 521.969 402.052 522.348C402.455 522.721 402.656 523.167 402.656 523.688C402.656 524.215 402.455 524.668 402.052 525.047C401.656 525.419 401.176 525.606 400.614 525.606ZM405.526 541V527.364H409.13V529.77H409.29C409.574 528.971 410.048 528.34 410.71 527.879C411.373 527.417 412.166 527.186 413.09 527.186C414.025 527.186 414.821 527.42 415.478 527.887C416.135 528.349 416.573 528.976 416.792 529.77H416.934C417.212 528.988 417.715 528.364 418.443 527.896C419.177 527.423 420.044 527.186 421.044 527.186C422.317 527.186 423.35 527.592 424.143 528.402C424.942 529.207 425.341 530.35 425.341 531.829V541H421.568V532.575C421.568 531.817 421.367 531.249 420.964 530.87C420.562 530.492 420.059 530.302 419.455 530.302C418.769 530.302 418.233 530.521 417.848 530.959C417.464 531.391 417.271 531.962 417.271 532.673V541H413.605V532.495C413.605 531.826 413.412 531.294 413.028 530.897C412.649 530.5 412.149 530.302 411.527 530.302C411.107 530.302 410.728 530.409 410.391 530.622C410.059 530.829 409.796 531.122 409.601 531.501C409.405 531.874 409.308 532.312 409.308 532.815V541H405.526ZM434.543 541.266C433.14 541.266 431.933 540.982 430.921 540.414C429.915 539.84 429.139 539.029 428.595 537.982C428.05 536.928 427.778 535.682 427.778 534.244C427.778 532.841 428.05 531.61 428.595 530.551C429.139 529.491 429.906 528.666 430.894 528.074C431.889 527.482 433.055 527.186 434.392 527.186C435.292 527.186 436.129 527.331 436.905 527.621C437.686 527.905 438.366 528.334 438.946 528.908C439.532 529.482 439.988 530.205 440.314 531.075C440.639 531.939 440.802 532.951 440.802 534.111V535.15H429.287V532.806H437.242C437.242 532.261 437.124 531.779 436.887 531.359C436.65 530.938 436.322 530.61 435.901 530.373C435.487 530.131 435.005 530.009 434.454 530.009C433.88 530.009 433.371 530.142 432.927 530.409C432.489 530.669 432.146 531.021 431.897 531.465C431.649 531.903 431.522 532.391 431.516 532.93V535.158C431.516 535.833 431.64 536.416 431.889 536.907C432.143 537.399 432.501 537.777 432.963 538.044C433.424 538.31 433.972 538.443 434.605 538.443C435.025 538.443 435.41 538.384 435.759 538.266C436.109 538.147 436.407 537.97 436.656 537.733C436.905 537.496 437.094 537.206 437.224 536.863L440.722 537.094C440.544 537.934 440.18 538.668 439.63 539.295C439.086 539.917 438.381 540.402 437.517 540.751C436.659 541.095 435.668 541.266 434.543 541.266ZM450.523 527.364V530.205H442.311V527.364H450.523ZM444.176 524.097H447.957V536.81C447.957 537.159 448.011 537.431 448.117 537.626C448.224 537.816 448.372 537.949 448.561 538.026C448.756 538.103 448.981 538.141 449.236 538.141C449.413 538.141 449.591 538.127 449.769 538.097C449.946 538.061 450.082 538.035 450.177 538.017L450.772 540.831C450.582 540.891 450.316 540.959 449.973 541.036C449.629 541.118 449.212 541.169 448.721 541.186C447.81 541.222 447.011 541.101 446.324 540.822C445.643 540.544 445.114 540.112 444.735 539.526C444.356 538.94 444.17 538.201 444.176 537.307V524.097ZM452.987 541V527.364H456.769V541H452.987ZM454.887 525.606C454.324 525.606 453.842 525.419 453.44 525.047C453.043 524.668 452.845 524.215 452.845 523.688C452.845 523.167 453.043 522.721 453.44 522.348C453.842 521.969 454.324 521.779 454.887 521.779C455.449 521.779 455.928 521.969 456.325 522.348C456.727 522.721 456.929 523.167 456.929 523.688C456.929 524.215 456.727 524.668 456.325 525.047C455.928 525.419 455.449 525.606 454.887 525.606ZM463.58 522.818V541H459.798V522.818H463.58ZM470.498 541.257C469.628 541.257 468.853 541.107 468.172 540.805C467.492 540.497 466.953 540.044 466.557 539.446C466.166 538.843 465.971 538.091 465.971 537.191C465.971 536.434 466.11 535.798 466.388 535.283C466.666 534.768 467.045 534.353 467.524 534.04C468.004 533.726 468.548 533.489 469.158 533.33C469.773 533.17 470.418 533.057 471.093 532.992C471.886 532.909 472.525 532.832 473.011 532.761C473.496 532.684 473.848 532.572 474.067 532.424C474.286 532.276 474.396 532.057 474.396 531.767V531.714C474.396 531.152 474.218 530.717 473.863 530.409C473.514 530.101 473.017 529.947 472.372 529.947C471.691 529.947 471.149 530.098 470.747 530.4C470.344 530.696 470.078 531.069 469.948 531.518L466.45 531.234C466.628 530.406 466.977 529.69 467.498 529.086C468.018 528.476 468.69 528.009 469.513 527.683C470.341 527.352 471.3 527.186 472.389 527.186C473.147 527.186 473.872 527.275 474.564 527.452C475.263 527.63 475.881 527.905 476.42 528.278C476.964 528.651 477.393 529.13 477.707 529.716C478.021 530.296 478.178 530.992 478.178 531.803V541H474.591V539.109H474.484C474.265 539.535 473.973 539.911 473.606 540.237C473.239 540.556 472.798 540.808 472.283 540.991C471.768 541.169 471.173 541.257 470.498 541.257ZM471.581 538.647C472.138 538.647 472.629 538.538 473.055 538.319C473.481 538.094 473.816 537.792 474.058 537.413C474.301 537.035 474.422 536.605 474.422 536.126V534.679C474.304 534.756 474.141 534.827 473.934 534.892C473.733 534.951 473.505 535.007 473.25 535.061C472.996 535.108 472.741 535.152 472.487 535.194C472.232 535.229 472.002 535.262 471.794 535.292C471.351 535.357 470.963 535.46 470.631 535.602C470.3 535.744 470.043 535.937 469.859 536.179C469.676 536.416 469.584 536.712 469.584 537.067C469.584 537.582 469.77 537.976 470.143 538.248C470.522 538.514 471.001 538.647 471.581 538.647ZM481.112 541V527.364H484.716V529.77H484.876C485.16 528.971 485.634 528.34 486.296 527.879C486.959 527.417 487.752 527.186 488.676 527.186C489.611 527.186 490.407 527.42 491.064 527.887C491.721 528.349 492.159 528.976 492.378 529.77H492.52C492.798 528.988 493.301 528.364 494.029 527.896C494.763 527.423 495.63 527.186 496.63 527.186C497.903 527.186 498.936 527.592 499.729 528.402C500.528 529.207 500.927 530.35 500.927 531.829V541H497.154V532.575C497.154 531.817 496.953 531.249 496.55 530.87C496.148 530.492 495.645 530.302 495.041 530.302C494.355 530.302 493.819 530.521 493.434 530.959C493.05 531.391 492.857 531.962 492.857 532.673V541H489.191V532.495C489.191 531.826 488.998 531.294 488.614 530.897C488.235 530.5 487.735 530.302 487.113 530.302C486.693 530.302 486.314 530.409 485.977 530.622C485.645 530.829 485.382 531.122 485.187 531.501C484.991 531.874 484.894 532.312 484.894 532.815V541H481.112ZM503.915 541V527.364H507.696V541H503.915ZM505.814 525.606C505.252 525.606 504.77 525.419 504.367 525.047C503.971 524.668 503.772 524.215 503.772 523.688C503.772 523.167 503.971 522.721 504.367 522.348C504.77 521.969 505.252 521.779 505.814 521.779C506.377 521.779 506.856 521.969 507.253 522.348C507.655 522.721 507.856 523.167 507.856 523.688C507.856 524.215 507.655 524.668 507.253 525.047C506.856 525.419 506.377 525.606 505.814 525.606ZM514.508 533.116V541H510.726V527.364H514.33V529.77H514.49C514.792 528.976 515.298 528.349 516.008 527.887C516.719 527.42 517.58 527.186 518.592 527.186C519.539 527.186 520.364 527.393 521.069 527.808C521.773 528.222 522.32 528.814 522.711 529.583C523.102 530.347 523.297 531.258 523.297 532.317V541H519.515V532.992C519.521 532.158 519.308 531.507 518.876 531.039C518.444 530.566 517.849 530.329 517.091 530.329C516.582 530.329 516.133 530.438 515.742 530.657C515.357 530.876 515.055 531.196 514.836 531.616C514.623 532.03 514.514 532.531 514.508 533.116ZM530.166 541.257C529.296 541.257 528.521 541.107 527.84 540.805C527.16 540.497 526.621 540.044 526.225 539.446C525.834 538.843 525.639 538.091 525.639 537.191C525.639 536.434 525.778 535.798 526.056 535.283C526.334 534.768 526.713 534.353 527.192 534.04C527.672 533.726 528.216 533.489 528.826 533.33C529.441 533.17 530.086 533.057 530.761 532.992C531.554 532.909 532.193 532.832 532.679 532.761C533.164 532.684 533.516 532.572 533.735 532.424C533.954 532.276 534.064 532.057 534.064 531.767V531.714C534.064 531.152 533.886 530.717 533.531 530.409C533.182 530.101 532.685 529.947 532.04 529.947C531.359 529.947 530.817 530.098 530.415 530.4C530.012 530.696 529.746 531.069 529.616 531.518L526.118 531.234C526.296 530.406 526.645 529.69 527.166 529.086C527.686 528.476 528.358 528.009 529.181 527.683C530.009 527.352 530.968 527.186 532.057 527.186C532.815 527.186 533.54 527.275 534.232 527.452C534.931 527.63 535.549 527.905 536.088 528.278C536.632 528.651 537.061 529.13 537.375 529.716C537.689 530.296 537.846 530.992 537.846 531.803V541H534.259V539.109H534.152C533.933 539.535 533.64 539.911 533.274 540.237C532.907 540.556 532.466 540.808 531.951 540.991C531.436 541.169 530.841 541.257 530.166 541.257ZM531.249 538.647C531.806 538.647 532.297 538.538 532.723 538.319C533.149 538.094 533.484 537.792 533.726 537.413C533.969 537.035 534.09 536.605 534.09 536.126V534.679C533.972 534.756 533.809 534.827 533.602 534.892C533.401 534.951 533.173 535.007 532.918 535.061C532.664 535.108 532.409 535.152 532.155 535.194C531.9 535.229 531.67 535.262 531.462 535.292C531.019 535.357 530.631 535.46 530.299 535.602C529.968 535.744 529.711 535.937 529.527 536.179C529.344 536.416 529.252 536.712 529.252 537.067C529.252 537.582 529.438 537.976 529.811 538.248C530.19 538.514 530.669 538.647 531.249 538.647Z" fill="#424242"/>
<path d="M271.166 141.025L402 89" stroke="#D7D7D7" stroke-width="3" stroke-linecap="round"/>
<path d="M402 89L537 145" stroke="#D7D7D7" stroke-width="3" stroke-linecap="round"/>
<path d="M270.637 141.924L218.669 275.766" stroke="#D7D7D7" stroke-width="3" stroke-linecap="round"/>
<path d="M219 277L270 406" stroke="#D7D7D7" stroke-width="3" stroke-linecap="round"/>
<path d="M401.056 461.386L534.179 406.934" stroke="#D7D7D7" stroke-width="3" stroke-linecap="round"/>
<path d="M401.503 461.37L270 406" stroke="#D7D7D7" stroke-width="3" stroke-linecap="round"/>
<path d="M534 407L587.136 275.015" stroke="#D7D7D7" stroke-width="3" stroke-linecap="round"/>
<path d="M537 145L587 275" stroke="#D7D7D7" stroke-width="3" stroke-linecap="round"/>
<path d="M329.188 200.112L402.401 171" stroke="#D7D7D7" stroke-width="3" stroke-linecap="round"/>
<path d="M402.4 171L477.944 202.337" stroke="#D7D7D7" stroke-width="3" stroke-linecap="round"/>
<path d="M328.197 200.678L300.584 275.062" stroke="#D7D7D7" stroke-width="3" stroke-linecap="round"/>
<path d="M299.995 276.203L328.534 348.39" stroke="#D7D7D7" stroke-width="3" stroke-linecap="round"/>
<path d="M401.872 379.383L476.366 348.912" stroke="#D7D7D7" stroke-width="3" stroke-linecap="round"/>
<path d="M402.122 379.374L328.535 348.389" stroke="#D7D7D7" stroke-width="3" stroke-linecap="round"/>
<path d="M476.266 348.95L506 275.092" stroke="#D7D7D7" stroke-width="3" stroke-linecap="round"/>
<path d="M477.945 202.338L505.924 275.084" stroke="#D7D7D7" stroke-width="3" stroke-linecap="round"/>
<path d="M300.482 170.589L402.558 130" stroke="#D7D7D7" stroke-width="3" stroke-linecap="round"/>
<path d="M402.558 130L507.884 173.691" stroke="#D7D7D7" stroke-width="3" stroke-linecap="round"/>
<path d="M300.383 172.002L260.235 275.4" stroke="#D7D7D7" stroke-width="3" stroke-linecap="round"/>
<path d="M259.783 276.677L299.573 377.322" stroke="#D7D7D7" stroke-width="3" stroke-linecap="round"/>
<path d="M401.822 420.533L505.683 378.05" stroke="#D7D7D7" stroke-width="3" stroke-linecap="round"/>
<path d="M402.171 420.521L299.573 377.322" stroke="#D7D7D7" stroke-width="3" stroke-linecap="round"/>
<path d="M505.544 378.102L547 275.128" stroke="#D7D7D7" stroke-width="3" stroke-linecap="round"/>
<path d="M507.885 173.691L546.894 275.116" stroke="#D7D7D7" stroke-width="3" stroke-linecap="round"/>
<path d="M243.07 112.526L403.07 48.6646" stroke="#D7D7D7" stroke-width="3"/>
<path d="M398.935 48.6665L557.936 112.528" stroke="#D7D7D7" stroke-width="3"/>
<path d="M242.309 115.806L175.309 276.458" stroke="#D7D7D7" stroke-width="3"/>
<path d="M175.294 274.505L244.294 433.162" stroke="#D7D7D7" stroke-width="3"/>
<path d="M400.05 499.696L561.05 433.839" stroke="#D7D7D7" stroke-width="3"/>
<path d="M402 499.514L242 432.412" stroke="#D7D7D7" stroke-width="3"/>
<path d="M559.691 435.192L626.691 274.54" stroke="#D7D7D7" stroke-width="3"/>
<path d="M561.314 113.9L627.314 274.553" stroke="#D7D7D7" stroke-width="3"/>
<path d="M407 49.987C407 52.7393 404.763 54.9741 402 54.9741C399.237 54.9741 397 52.7393 397 49.987C397 47.2348 399.237 45 402 45C404.763 45 407 47.2348 407 49.987Z" fill="white" stroke="#D7D7D7" stroke-width="2"/>
<path d="M249 112.851C249 115.603 246.763 117.838 244 117.838C241.237 117.838 239 115.603 239 112.851C239 110.099 241.237 107.864 244 107.864C246.763 107.864 249 110.099 249 112.851Z" fill="white" stroke="#D7D7D7" stroke-width="2"/>
<path d="M181 275.499C181 278.251 178.763 280.486 176 280.486C173.237 280.486 171 278.251 171 275.499C171 272.747 173.237 270.512 176 270.512C178.763 270.512 181 272.747 181 275.499Z" fill="white" stroke="#D7D7D7" stroke-width="2"/>
<path d="M249 434.155C249 436.908 246.763 439.143 244 439.143C241.237 439.143 239 436.908 239 434.155C239 431.403 241.237 429.168 244 429.168C246.763 429.168 249 431.403 249 434.155Z" fill="white" stroke="#D7D7D7" stroke-width="2"/>
<path d="M406 500.013C406 502.765 403.763 505 401 505C398.237 505 396 502.765 396 500.013C396 497.261 398.237 495.026 401 495.026C403.763 495.026 406 497.261 406 500.013Z" fill="white" stroke="#D7D7D7" stroke-width="2"/>
<path d="M565 434.155C565 436.908 562.763 439.143 560 439.143C557.237 439.143 555 436.908 555 434.155C555 431.403 557.237 429.168 560 429.168C562.763 429.168 565 431.403 565 434.155Z" fill="white" stroke="#D7D7D7" stroke-width="2"/>
<path d="M631 275.499C631 278.251 628.763 280.486 626 280.486C623.237 280.486 621 278.251 621 275.499C621 272.747 623.237 270.512 626 270.512C628.763 270.512 631 272.747 631 275.499Z" fill="white" stroke="#D7D7D7" stroke-width="2"/>
<path d="M565 113.849C565 116.601 562.763 118.836 560 118.836C557.237 118.836 555 116.601 555 113.849C555 111.097 557.237 108.862 560 108.862C562.763 108.862 565 111.097 565 113.849Z" fill="white" stroke="#D7D7D7" stroke-width="2"/>
<path d="M389.288 21.9093C389.288 23.892 388.913 25.5788 388.161 26.9697C387.415 28.3605 386.397 29.4229 385.107 30.1568C383.823 30.8848 382.378 31.2488 380.775 31.2488C379.159 31.2488 377.709 30.8818 376.424 30.1479C375.14 29.414 374.125 28.3516 373.379 26.9608C372.634 25.5699 372.261 23.8861 372.261 21.9093C372.261 19.9266 372.634 18.2398 373.379 16.8489C374.125 15.4581 375.14 14.3986 376.424 13.6707C377.709 12.9368 379.159 12.5698 380.775 12.5698C382.378 12.5698 383.823 12.9368 385.107 13.6707C386.397 14.3986 387.415 15.4581 388.161 16.8489C388.913 18.2398 389.288 19.9266 389.288 21.9093ZM385.391 21.9093C385.391 20.625 385.199 19.5419 384.814 18.66C384.435 17.7781 383.9 17.1093 383.207 16.6536C382.515 16.1979 381.704 15.97 380.775 15.97C379.845 15.97 379.034 16.1979 378.342 16.6536C377.65 17.1093 377.111 17.7781 376.726 18.66C376.347 19.5419 376.158 20.625 376.158 21.9093C376.158 23.1936 376.347 24.2767 376.726 25.1586C377.111 26.0404 377.65 26.7092 378.342 27.165C379.034 27.6207 379.845 27.8486 380.775 27.8486C381.704 27.8486 382.515 27.6207 383.207 27.165C383.9 26.7092 384.435 26.0404 384.814 25.1586C385.199 24.2767 385.391 23.1936 385.391 21.9093ZM404.192 18.6955C404.068 18.2635 403.893 17.8817 403.668 17.5503C403.443 17.2129 403.168 16.9288 402.843 16.698C402.523 16.4613 402.156 16.2807 401.742 16.1564C401.333 16.0322 400.881 15.97 400.383 15.97C399.454 15.97 398.637 16.2008 397.933 16.6625C397.235 17.1241 396.69 17.7959 396.3 18.6778C395.909 19.5537 395.714 20.625 395.714 21.8915C395.714 23.1581 395.906 24.2353 396.291 25.1231C396.675 26.0109 397.22 26.6885 397.924 27.1561C398.629 27.6177 399.46 27.8486 400.419 27.8486C401.289 27.8486 402.032 27.6947 402.647 27.3869C403.269 27.0732 403.742 26.6323 404.068 26.0641C404.399 25.4959 404.565 24.8242 404.565 24.0489L405.346 24.1643H400.659V21.2701H408.267V23.5606C408.267 25.1586 407.93 26.5317 407.255 27.6799C406.58 28.8222 405.651 29.704 404.467 30.3255C403.284 30.941 401.928 31.2488 400.401 31.2488C398.697 31.2488 397.199 30.873 395.909 30.1213C394.619 29.3637 393.613 28.2895 392.891 26.8986C392.174 25.5019 391.816 23.8447 391.816 21.927C391.816 20.4533 392.029 19.1394 392.456 17.9853C392.888 16.8252 393.491 15.8428 394.267 15.0378C395.042 14.2329 395.945 13.6203 396.974 13.2001C398.004 12.7799 399.12 12.5698 400.321 12.5698C401.351 12.5698 402.31 12.7207 403.198 13.0226C404.085 13.3185 404.873 13.7387 405.559 14.2832C406.252 14.8277 406.817 15.4758 407.255 16.2275C407.693 16.9732 407.974 17.7959 408.098 18.6955H404.192ZM411.154 12.8184H415.895L420.902 25.0343H421.115L426.123 12.8184H430.863V31.0002H427.135V19.166H426.984L422.278 30.9114H419.739L415.034 19.1216H414.883V31.0002H411.154V12.8184Z" fill="#424242"/>
<path d="M82.119 117.3H78L84.276 99.118H89.23L95.498 117.3H91.379L86.824 103.273H86.682L82.119 117.3ZM81.862 110.153H91.592V113.154H81.862V110.153ZM101.397 99.118V117.3H97.6151V99.118H101.397ZM110.641 117.566C109.239 117.566 108.031 117.282 107.019 116.714C106.013 116.14 105.238 115.329 104.693 114.282C104.149 113.228 103.877 111.982 103.877 110.544C103.877 109.141 104.149 107.91 104.693 106.851C105.238 105.791 106.004 104.966 106.993 104.374C107.987 103.782 109.153 103.486 110.49 103.486C111.39 103.486 112.228 103.631 113.003 103.921C113.784 104.205 114.465 104.634 115.045 105.208C115.631 105.782 116.086 106.505 116.412 107.375C116.738 108.239 116.9 109.251 116.9 110.411V111.45H105.386V109.106H113.34C113.34 108.561 113.222 108.079 112.985 107.659C112.748 107.238 112.42 106.91 112 106.673C111.585 106.431 111.103 106.309 110.553 106.309C109.979 106.309 109.47 106.442 109.026 106.709C108.588 106.969 108.244 107.321 107.996 107.765C107.747 108.203 107.62 108.691 107.614 109.23V111.458C107.614 112.133 107.738 112.716 107.987 113.207C108.241 113.699 108.6 114.077 109.061 114.344C109.523 114.61 110.07 114.743 110.704 114.743C111.124 114.743 111.508 114.684 111.858 114.566C112.207 114.447 112.506 114.27 112.754 114.033C113.003 113.796 113.192 113.506 113.323 113.163L116.82 113.394C116.643 114.234 116.279 114.968 115.728 115.595C115.184 116.217 114.48 116.702 113.615 117.051C112.757 117.395 111.766 117.566 110.641 117.566ZM119.368 117.3V103.664H123.035V106.043H123.177C123.426 105.197 123.843 104.557 124.429 104.125C125.015 103.687 125.689 103.468 126.453 103.468C126.642 103.468 126.846 103.48 127.065 103.504C127.284 103.528 127.477 103.56 127.642 103.601V106.957C127.465 106.904 127.219 106.857 126.906 106.815C126.592 106.774 126.305 106.753 126.044 106.753C125.488 106.753 124.991 106.874 124.553 107.117C124.121 107.354 123.778 107.685 123.523 108.111C123.275 108.538 123.15 109.029 123.15 109.585V117.3H119.368ZM135.107 122.698C133.881 122.698 132.831 122.529 131.955 122.192C131.085 121.86 130.392 121.407 129.877 120.833C129.363 120.259 129.028 119.614 128.874 118.898L132.372 118.427C132.479 118.7 132.647 118.954 132.878 119.191C133.109 119.428 133.414 119.617 133.793 119.759C134.177 119.907 134.645 119.981 135.195 119.981C136.018 119.981 136.696 119.78 137.228 119.377C137.767 118.981 138.036 118.315 138.036 117.38V114.885H137.876C137.711 115.264 137.462 115.622 137.131 115.959C136.799 116.297 136.373 116.572 135.852 116.785C135.331 116.998 134.71 117.105 133.988 117.105C132.964 117.105 132.032 116.868 131.191 116.394C130.357 115.915 129.691 115.184 129.194 114.202C128.703 113.213 128.457 111.964 128.457 110.455C128.457 108.91 128.709 107.62 129.212 106.584C129.715 105.549 130.384 104.773 131.218 104.258C132.058 103.744 132.979 103.486 133.979 103.486C134.743 103.486 135.382 103.616 135.897 103.877C136.412 104.131 136.826 104.451 137.14 104.836C137.459 105.214 137.705 105.587 137.876 105.954H138.018V103.664H141.774V117.433C141.774 118.593 141.49 119.564 140.922 120.345C140.353 121.126 139.566 121.712 138.56 122.103C137.56 122.499 136.409 122.698 135.107 122.698ZM135.186 114.264C135.796 114.264 136.311 114.113 136.731 113.811C137.157 113.503 137.483 113.065 137.708 112.497C137.939 111.923 138.054 111.236 138.054 110.437C138.054 109.638 137.942 108.946 137.717 108.36C137.492 107.768 137.166 107.309 136.74 106.984C136.314 106.658 135.796 106.496 135.186 106.496C134.565 106.496 134.041 106.664 133.615 107.002C133.189 107.333 132.866 107.795 132.647 108.387C132.428 108.979 132.319 109.662 132.319 110.437C132.319 111.225 132.428 111.905 132.647 112.479C132.872 113.048 133.195 113.488 133.615 113.802C134.041 114.11 134.565 114.264 135.186 114.264ZM150.998 117.566C149.595 117.566 148.388 117.282 147.376 116.714C146.37 116.14 145.594 115.329 145.05 114.282C144.505 113.228 144.233 111.982 144.233 110.544C144.233 109.141 144.505 107.91 145.05 106.851C145.594 105.791 146.361 104.966 147.349 104.374C148.343 103.782 149.509 103.486 150.847 103.486C151.747 103.486 152.584 103.631 153.359 103.921C154.141 104.205 154.821 104.634 155.401 105.208C155.987 105.782 156.443 106.505 156.768 107.375C157.094 108.239 157.257 109.251 157.257 110.411V111.45H145.742V109.106H153.697C153.697 108.561 153.578 108.079 153.342 107.659C153.105 107.238 152.776 106.91 152.356 106.673C151.942 106.431 151.46 106.309 150.909 106.309C150.335 106.309 149.826 106.442 149.382 106.709C148.944 106.969 148.601 107.321 148.352 107.765C148.104 108.203 147.976 108.691 147.971 109.23V111.458C147.971 112.133 148.095 112.716 148.343 113.207C148.598 113.699 148.956 114.077 149.418 114.344C149.879 114.61 150.427 114.743 151.06 114.743C151.48 114.743 151.865 114.684 152.214 114.566C152.563 114.447 152.862 114.27 153.111 114.033C153.359 113.796 153.549 113.506 153.679 113.163L157.177 113.394C156.999 114.234 156.635 114.968 156.085 115.595C155.54 116.217 154.836 116.702 153.972 117.051C153.114 117.395 152.122 117.566 150.998 117.566ZM152.543 102.03L150.758 99.864L148.974 102.03H145.751V101.906L149.347 98H152.161L155.765 101.906V102.03H152.543ZM163.507 109.416V117.3H159.725V103.664H163.329V106.07H163.489C163.791 105.276 164.297 104.649 165.007 104.187C165.717 103.72 166.578 103.486 167.591 103.486C168.538 103.486 169.363 103.693 170.067 104.108C170.772 104.522 171.319 105.114 171.71 105.883C172.1 106.647 172.296 107.558 172.296 108.617V117.3H168.514V109.292C168.52 108.458 168.307 107.807 167.875 107.339C167.443 106.866 166.848 106.629 166.09 106.629C165.581 106.629 165.131 106.738 164.741 106.957C164.356 107.176 164.054 107.496 163.835 107.916C163.622 108.33 163.513 108.831 163.507 109.416ZM175.277 117.3V103.664H179.058V117.3H175.277ZM177.176 101.906C176.614 101.906 176.132 101.719 175.729 101.347C175.333 100.968 175.134 100.515 175.134 99.988C175.134 99.467 175.333 99.021 175.729 98.648C176.132 98.269 176.614 98.079 177.176 98.079C177.739 98.079 178.218 98.269 178.615 98.648C179.017 99.021 179.218 99.467 179.218 99.988C179.218 100.515 179.017 100.968 178.615 101.347C178.218 101.719 177.739 101.906 177.176 101.906ZM188.249 117.566C186.853 117.566 185.651 117.27 184.645 116.679C183.645 116.081 182.875 115.252 182.337 114.193C181.804 113.133 181.538 111.914 181.538 110.535C181.538 109.138 181.807 107.913 182.346 106.86C182.89 105.8 183.662 104.975 184.663 104.383C185.663 103.785 186.853 103.486 188.232 103.486C189.421 103.486 190.463 103.702 191.357 104.134C192.25 104.566 192.957 105.173 193.478 105.954C193.999 106.735 194.286 107.653 194.339 108.706H190.771C190.67 108.026 190.404 107.478 189.972 107.064C189.545 106.644 188.986 106.434 188.294 106.434C187.708 106.434 187.196 106.593 186.758 106.913C186.326 107.227 185.988 107.685 185.746 108.289C185.503 108.893 185.382 109.624 185.382 110.482C185.382 111.352 185.5 112.092 185.737 112.701C185.98 113.311 186.32 113.775 186.758 114.095C187.196 114.415 187.708 114.575 188.294 114.575C188.726 114.575 189.113 114.486 189.457 114.308C189.806 114.131 190.093 113.873 190.318 113.536C190.549 113.193 190.7 112.781 190.771 112.302H194.339C194.28 113.343 193.996 114.261 193.487 115.054C192.984 115.841 192.289 116.457 191.401 116.9C190.513 117.344 189.463 117.566 188.249 117.566ZM202.922 117.566C201.543 117.566 200.351 117.273 199.344 116.687C198.344 116.096 197.572 115.273 197.027 114.219C196.483 113.16 196.21 111.932 196.21 110.535C196.21 109.126 196.483 107.895 197.027 106.842C197.572 105.782 198.344 104.96 199.344 104.374C200.351 103.782 201.543 103.486 202.922 103.486C204.301 103.486 205.491 103.782 206.491 104.374C207.497 104.96 208.273 105.782 208.817 106.842C209.362 107.895 209.634 109.126 209.634 110.535C209.634 111.932 209.362 113.16 208.817 114.219C208.273 115.273 207.497 116.096 206.491 116.687C205.491 117.273 204.301 117.566 202.922 117.566ZM202.94 114.637C203.567 114.637 204.091 114.459 204.511 114.104C204.931 113.743 205.248 113.252 205.461 112.63C205.68 112.009 205.79 111.302 205.79 110.508C205.79 109.715 205.68 109.008 205.461 108.387C205.248 107.765 204.931 107.274 204.511 106.913C204.091 106.552 203.567 106.371 202.94 106.371C202.307 106.371 201.774 106.552 201.342 106.913C200.916 107.274 200.593 107.765 200.374 108.387C200.161 109.008 200.055 109.715 200.055 110.508C200.055 111.302 200.161 112.009 200.374 112.63C200.593 113.252 200.916 113.743 201.342 114.104C201.774 114.459 202.307 114.637 202.94 114.637ZM223.439 107.552L219.976 107.765C219.917 107.469 219.79 107.203 219.595 106.966C219.399 106.724 219.142 106.531 218.822 106.389C218.509 106.241 218.133 106.167 217.695 106.167C217.109 106.167 216.615 106.291 216.212 106.54C215.81 106.783 215.609 107.108 215.609 107.517C215.609 107.842 215.739 108.117 215.999 108.342C216.26 108.567 216.706 108.748 217.34 108.884L219.808 109.381C221.134 109.653 222.122 110.091 222.773 110.695C223.424 111.299 223.75 112.092 223.75 113.074C223.75 113.968 223.486 114.752 222.959 115.427C222.439 116.101 221.722 116.628 220.811 117.007C219.905 117.38 218.861 117.566 217.677 117.566C215.872 117.566 214.434 117.191 213.362 116.439C212.297 115.681 211.673 114.651 211.489 113.349L215.209 113.154C215.322 113.704 215.594 114.125 216.026 114.415C216.458 114.699 217.011 114.841 217.686 114.841C218.349 114.841 218.882 114.714 219.284 114.459C219.692 114.199 219.9 113.864 219.905 113.456C219.9 113.113 219.755 112.831 219.47 112.612C219.186 112.388 218.748 112.216 218.157 112.098L215.795 111.627C214.463 111.361 213.472 110.899 212.821 110.242C212.176 109.585 211.853 108.748 211.853 107.73C211.853 106.854 212.09 106.099 212.563 105.466C213.043 104.833 213.715 104.344 214.579 104.001C215.449 103.658 216.467 103.486 217.633 103.486C219.355 103.486 220.71 103.85 221.699 104.578C222.693 105.306 223.273 106.297 223.439 107.552Z" fill="#424242"/>
<path d="M580.58 117V98.818H587.754C589.133 98.818 590.307 99.0814 591.278 99.6081C592.249 100.129 592.989 100.854 593.498 101.783C594.012 102.707 594.27 103.772 594.27 104.979C594.27 106.187 594.009 107.252 593.489 108.175C592.968 109.099 592.213 109.818 591.225 110.333C590.242 110.848 589.053 111.105 587.656 111.105H583.084V108.025H587.034C587.774 108.025 588.384 107.897 588.863 107.643C589.349 107.382 589.71 107.024 589.946 106.569C590.189 106.107 590.31 105.577 590.31 104.979C590.31 104.376 590.189 103.849 589.946 103.399C589.71 102.943 589.349 102.591 588.863 102.343C588.378 102.088 587.762 101.961 587.017 101.961H584.424V117H580.58ZM602.691 117.266C601.288 117.266 600.08 116.982 599.068 116.414C598.062 115.84 597.287 115.029 596.742 113.982C596.198 112.928 595.926 111.682 595.926 110.244C595.926 108.841 596.198 107.61 596.742 106.551C597.287 105.491 598.053 104.666 599.042 104.074C600.036 103.482 601.202 103.186 602.54 103.186C603.439 103.186 604.277 103.331 605.052 103.621C605.833 103.905 606.514 104.334 607.094 104.908C607.68 105.482 608.136 106.205 608.461 107.075C608.787 107.939 608.949 108.951 608.949 110.111V111.15H597.435V108.806H605.389C605.389 108.261 605.271 107.779 605.034 107.359C604.798 106.938 604.469 106.61 604.049 106.373C603.635 106.131 603.152 106.009 602.602 106.009C602.028 106.009 601.519 106.142 601.075 106.409C600.637 106.669 600.294 107.021 600.045 107.465C599.796 107.903 599.669 108.391 599.663 108.93V111.158C599.663 111.833 599.787 112.416 600.036 112.907C600.291 113.399 600.649 113.777 601.11 114.044C601.572 114.31 602.119 114.443 602.753 114.443C603.173 114.443 603.558 114.384 603.907 114.266C604.256 114.147 604.555 113.97 604.803 113.733C605.052 113.496 605.241 113.206 605.372 112.863L608.869 113.094C608.692 113.934 608.328 114.668 607.778 115.295C607.233 115.917 606.529 116.402 605.665 116.751C604.806 117.095 603.815 117.266 602.691 117.266ZM622.763 107.252L619.301 107.465C619.242 107.169 619.115 106.903 618.919 106.666C618.724 106.424 618.466 106.231 618.147 106.089C617.833 105.941 617.457 105.867 617.019 105.867C616.433 105.867 615.939 105.991 615.537 106.24C615.134 106.483 614.933 106.808 614.933 107.217C614.933 107.542 615.063 107.817 615.324 108.042C615.584 108.267 616.031 108.448 616.664 108.584L619.132 109.081C620.458 109.353 621.446 109.791 622.097 110.395C622.749 110.999 623.074 111.792 623.074 112.774C623.074 113.668 622.811 114.452 622.284 115.127C621.763 115.801 621.047 116.328 620.135 116.707C619.23 117.08 618.185 117.266 617.002 117.266C615.196 117.266 613.758 116.891 612.687 116.139C611.622 115.381 610.997 114.351 610.814 113.049L614.534 112.854C614.646 113.404 614.918 113.825 615.35 114.115C615.782 114.399 616.336 114.541 617.01 114.541C617.673 114.541 618.206 114.414 618.608 114.159C619.017 113.899 619.224 113.564 619.23 113.156C619.224 112.813 619.079 112.531 618.795 112.312C618.511 112.088 618.073 111.916 617.481 111.798L615.119 111.327C613.788 111.061 612.796 110.599 612.145 109.942C611.5 109.285 611.178 108.448 611.178 107.43C611.178 106.554 611.414 105.799 611.888 105.166C612.367 104.533 613.039 104.044 613.903 103.701C614.773 103.358 615.791 103.186 616.957 103.186C618.68 103.186 620.035 103.55 621.023 104.278C622.018 105.006 622.598 105.997 622.763 107.252ZM632.709 103.364V106.205H624.497V103.364H632.709ZM626.361 100.097H630.143V112.81C630.143 113.159 630.196 113.431 630.303 113.626C630.409 113.816 630.557 113.949 630.747 114.026C630.942 114.103 631.167 114.141 631.421 114.141C631.599 114.141 631.777 114.127 631.954 114.097C632.132 114.061 632.268 114.035 632.362 114.017L632.957 116.831C632.768 116.891 632.502 116.959 632.158 117.036C631.815 117.118 631.398 117.169 630.907 117.186C629.995 117.222 629.196 117.101 628.509 116.822C627.829 116.544 627.299 116.112 626.92 115.526C626.542 114.94 626.355 114.201 626.361 113.307V100.097ZM635.172 117V103.364H638.954V117H635.172ZM637.072 101.606C636.51 101.606 636.028 101.419 635.625 101.047C635.229 100.668 635.03 100.215 635.03 99.688C635.03 99.1672 635.229 98.7203 635.625 98.3475C636.028 97.9687 636.51 97.7793 637.072 97.7793C637.634 97.7793 638.114 97.9687 638.51 98.3475C638.913 98.7203 639.114 99.1672 639.114 99.688C639.114 100.215 638.913 100.668 638.51 101.047C638.114 101.419 637.634 101.606 637.072 101.606ZM648.145 117.266C646.748 117.266 645.547 116.97 644.541 116.379C643.54 115.781 642.771 114.952 642.232 113.893C641.7 112.833 641.433 111.614 641.433 110.235C641.433 108.838 641.703 107.613 642.241 106.56C642.786 105.5 643.558 104.675 644.558 104.083C645.559 103.485 646.748 103.186 648.127 103.186C649.317 103.186 650.359 103.402 651.252 103.834C652.146 104.266 652.853 104.873 653.374 105.654C653.895 106.435 654.182 107.353 654.235 108.406H650.666C650.566 107.726 650.299 107.178 649.867 106.764C649.441 106.344 648.882 106.134 648.189 106.134C647.604 106.134 647.092 106.293 646.654 106.613C646.222 106.927 645.884 107.385 645.642 107.989C645.399 108.593 645.278 109.324 645.278 110.182C645.278 111.052 645.396 111.792 645.633 112.401C645.875 113.011 646.216 113.475 646.654 113.795C647.092 114.115 647.604 114.275 648.189 114.275C648.622 114.275 649.009 114.186 649.352 114.008C649.702 113.831 649.989 113.573 650.214 113.236C650.444 112.893 650.595 112.481 650.666 112.002H654.235C654.176 113.043 653.892 113.961 653.383 114.754C652.88 115.541 652.184 116.157 651.297 116.6C650.409 117.044 649.358 117.266 648.145 117.266ZM656.657 117V103.364H660.439V117H656.657ZM658.557 101.606C657.994 101.606 657.512 101.419 657.109 101.047C656.713 100.668 656.515 100.215 656.515 99.688C656.515 99.1672 656.713 98.7203 657.109 98.3475C657.512 97.9687 657.994 97.7793 658.557 97.7793C659.119 97.7793 659.598 97.9687 659.995 98.3475C660.397 98.7203 660.598 99.1672 660.598 99.688C660.598 100.215 660.397 100.668 659.995 101.047C659.598 101.419 659.119 101.606 658.557 101.606ZM668.493 117.222C667.457 117.222 666.519 116.956 665.679 116.423C664.844 115.884 664.181 115.094 663.69 114.053C663.205 113.005 662.962 111.721 662.962 110.2C662.962 108.637 663.214 107.338 663.717 106.302C664.22 105.261 664.889 104.482 665.723 103.967C666.564 103.446 667.484 103.186 668.484 103.186C669.248 103.186 669.884 103.316 670.393 103.577C670.908 103.831 671.322 104.151 671.636 104.536C671.955 104.914 672.198 105.287 672.364 105.654H672.479V98.818H676.252V117H672.524V114.816H672.364C672.186 115.195 671.935 115.571 671.609 115.944C671.29 116.31 670.872 116.615 670.357 116.858C669.848 117.101 669.227 117.222 668.493 117.222ZM669.692 114.212C670.301 114.212 670.816 114.047 671.236 113.715C671.662 113.378 671.988 112.907 672.213 112.304C672.444 111.7 672.559 110.993 672.559 110.182C672.559 109.371 672.447 108.667 672.222 108.069C671.997 107.471 671.671 107.009 671.245 106.684C670.819 106.358 670.301 106.196 669.692 106.196C669.07 106.196 668.546 106.364 668.12 106.702C667.694 107.039 667.372 107.507 667.153 108.104C666.934 108.702 666.824 109.395 666.824 110.182C666.824 110.975 666.934 111.676 667.153 112.286C667.377 112.89 667.7 113.363 668.12 113.706C668.546 114.044 669.07 114.212 669.692 114.212ZM683.25 117.257C682.38 117.257 681.605 117.107 680.924 116.805C680.244 116.497 679.705 116.044 679.309 115.446C678.918 114.843 678.723 114.091 678.723 113.191C678.723 112.434 678.862 111.798 679.14 111.283C679.418 110.768 679.797 110.353 680.276 110.04C680.756 109.726 681.3 109.489 681.91 109.33C682.525 109.17 683.17 109.057 683.845 108.992C684.638 108.909 685.277 108.832 685.763 108.761C686.248 108.684 686.6 108.572 686.819 108.424C687.038 108.276 687.148 108.057 687.148 107.767V107.714C687.148 107.152 686.97 106.717 686.615 106.409C686.266 106.101 685.769 105.947 685.123 105.947C684.443 105.947 683.901 106.098 683.499 106.4C683.096 106.696 682.83 107.069 682.7 107.518L679.202 107.234C679.38 106.406 679.729 105.69 680.25 105.086C680.77 104.476 681.442 104.009 682.265 103.683C683.093 103.352 684.052 103.186 685.141 103.186C685.899 103.186 686.624 103.275 687.316 103.452C688.015 103.63 688.633 103.905 689.172 104.278C689.716 104.651 690.145 105.13 690.459 105.716C690.773 106.296 690.93 106.992 690.93 107.803V117H687.343V115.109H687.236C687.017 115.535 686.724 115.911 686.358 116.237C685.991 116.556 685.55 116.808 685.035 116.991C684.52 117.169 683.925 117.257 683.25 117.257ZM684.333 114.647C684.89 114.647 685.381 114.538 685.807 114.319C686.233 114.094 686.568 113.792 686.81 113.413C687.053 113.035 687.174 112.605 687.174 112.126V110.679C687.056 110.756 686.893 110.827 686.686 110.892C686.485 110.951 686.257 111.007 686.002 111.061C685.748 111.108 685.493 111.152 685.239 111.194C684.984 111.229 684.754 111.262 684.546 111.292C684.103 111.357 683.715 111.46 683.383 111.602C683.052 111.744 682.795 111.937 682.611 112.179C682.428 112.416 682.336 112.712 682.336 113.067C682.336 113.582 682.522 113.976 682.895 114.248C683.274 114.514 683.753 114.647 684.333 114.647ZM705.21 107.252L701.747 107.465C701.688 107.169 701.561 106.903 701.366 106.666C701.17 106.424 700.913 106.231 700.593 106.089C700.279 105.941 699.904 105.867 699.466 105.867C698.88 105.867 698.386 105.991 697.983 106.24C697.581 106.483 697.379 106.808 697.379 107.217C697.379 107.542 697.51 107.817 697.77 108.042C698.03 108.267 698.477 108.448 699.111 108.584L701.579 109.081C702.904 109.353 703.893 109.791 704.544 110.395C705.195 110.999 705.52 111.792 705.52 112.774C705.52 113.668 705.257 114.452 704.73 115.127C704.209 115.801 703.493 116.328 702.582 116.707C701.676 117.08 700.632 117.266 699.448 117.266C697.643 117.266 696.205 116.891 695.133 116.139C694.068 115.381 693.444 114.351 693.26 113.049L696.98 112.854C697.092 113.404 697.365 113.825 697.797 114.115C698.229 114.399 698.782 114.541 699.457 114.541C700.12 114.541 700.652 114.414 701.055 114.159C701.463 113.899 701.67 113.564 701.676 113.156C701.67 112.813 701.525 112.531 701.241 112.312C700.957 112.088 700.519 111.916 699.927 111.798L697.566 111.327C696.234 111.061 695.243 110.599 694.592 109.942C693.947 109.285 693.624 108.448 693.624 107.43C693.624 106.554 693.861 105.799 694.334 105.166C694.814 104.533 695.485 104.044 696.35 103.701C697.22 103.358 698.238 103.186 699.403 103.186C701.126 103.186 702.481 103.55 703.47 104.278C704.464 105.006 705.044 105.997 705.21 107.252Z" fill="#424242"/>
<path d="M644.58 263.818H649.321L654.328 276.034H654.541L659.548 263.818H664.289V282H660.56V270.166H660.409L655.704 281.911H653.165L648.46 270.121H648.309V282H644.58V263.818ZM673.6 282.266C672.197 282.266 670.99 281.982 669.978 281.414C668.971 280.84 668.196 280.029 667.652 278.982C667.107 277.928 666.835 276.682 666.835 275.244C666.835 273.841 667.107 272.61 667.652 271.551C668.196 270.491 668.963 269.666 669.951 269.074C670.945 268.482 672.111 268.186 673.449 268.186C674.348 268.186 675.186 268.331 675.961 268.621C676.742 268.905 677.423 269.334 678.003 269.908C678.589 270.482 679.045 271.205 679.37 272.075C679.696 272.939 679.859 273.951 679.859 275.111V276.15H668.344V273.806H676.299C676.299 273.261 676.18 272.779 675.943 272.359C675.707 271.938 675.378 271.61 674.958 271.373C674.544 271.131 674.061 271.009 673.511 271.009C672.937 271.009 672.428 271.142 671.984 271.409C671.546 271.669 671.203 272.021 670.954 272.465C670.706 272.903 670.578 273.391 670.572 273.93V276.158C670.572 276.833 670.697 277.416 670.945 277.907C671.2 278.399 671.558 278.777 672.019 279.044C672.481 279.31 673.029 279.443 673.662 279.443C674.082 279.443 674.467 279.384 674.816 279.266C675.165 279.147 675.464 278.97 675.713 278.733C675.961 278.496 676.151 278.206 676.281 277.863L679.779 278.094C679.601 278.934 679.237 279.668 678.687 280.295C678.142 280.917 677.438 281.402 676.574 281.751C675.716 282.095 674.724 282.266 673.6 282.266ZM689.58 268.364V271.205H681.368V268.364H689.58ZM683.232 265.097H687.014V277.81C687.014 278.159 687.067 278.431 687.174 278.626C687.28 278.816 687.428 278.949 687.618 279.026C687.813 279.103 688.038 279.141 688.293 279.141C688.47 279.141 688.648 279.127 688.825 279.097C689.003 279.061 689.139 279.035 689.234 279.017L689.828 281.831C689.639 281.891 689.373 281.959 689.029 282.036C688.686 282.118 688.269 282.169 687.778 282.186C686.866 282.222 686.067 282.101 685.381 281.822C684.7 281.544 684.17 281.112 683.791 280.526C683.413 279.94 683.226 279.201 683.232 278.307V265.097ZM695.932 282.257C695.062 282.257 694.287 282.107 693.606 281.805C692.925 281.497 692.387 281.044 691.99 280.446C691.6 279.843 691.404 279.091 691.404 278.191C691.404 277.434 691.543 276.798 691.821 276.283C692.1 275.768 692.478 275.353 692.958 275.04C693.437 274.726 693.982 274.489 694.591 274.33C695.207 274.17 695.852 274.057 696.527 273.992C697.32 273.909 697.959 273.832 698.444 273.761C698.93 273.684 699.282 273.572 699.501 273.424C699.72 273.276 699.829 273.057 699.829 272.767V272.714C699.829 272.152 699.652 271.717 699.297 271.409C698.947 271.101 698.45 270.947 697.805 270.947C697.124 270.947 696.583 271.098 696.18 271.4C695.778 271.696 695.512 272.069 695.381 272.518L691.884 272.234C692.061 271.406 692.41 270.69 692.931 270.086C693.452 269.476 694.124 269.009 694.946 268.683C695.775 268.352 696.734 268.186 697.823 268.186C698.58 268.186 699.305 268.275 699.998 268.452C700.696 268.63 701.315 268.905 701.853 269.278C702.398 269.651 702.827 270.13 703.141 270.716C703.454 271.296 703.611 271.992 703.611 272.803V282H700.025V280.109H699.918C699.699 280.535 699.406 280.911 699.039 281.237C698.672 281.556 698.231 281.808 697.716 281.991C697.201 282.169 696.607 282.257 695.932 282.257ZM697.015 279.647C697.571 279.647 698.063 279.538 698.489 279.319C698.915 279.094 699.249 278.792 699.492 278.413C699.735 278.035 699.856 277.605 699.856 277.126V275.679C699.738 275.756 699.575 275.827 699.368 275.892C699.166 275.951 698.939 276.007 698.684 276.061C698.43 276.108 698.175 276.152 697.921 276.194C697.666 276.229 697.435 276.262 697.228 276.292C696.784 276.357 696.397 276.46 696.065 276.602C695.734 276.744 695.476 276.937 695.293 277.179C695.109 277.416 695.017 277.712 695.017 278.067C695.017 278.582 695.204 278.976 695.577 279.248C695.956 279.514 696.435 279.647 697.015 279.647ZM706.545 282V268.364H710.327V282H706.545ZM708.445 266.606C707.883 266.606 707.401 266.419 706.998 266.047C706.602 265.668 706.403 265.215 706.403 264.688C706.403 264.167 706.602 263.721 706.998 263.348C707.401 262.969 707.883 262.779 708.445 262.779C709.007 262.779 709.487 262.969 709.883 263.348C710.286 263.721 710.487 264.167 710.487 264.688C710.487 265.215 710.286 265.668 709.883 266.047C709.487 266.419 709.007 266.606 708.445 266.606ZM724.703 272.252L721.24 272.465C721.181 272.169 721.054 271.903 720.859 271.666C720.663 271.424 720.406 271.231 720.086 271.089C719.773 270.941 719.397 270.867 718.959 270.867C718.373 270.867 717.879 270.991 717.476 271.24C717.074 271.483 716.873 271.808 716.873 272.217C716.873 272.542 717.003 272.817 717.263 273.042C717.524 273.267 717.97 273.448 718.604 273.584L721.072 274.081C722.397 274.353 723.386 274.791 724.037 275.395C724.688 275.999 725.013 276.792 725.013 277.774C725.013 278.668 724.75 279.452 724.223 280.127C723.703 280.801 722.986 281.328 722.075 281.707C721.169 282.08 720.125 282.266 718.941 282.266C717.136 282.266 715.698 281.891 714.626 281.139C713.561 280.381 712.937 279.351 712.753 278.049L716.473 277.854C716.585 278.404 716.858 278.825 717.29 279.115C717.722 279.399 718.275 279.541 718.95 279.541C719.613 279.541 720.145 279.414 720.548 279.159C720.956 278.899 721.163 278.564 721.169 278.156C721.163 277.813 721.018 277.531 720.734 277.312C720.45 277.088 720.012 276.916 719.42 276.798L717.059 276.327C715.727 276.061 714.736 275.599 714.085 274.942C713.44 274.285 713.117 273.448 713.117 272.43C713.117 271.554 713.354 270.799 713.827 270.166C714.307 269.533 714.979 269.044 715.843 268.701C716.713 268.358 717.731 268.186 718.897 268.186C720.619 268.186 721.974 268.55 722.963 269.278C723.957 270.006 724.537 270.997 724.703 272.252ZM733.252 282V263.818H740.425C741.804 263.818 742.979 264.082 743.95 264.608C744.921 265.129 745.66 265.854 746.169 266.783C746.684 267.707 746.942 268.772 746.942 269.979C746.942 271.187 746.681 272.252 746.161 273.175C745.64 274.099 744.885 274.818 743.897 275.333C742.914 275.848 741.725 276.105 740.328 276.105H735.756V273.025H739.706C740.446 273.025 741.056 272.897 741.535 272.643C742.02 272.382 742.382 272.024 742.618 271.569C742.861 271.107 742.982 270.577 742.982 269.979C742.982 269.376 742.861 268.849 742.618 268.399C742.382 267.943 742.02 267.591 741.535 267.343C741.05 267.088 740.434 266.961 739.689 266.961H737.096V282H733.252ZM755.362 282.266C753.96 282.266 752.752 281.982 751.74 281.414C750.734 280.84 749.959 280.029 749.414 278.982C748.87 277.928 748.597 276.682 748.597 275.244C748.597 273.841 748.87 272.61 749.414 271.551C749.959 270.491 750.725 269.666 751.714 269.074C752.708 268.482 753.874 268.186 755.211 268.186C756.111 268.186 756.949 268.331 757.724 268.621C758.505 268.905 759.186 269.334 759.766 269.908C760.352 270.482 760.807 271.205 761.133 272.075C761.459 272.939 761.621 273.951 761.621 275.111V276.15H750.107V273.806H758.061C758.061 273.261 757.943 272.779 757.706 272.359C757.469 271.938 757.141 271.61 756.721 271.373C756.306 271.131 755.824 271.009 755.274 271.009C754.7 271.009 754.191 271.142 753.747 271.409C753.309 271.669 752.965 272.021 752.717 272.465C752.468 272.903 752.341 273.391 752.335 273.93V276.158C752.335 276.833 752.459 277.416 752.708 277.907C752.962 278.399 753.32 278.777 753.782 279.044C754.244 279.31 754.791 279.443 755.425 279.443C755.845 279.443 756.229 279.384 756.579 279.266C756.928 279.147 757.227 278.97 757.475 278.733C757.724 278.496 757.913 278.206 758.044 277.863L761.541 278.094C761.364 278.934 761 279.668 760.449 280.295C759.905 280.917 759.201 281.402 758.336 281.751C757.478 282.095 756.487 282.266 755.362 282.266ZM775.435 272.252L771.973 272.465C771.914 272.169 771.786 271.903 771.591 271.666C771.396 271.424 771.138 271.231 770.819 271.089C770.505 270.941 770.129 270.867 769.691 270.867C769.105 270.867 768.611 270.991 768.209 271.24C767.806 271.483 767.605 271.808 767.605 272.217C767.605 272.542 767.735 272.817 767.996 273.042C768.256 273.267 768.703 273.448 769.336 273.584L771.804 274.081C773.13 274.353 774.118 274.791 774.769 275.395C775.42 275.999 775.746 276.792 775.746 277.774C775.746 278.668 775.483 279.452 774.956 280.127C774.435 280.801 773.719 281.328 772.807 281.707C771.902 282.08 770.857 282.266 769.673 282.266C767.868 282.266 766.43 281.891 765.359 281.139C764.294 280.381 763.669 279.351 763.486 278.049L767.205 277.854C767.318 278.404 767.59 278.825 768.022 279.115C768.454 279.399 769.008 279.541 769.682 279.541C770.345 279.541 770.878 279.414 771.28 279.159C771.689 278.899 771.896 278.564 771.902 278.156C771.896 277.813 771.751 277.531 771.467 277.312C771.183 277.088 770.745 276.916 770.153 276.798L767.791 276.327C766.46 276.061 765.468 275.599 764.817 274.942C764.172 274.285 763.85 273.448 763.85 272.43C763.85 271.554 764.086 270.799 764.56 270.166C765.039 269.533 765.711 269.044 766.575 268.701C767.445 268.358 768.463 268.186 769.629 268.186C771.351 268.186 772.707 268.55 773.695 269.278C774.689 270.006 775.269 270.997 775.435 272.252ZM782.016 282.257C781.146 282.257 780.371 282.107 779.69 281.805C779.009 281.497 778.471 281.044 778.074 280.446C777.684 279.843 777.488 279.091 777.488 278.191C777.488 277.434 777.627 276.798 777.905 276.283C778.184 275.768 778.562 275.353 779.042 275.04C779.521 274.726 780.066 274.489 780.675 274.33C781.291 274.17 781.936 274.057 782.611 273.992C783.404 273.909 784.043 273.832 784.528 273.761C785.014 273.684 785.366 273.572 785.585 273.424C785.804 273.276 785.913 273.057 785.913 272.767V272.714C785.913 272.152 785.736 271.717 785.381 271.409C785.031 271.101 784.534 270.947 783.889 270.947C783.208 270.947 782.667 271.098 782.264 271.4C781.862 271.696 781.596 272.069 781.465 272.518L777.968 272.234C778.145 271.406 778.494 270.69 779.015 270.086C779.536 269.476 780.208 269.009 781.03 268.683C781.859 268.352 782.818 268.186 783.907 268.186C784.664 268.186 785.389 268.275 786.082 268.452C786.78 268.63 787.399 268.905 787.937 269.278C788.482 269.651 788.911 270.13 789.225 270.716C789.538 271.296 789.695 271.992 789.695 272.803V282H786.109V280.109H786.002C785.783 280.535 785.49 280.911 785.123 281.237C784.756 281.556 784.315 281.808 783.8 281.991C783.285 282.169 782.691 282.257 782.016 282.257ZM783.099 279.647C783.655 279.647 784.147 279.538 784.573 279.319C784.999 279.094 785.333 278.792 785.576 278.413C785.819 278.035 785.94 277.605 785.94 277.126V275.679C785.822 275.756 785.659 275.827 785.452 275.892C785.25 275.951 785.023 276.007 784.768 276.061C784.514 276.108 784.259 276.152 784.005 276.194C783.75 276.229 783.519 276.262 783.312 276.292C782.868 276.357 782.48 276.46 782.149 276.602C781.818 276.744 781.56 276.937 781.377 277.179C781.193 277.416 781.101 277.712 781.101 278.067C781.101 278.582 781.288 278.976 781.661 279.248C782.04 279.514 782.519 279.647 783.099 279.647ZM797.654 282.222C796.618 282.222 795.68 281.956 794.84 281.423C794.005 280.884 793.343 280.094 792.851 279.053C792.366 278.005 792.123 276.721 792.123 275.2C792.123 273.637 792.375 272.338 792.878 271.302C793.381 270.261 794.05 269.482 794.884 268.967C795.725 268.446 796.645 268.186 797.645 268.186C798.409 268.186 799.045 268.316 799.554 268.577C800.069 268.831 800.483 269.151 800.797 269.536C801.117 269.914 801.359 270.287 801.525 270.654H801.64V263.818H805.413V282H801.685V279.816H801.525C801.347 280.195 801.096 280.571 800.77 280.944C800.451 281.31 800.033 281.615 799.519 281.858C799.01 282.101 798.388 282.222 797.654 282.222ZM798.853 279.212C799.462 279.212 799.977 279.047 800.397 278.715C800.824 278.378 801.149 277.907 801.374 277.304C801.605 276.7 801.72 275.993 801.72 275.182C801.72 274.371 801.608 273.667 801.383 273.069C801.158 272.471 800.832 272.009 800.406 271.684C799.98 271.358 799.462 271.196 798.853 271.196C798.231 271.196 797.707 271.364 797.281 271.702C796.855 272.039 796.533 272.507 796.314 273.104C796.095 273.702 795.985 274.395 795.985 275.182C795.985 275.975 796.095 276.676 796.314 277.286C796.539 277.89 796.861 278.363 797.281 278.706C797.707 279.044 798.231 279.212 798.853 279.212ZM814.684 282.266C813.305 282.266 812.113 281.973 811.106 281.387C810.106 280.796 809.334 279.973 808.789 278.919C808.245 277.86 807.972 276.632 807.972 275.235C807.972 273.826 808.245 272.595 808.789 271.542C809.334 270.482 810.106 269.66 811.106 269.074C812.113 268.482 813.305 268.186 814.684 268.186C816.063 268.186 817.253 268.482 818.253 269.074C819.259 269.66 820.035 270.482 820.579 271.542C821.124 272.595 821.396 273.826 821.396 275.235C821.396 276.632 821.124 277.86 820.579 278.919C820.035 279.973 819.259 280.796 818.253 281.387C817.253 281.973 816.063 282.266 814.684 282.266ZM814.702 279.337C815.329 279.337 815.853 279.159 816.273 278.804C816.693 278.443 817.01 277.952 817.223 277.33C817.442 276.709 817.552 276.002 817.552 275.208C817.552 274.415 817.442 273.708 817.223 273.087C817.01 272.465 816.693 271.974 816.273 271.613C815.853 271.252 815.329 271.071 814.702 271.071C814.069 271.071 813.536 271.252 813.104 271.613C812.678 271.974 812.355 272.465 812.136 273.087C811.923 273.708 811.817 274.415 811.817 275.208C811.817 276.002 811.923 276.709 812.136 277.33C812.355 277.952 812.678 278.443 813.104 278.804C813.536 279.159 814.069 279.337 814.702 279.337ZM835.201 272.252L831.738 272.465C831.679 272.169 831.552 271.903 831.357 271.666C831.161 271.424 830.904 271.231 830.584 271.089C830.271 270.941 829.895 270.867 829.457 270.867C828.871 270.867 828.377 270.991 827.974 271.24C827.572 271.483 827.371 271.808 827.371 272.217C827.371 272.542 827.501 272.817 827.761 273.042C828.022 273.267 828.468 273.448 829.102 273.584L831.57 274.081C832.896 274.353 833.884 274.791 834.535 275.395C835.186 275.999 835.512 276.792 835.512 277.774C835.512 278.668 835.248 279.452 834.721 280.127C834.201 280.801 833.484 281.328 832.573 281.707C831.667 282.08 830.623 282.266 829.439 282.266C827.634 282.266 826.196 281.891 825.124 281.139C824.059 280.381 823.435 279.351 823.251 278.049L826.971 277.854C827.084 278.404 827.356 278.825 827.788 279.115C828.22 279.399 828.773 279.541 829.448 279.541C830.111 279.541 830.644 279.414 831.046 279.159C831.454 278.899 831.662 278.564 831.667 278.156C831.662 277.813 831.517 277.531 831.232 277.312C830.948 277.088 830.51 276.916 829.919 276.798L827.557 276.327C826.225 276.061 825.234 275.599 824.583 274.942C823.938 274.285 823.615 273.448 823.615 272.43C823.615 271.554 823.852 270.799 824.325 270.166C824.805 269.533 825.477 269.044 826.341 268.701C827.211 268.358 828.229 268.186 829.395 268.186C831.117 268.186 832.472 268.55 833.461 269.278C834.455 270.006 835.035 270.997 835.201 272.252Z" fill="#424242"/>
<path d="M376.096 204.443V202.845L381.753 193.909H383.012V196.261H382.213L378.167 202.666V202.768H385.92V204.443H376.096ZM382.302 207V203.957L382.315 203.229V193.909H384.188V207H382.302Z" fill="#616161"/>
<path d="M382.108 166.179C381.524 166.17 380.949 166.064 380.382 165.859C379.82 165.655 379.308 165.314 378.848 164.837C378.388 164.359 378.019 163.718 377.742 162.913C377.469 162.107 377.333 161.102 377.333 159.896C377.333 158.754 377.446 157.739 377.672 156.853C377.902 155.967 378.232 155.219 378.663 154.609C379.093 153.996 379.613 153.529 380.222 153.21C380.832 152.89 381.516 152.73 382.274 152.73C383.054 152.73 383.746 152.884 384.351 153.19C384.957 153.497 385.447 153.921 385.822 154.462C386.201 155.004 386.442 155.619 386.544 156.31H384.594C384.462 155.764 384.2 155.319 383.808 154.974C383.416 154.629 382.905 154.456 382.274 154.456C381.315 154.456 380.567 154.874 380.03 155.709C379.498 156.544 379.229 157.705 379.225 159.192H379.321C379.547 158.822 379.824 158.506 380.152 158.246C380.484 157.982 380.855 157.78 381.264 157.639C381.677 157.494 382.112 157.422 382.568 157.422C383.327 157.422 384.013 157.607 384.626 157.978C385.244 158.344 385.736 158.852 386.103 159.499C386.469 160.147 386.653 160.888 386.653 161.724C386.653 162.559 386.463 163.315 386.084 163.993C385.709 164.67 385.18 165.207 384.498 165.604C383.817 165.996 383.02 166.188 382.108 166.179ZM382.101 164.517C382.604 164.517 383.054 164.393 383.45 164.146C383.847 163.899 384.16 163.567 384.39 163.149C384.62 162.732 384.735 162.265 384.735 161.749C384.735 161.246 384.622 160.788 384.396 160.375C384.175 159.962 383.868 159.634 383.476 159.391C383.088 159.148 382.645 159.026 382.146 159.026C381.767 159.026 381.415 159.099 381.092 159.244C380.772 159.388 380.491 159.589 380.248 159.844C380.005 160.1 379.813 160.394 379.672 160.727C379.536 161.055 379.468 161.402 379.468 161.768C379.468 162.259 379.581 162.712 379.807 163.13C380.037 163.548 380.35 163.884 380.746 164.14C381.147 164.391 381.599 164.517 382.101 164.517Z" fill="#616161"/>
<path d="M381.996 123.179C381.08 123.179 380.27 123.021 379.567 122.706C378.868 122.391 378.321 121.956 377.924 121.402C377.528 120.848 377.332 120.217 377.336 119.51C377.332 118.956 377.445 118.447 377.675 117.982C377.909 117.513 378.227 117.124 378.627 116.812C379.028 116.497 379.475 116.297 379.97 116.212V116.135C379.318 115.977 378.796 115.628 378.404 115.087C378.012 114.545 377.818 113.923 377.822 113.22C377.818 112.551 377.995 111.955 378.353 111.43C378.715 110.902 379.211 110.487 379.842 110.184C380.473 109.881 381.191 109.73 381.996 109.73C382.793 109.73 383.505 109.884 384.131 110.19C384.762 110.493 385.258 110.908 385.62 111.437C385.983 111.961 386.166 112.555 386.17 113.22C386.166 113.923 385.965 114.545 385.569 115.087C385.173 115.628 384.657 115.977 384.022 116.135V116.212C384.512 116.297 384.953 116.497 385.345 116.812C385.742 117.124 386.057 117.513 386.291 117.982C386.53 118.447 386.652 118.956 386.656 119.51C386.652 120.217 386.451 120.848 386.055 121.402C385.659 121.956 385.109 122.391 384.406 122.706C383.707 123.021 382.904 123.179 381.996 123.179ZM381.996 121.562C382.537 121.562 383.006 121.472 383.402 121.293C383.799 121.11 384.105 120.857 384.323 120.533C384.54 120.205 384.651 119.821 384.655 119.382C384.651 118.926 384.532 118.523 384.297 118.174C384.067 117.825 383.754 117.55 383.358 117.349C382.961 117.149 382.507 117.049 381.996 117.049C381.48 117.049 381.022 117.149 380.622 117.349C380.221 117.55 379.906 117.825 379.676 118.174C379.446 118.523 379.333 118.926 379.337 119.382C379.333 119.821 379.437 120.205 379.65 120.533C379.867 120.857 380.176 121.11 380.577 121.293C380.978 121.472 381.451 121.562 381.996 121.562ZM381.996 115.47C382.431 115.47 382.816 115.383 383.153 115.208C383.49 115.033 383.754 114.79 383.946 114.479C384.142 114.168 384.242 113.804 384.246 113.386C384.242 112.977 384.144 112.619 383.952 112.312C383.764 112.006 383.502 111.769 383.166 111.603C382.829 111.433 382.439 111.347 381.996 111.347C381.544 111.347 381.148 111.433 380.807 111.603C380.47 111.769 380.208 112.006 380.021 112.312C379.833 112.619 379.742 112.977 379.746 113.386C379.742 113.804 379.835 114.168 380.027 114.479C380.219 114.79 380.483 115.033 380.82 115.208C381.161 115.383 381.553 115.47 381.996 115.47Z" fill="#616161"/>
<path d="M377.662 70.909V83.9999H375.681V72.8905H375.604L372.472 74.936V73.0439L375.738 70.909H377.662ZM385.761 84.2172C384.751 84.213 383.888 83.9466 383.172 83.4182C382.456 82.8898 381.909 82.1206 381.53 81.1107C381.15 80.1008 380.961 78.8841 380.961 77.4608C380.961 76.0418 381.15 74.8294 381.53 73.8238C381.913 72.8181 382.463 72.051 383.179 71.5226C383.899 70.9942 384.76 70.73 385.761 70.73C386.763 70.73 387.621 70.9963 388.337 71.529C389.053 72.0574 389.601 72.8245 389.98 73.8302C390.363 74.8316 390.555 76.0418 390.555 77.4608C390.555 78.8884 390.366 80.1071 389.986 81.1171C389.607 82.1228 389.059 82.8919 388.343 83.4246C387.628 83.953 386.767 84.2172 385.761 84.2172ZM385.761 82.5106C386.647 82.5106 387.34 82.078 387.839 81.213C388.341 80.3479 388.593 79.0972 388.593 77.4608C388.593 76.3742 388.478 75.4559 388.248 74.7059C388.022 73.9516 387.696 73.3806 387.27 72.9928C386.848 72.6008 386.345 72.4047 385.761 72.4047C384.879 72.4047 384.187 72.8394 383.684 73.7087C383.181 74.578 382.927 75.8287 382.923 77.4608C382.923 78.5517 383.036 79.4743 383.262 80.2286C383.492 80.9786 383.818 81.5475 384.24 81.9353C384.662 82.3188 385.169 82.5106 385.761 82.5106Z" fill="#616161"/>
<path d="M71.5803 425.818H76.321L81.3281 438.034H81.5412L86.5483 425.818H91.2891V444H87.5604V432.166H87.4094L82.7042 443.911H80.1651L75.4599 432.121H75.3089V444H71.5803V425.818ZM94.3852 444V430.364H98.1672V444H94.3852ZM96.2851 428.606C95.7228 428.606 95.2404 428.419 94.838 428.047C94.4414 427.668 94.2432 427.215 94.2432 426.688C94.2432 426.167 94.4414 425.721 94.838 425.348C95.2404 424.969 95.7228 424.779 96.2851 424.779C96.8473 424.779 97.3267 424.969 97.7233 425.348C98.1257 425.721 98.327 426.167 98.327 426.688C98.327 427.215 98.1257 427.668 97.7233 428.047C97.3267 428.419 96.8473 428.606 96.2851 428.606ZM107.358 444.266C105.961 444.266 104.76 443.97 103.754 443.379C102.753 442.781 101.984 441.952 101.445 440.893C100.913 439.833 100.646 438.614 100.646 437.235C100.646 435.838 100.916 434.613 101.454 433.56C101.999 432.5 102.771 431.675 103.771 431.083C104.772 430.485 105.961 430.186 107.34 430.186C108.53 430.186 109.571 430.402 110.465 430.834C111.359 431.266 112.066 431.873 112.587 432.654C113.108 433.435 113.395 434.353 113.448 435.406H109.879C109.779 434.726 109.512 434.178 109.08 433.764C108.654 433.344 108.095 433.134 107.402 433.134C106.816 433.134 106.304 433.293 105.866 433.613C105.434 433.927 105.097 434.385 104.854 434.989C104.612 435.593 104.49 436.324 104.49 437.182C104.49 438.052 104.609 438.792 104.846 439.401C105.088 440.011 105.429 440.475 105.866 440.795C106.304 441.115 106.816 441.275 107.402 441.275C107.834 441.275 108.222 441.186 108.565 441.008C108.915 440.831 109.202 440.573 109.426 440.236C109.657 439.893 109.808 439.481 109.879 439.002H113.448C113.389 440.043 113.105 440.961 112.596 441.754C112.093 442.541 111.397 443.157 110.51 443.6C109.622 444.044 108.571 444.266 107.358 444.266ZM122.031 444.266C120.652 444.266 119.459 443.973 118.453 443.387C117.453 442.796 116.68 441.973 116.136 440.919C115.591 439.86 115.319 438.632 115.319 437.235C115.319 435.826 115.591 434.595 116.136 433.542C116.68 432.482 117.453 431.66 118.453 431.074C119.459 430.482 120.652 430.186 122.031 430.186C123.41 430.186 124.599 430.482 125.6 431.074C126.606 431.66 127.381 432.482 127.926 433.542C128.47 434.595 128.742 435.826 128.742 437.235C128.742 438.632 128.47 439.86 127.926 440.919C127.381 441.973 126.606 442.796 125.6 443.387C124.599 443.973 123.41 444.266 122.031 444.266ZM122.049 441.337C122.676 441.337 123.2 441.159 123.62 440.804C124.04 440.443 124.357 439.952 124.57 439.33C124.789 438.709 124.898 438.002 124.898 437.208C124.898 436.415 124.789 435.708 124.57 435.087C124.357 434.465 124.04 433.974 123.62 433.613C123.2 433.252 122.676 433.071 122.049 433.071C121.415 433.071 120.883 433.252 120.451 433.613C120.024 433.974 119.702 434.465 119.483 435.087C119.27 435.708 119.163 436.415 119.163 437.208C119.163 438.002 119.27 438.709 119.483 439.33C119.702 439.952 120.024 440.443 120.451 440.804C120.883 441.159 121.415 441.337 122.049 441.337ZM138.455 430.364V433.205H130.243V430.364H138.455ZM132.107 427.097H135.889V439.81C135.889 440.159 135.942 440.431 136.049 440.626C136.155 440.816 136.303 440.949 136.493 441.026C136.688 441.103 136.913 441.141 137.168 441.141C137.345 441.141 137.523 441.127 137.7 441.097C137.878 441.061 138.014 441.035 138.109 441.017L138.703 443.831C138.514 443.891 138.248 443.959 137.904 444.036C137.561 444.118 137.144 444.169 136.653 444.186C135.741 444.222 134.942 444.101 134.256 443.822C133.575 443.544 133.045 443.112 132.666 442.526C132.288 441.94 132.101 441.201 132.107 440.307V427.097ZM146.933 444.266C145.554 444.266 144.362 443.973 143.355 443.387C142.355 442.796 141.583 441.973 141.038 440.919C140.494 439.86 140.222 438.632 140.222 437.235C140.222 435.826 140.494 434.595 141.038 433.542C141.583 432.482 142.355 431.66 143.355 431.074C144.362 430.482 145.554 430.186 146.933 430.186C148.312 430.186 149.502 430.482 150.502 431.074C151.508 431.66 152.284 432.482 152.828 433.542C153.373 434.595 153.645 435.826 153.645 437.235C153.645 438.632 153.373 439.86 152.828 440.919C152.284 441.973 151.508 442.796 150.502 443.387C149.502 443.973 148.312 444.266 146.933 444.266ZM146.951 441.337C147.578 441.337 148.102 441.159 148.522 440.804C148.943 440.443 149.259 439.952 149.472 439.33C149.691 438.709 149.801 438.002 149.801 437.208C149.801 436.415 149.691 435.708 149.472 435.087C149.259 434.465 148.943 433.974 148.522 433.613C148.102 433.252 147.578 433.071 146.951 433.071C146.318 433.071 145.785 433.252 145.353 433.613C144.927 433.974 144.604 434.465 144.385 435.087C144.172 435.708 144.066 436.415 144.066 437.208C144.066 438.002 144.172 438.709 144.385 439.33C144.604 439.952 144.927 440.443 145.353 440.804C145.785 441.159 146.318 441.337 146.951 441.337ZM158.776 430.364L161.28 435.131L163.845 430.364H167.725L163.774 437.182L167.832 444H163.97L161.28 439.286L158.634 444H154.728L158.776 437.182L154.87 430.364H158.776ZM169.971 444V430.364H173.753V444H169.971ZM171.871 428.606C171.309 428.606 170.826 428.419 170.424 428.047C170.027 427.668 169.829 427.215 169.829 426.688C169.829 426.167 170.027 425.721 170.424 425.348C170.826 424.969 171.309 424.779 171.871 424.779C172.433 424.779 172.913 424.969 173.309 425.348C173.712 425.721 173.913 426.167 173.913 426.688C173.913 427.215 173.712 427.668 173.309 428.047C172.913 428.419 172.433 428.606 171.871 428.606ZM180.565 436.116V444H176.783V430.364H180.387V432.77H180.547C180.849 431.976 181.355 431.349 182.065 430.887C182.775 430.42 183.636 430.186 184.648 430.186C185.595 430.186 186.421 430.393 187.125 430.808C187.83 431.222 188.377 431.814 188.768 432.583C189.158 433.347 189.354 434.258 189.354 435.317V444H185.572V435.992C185.578 435.158 185.365 434.507 184.933 434.039C184.5 433.566 183.906 433.329 183.148 433.329C182.639 433.329 182.189 433.438 181.799 433.657C181.414 433.876 181.112 434.196 180.893 434.616C180.68 435.03 180.571 435.531 180.565 436.116ZM196.223 444.257C195.353 444.257 194.578 444.107 193.897 443.805C193.216 443.497 192.678 443.044 192.281 442.446C191.891 441.843 191.695 441.091 191.695 440.191C191.695 439.434 191.834 438.798 192.112 438.283C192.391 437.768 192.769 437.353 193.249 437.04C193.728 436.726 194.273 436.489 194.882 436.33C195.498 436.17 196.143 436.057 196.818 435.992C197.611 435.909 198.25 435.832 198.735 435.761C199.221 435.684 199.573 435.572 199.792 435.424C200.011 435.276 200.12 435.057 200.12 434.767V434.714C200.12 434.152 199.943 433.717 199.588 433.409C199.238 433.101 198.741 432.947 198.096 432.947C197.416 432.947 196.874 433.098 196.472 433.4C196.069 433.696 195.803 434.069 195.672 434.518L192.175 434.234C192.352 433.406 192.701 432.69 193.222 432.086C193.743 431.476 194.415 431.009 195.237 430.683C196.066 430.352 197.025 430.186 198.114 430.186C198.871 430.186 199.597 430.275 200.289 430.452C200.987 430.63 201.606 430.905 202.144 431.278C202.689 431.651 203.118 432.13 203.432 432.716C203.745 433.296 203.902 433.992 203.902 434.803V444H200.316V442.109H200.209C199.99 442.535 199.697 442.911 199.33 443.237C198.963 443.556 198.522 443.808 198.007 443.991C197.492 444.169 196.898 444.257 196.223 444.257ZM197.306 441.647C197.862 441.647 198.354 441.538 198.78 441.319C199.206 441.094 199.54 440.792 199.783 440.413C200.026 440.035 200.147 439.605 200.147 439.126V437.679C200.029 437.756 199.866 437.827 199.659 437.892C199.457 437.951 199.23 438.007 198.975 438.061C198.721 438.108 198.466 438.152 198.212 438.194C197.957 438.229 197.726 438.262 197.519 438.292C197.075 438.357 196.688 438.46 196.356 438.602C196.025 438.744 195.767 438.937 195.584 439.179C195.4 439.416 195.309 439.712 195.309 440.067C195.309 440.582 195.495 440.976 195.868 441.248C196.247 441.514 196.726 441.647 197.306 441.647ZM218.182 434.252L214.72 434.465C214.661 434.169 214.533 433.903 214.338 433.666C214.143 433.424 213.885 433.231 213.566 433.089C213.252 432.941 212.876 432.867 212.438 432.867C211.852 432.867 211.358 432.991 210.956 433.24C210.553 433.483 210.352 433.808 210.352 434.217C210.352 434.542 210.482 434.817 210.743 435.042C211.003 435.267 211.45 435.448 212.083 435.584L214.551 436.081C215.877 436.353 216.865 436.791 217.516 437.395C218.167 437.999 218.493 438.792 218.493 439.774C218.493 440.668 218.23 441.452 217.703 442.127C217.182 442.801 216.466 443.328 215.554 443.707C214.649 444.08 213.604 444.266 212.421 444.266C210.615 444.266 209.177 443.891 208.106 443.139C207.041 442.381 206.416 441.351 206.233 440.049L209.953 439.854C210.065 440.404 210.337 440.825 210.769 441.115C211.201 441.399 211.755 441.541 212.429 441.541C213.092 441.541 213.625 441.414 214.027 441.159C214.436 440.899 214.643 440.564 214.649 440.156C214.643 439.813 214.498 439.531 214.214 439.312C213.93 439.088 213.492 438.916 212.9 438.798L210.538 438.327C209.207 438.061 208.215 437.599 207.564 436.942C206.919 436.285 206.597 435.448 206.597 434.43C206.597 433.554 206.833 432.799 207.307 432.166C207.786 431.533 208.458 431.044 209.322 430.701C210.192 430.358 211.21 430.186 212.376 430.186C214.098 430.186 215.454 430.55 216.442 431.278C217.437 432.006 218.017 432.997 218.182 434.252Z" fill="#424242"/>
<path d="M12.7141 282H8.59482L14.8714 263.818H19.8253L26.093 282H21.9737L17.4194 267.973H17.2773L12.7141 282ZM12.4567 274.853H22.1868V277.854H12.4567V274.853ZM15.9901 262.06L17.8722 258.021H21.37L18.6623 262.06H15.9901ZM33.7369 282.266C32.3401 282.266 31.1386 281.97 30.1325 281.379C29.1322 280.781 28.3628 279.952 27.8242 278.893C27.2915 277.833 27.0252 276.614 27.0252 275.235C27.0252 273.838 27.2945 272.613 27.8331 271.56C28.3776 270.5 29.15 269.675 30.1502 269.083C31.1504 268.485 32.3401 268.186 33.7191 268.186C34.9087 268.186 35.9504 268.402 36.8441 268.834C37.7378 269.266 38.4451 269.873 38.9659 270.654C39.4867 271.435 39.7738 272.353 39.8271 273.406H36.2582C36.1576 272.726 35.8912 272.178 35.4592 271.764C35.033 271.344 34.4737 271.134 33.7812 271.134C33.1953 271.134 32.6834 271.293 32.2454 271.613C31.8133 271.927 31.476 272.385 31.2333 272.989C30.9906 273.593 30.8693 274.324 30.8693 275.182C30.8693 276.052 30.9877 276.792 31.2244 277.401C31.4671 278.011 31.8074 278.475 32.2454 278.795C32.6834 279.115 33.1953 279.275 33.7812 279.275C34.2133 279.275 34.601 279.186 34.9442 279.008C35.2934 278.831 35.5805 278.573 35.8054 278.236C36.0362 277.893 36.1871 277.481 36.2582 277.002H39.8271C39.7679 278.043 39.4838 278.961 38.9748 279.754C38.4717 280.541 37.7763 281.157 36.8885 281.6C36.0007 282.044 34.9502 282.266 33.7369 282.266ZM42.2485 282V268.364H46.0305V282H42.2485ZM44.1483 266.606C43.5861 266.606 43.1037 266.419 42.7013 266.047C42.3047 265.668 42.1064 265.215 42.1064 264.688C42.1064 264.167 42.3047 263.721 42.7013 263.348C43.1037 262.969 43.5861 262.779 44.1483 262.779C44.7106 262.779 45.19 262.969 45.5866 263.348C45.989 263.721 46.1903 264.167 46.1903 264.688C46.1903 265.215 45.989 265.668 45.5866 266.047C45.19 266.419 44.7106 266.606 44.1483 266.606ZM54.0849 282.222C53.0491 282.222 52.111 281.956 51.2706 281.423C50.4361 280.884 49.7732 280.094 49.282 279.053C48.7966 278.005 48.554 276.721 48.554 275.2C48.554 273.637 48.8055 272.338 49.3086 271.302C49.8117 270.261 50.4805 269.482 51.315 268.967C52.1554 268.446 53.0758 268.186 54.076 268.186C54.8395 268.186 55.4757 268.316 55.9847 268.577C56.4996 268.831 56.9139 269.151 57.2276 269.536C57.5472 269.914 57.7899 270.287 57.9556 270.654H58.071V263.818H61.8441V282H58.1154V279.816H57.9556C57.7781 280.195 57.5265 280.571 57.201 280.944C56.8814 281.31 56.4641 281.615 55.9492 281.858C55.4402 282.101 54.8188 282.222 54.0849 282.222ZM55.2834 279.212C55.893 279.212 56.4079 279.047 56.8281 278.715C57.2543 278.378 57.5798 277.907 57.8047 277.304C58.0355 276.7 58.1509 275.993 58.1509 275.182C58.1509 274.371 58.0385 273.667 57.8136 273.069C57.5887 272.471 57.2631 272.009 56.837 271.684C56.4109 271.358 55.893 271.196 55.2834 271.196C54.6619 271.196 54.1381 271.364 53.712 271.702C53.2859 272.039 52.9633 272.507 52.7443 273.104C52.5253 273.702 52.4158 274.395 52.4158 275.182C52.4158 275.975 52.5253 276.676 52.7443 277.286C52.9692 277.89 53.2918 278.363 53.712 278.706C54.1381 279.044 54.6619 279.212 55.2834 279.212ZM71.1148 282.266C69.7358 282.266 68.5432 281.973 67.537 281.387C66.5368 280.796 65.7644 279.973 65.2199 278.919C64.6754 277.86 64.4031 276.632 64.4031 275.235C64.4031 273.826 64.6754 272.595 65.2199 271.542C65.7644 270.482 66.5368 269.66 67.537 269.074C68.5432 268.482 69.7358 268.186 71.1148 268.186C72.4938 268.186 73.6834 268.482 74.6837 269.074C75.6898 269.66 76.4652 270.482 77.0097 271.542C77.5542 272.595 77.8264 273.826 77.8264 275.235C77.8264 276.632 77.5542 277.86 77.0097 278.919C76.4652 279.973 75.6898 280.796 74.6837 281.387C73.6834 281.973 72.4938 282.266 71.1148 282.266ZM71.1325 279.337C71.7599 279.337 72.2837 279.159 72.7039 278.804C73.1241 278.443 73.4408 277.952 73.6539 277.33C73.8728 276.709 73.9823 276.002 73.9823 275.208C73.9823 274.415 73.8728 273.708 73.6539 273.087C73.4408 272.465 73.1241 271.974 72.7039 271.613C72.2837 271.252 71.7599 271.071 71.1325 271.071C70.4993 271.071 69.9666 271.252 69.5345 271.613C69.1084 271.974 68.7858 272.465 68.5669 273.087C68.3538 273.708 68.2472 274.415 68.2472 275.208C68.2472 276.002 68.3538 276.709 68.5669 277.33C68.7858 277.952 69.1084 278.443 69.5345 278.804C69.9666 279.159 70.4993 279.337 71.1325 279.337ZM86.1428 282V263.818H98.1811V266.988H89.9869V271.32H97.3821V274.489H89.9869V282H86.1428ZM105.856 282.266C104.477 282.266 103.284 281.973 102.278 281.387C101.278 280.796 100.506 279.973 99.9611 278.919C99.4166 277.86 99.1444 276.632 99.1444 275.235C99.1444 273.826 99.4166 272.595 99.9611 271.542C100.506 270.482 101.278 269.66 102.278 269.074C103.284 268.482 104.477 268.186 105.856 268.186C107.235 268.186 108.425 268.482 109.425 269.074C110.431 269.66 111.206 270.482 111.751 271.542C112.295 272.595 112.568 273.826 112.568 275.235C112.568 276.632 112.295 277.86 111.751 278.919C111.206 279.973 110.431 280.796 109.425 281.387C108.425 281.973 107.235 282.266 105.856 282.266ZM105.874 279.337C106.501 279.337 107.025 279.159 107.445 278.804C107.865 278.443 108.182 277.952 108.395 277.33C108.614 276.709 108.724 276.002 108.724 275.208C108.724 274.415 108.614 273.708 108.395 273.087C108.182 272.465 107.865 271.974 107.445 271.613C107.025 271.252 106.501 271.071 105.874 271.071C105.24 271.071 104.708 271.252 104.276 271.613C103.85 271.974 103.527 272.465 103.308 273.087C103.095 273.708 102.988 274.415 102.988 275.208C102.988 276.002 103.095 276.709 103.308 277.33C103.527 277.952 103.85 278.443 104.276 278.804C104.708 279.159 105.24 279.337 105.874 279.337ZM104.498 266.606L106.38 262.566H109.878L107.17 266.606H104.498ZM118.809 263.818V282H115.027V263.818H118.809ZM121.838 282V268.364H125.62V282H121.838ZM123.738 266.606C123.176 266.606 122.694 266.419 122.291 266.047C121.895 265.668 121.696 265.215 121.696 264.688C121.696 264.167 121.895 263.721 122.291 263.348C122.694 262.969 123.176 262.779 123.738 262.779C124.3 262.779 124.78 262.969 125.176 263.348C125.579 263.721 125.78 264.167 125.78 264.688C125.78 265.215 125.579 265.668 125.176 266.047C124.78 266.419 124.3 266.606 123.738 266.606ZM134.811 282.266C133.414 282.266 132.213 281.97 131.207 281.379C130.206 280.781 129.437 279.952 128.898 278.893C128.366 277.833 128.099 276.614 128.099 275.235C128.099 273.838 128.369 272.613 128.907 271.56C129.452 270.5 130.224 269.675 131.224 269.083C132.225 268.485 133.414 268.186 134.793 268.186C135.983 268.186 137.025 268.402 137.918 268.834C138.812 269.266 139.519 269.873 140.04 270.654C140.561 271.435 140.848 272.353 140.901 273.406H137.332C137.232 272.726 136.965 272.178 136.533 271.764C136.107 271.344 135.548 271.134 134.855 271.134C134.27 271.134 133.758 271.293 133.32 271.613C132.888 271.927 132.55 272.385 132.308 272.989C132.065 273.593 131.944 274.324 131.944 275.182C131.944 276.052 132.062 276.792 132.299 277.401C132.541 278.011 132.882 278.475 133.32 278.795C133.758 279.115 134.27 279.275 134.855 279.275C135.288 279.275 135.675 279.186 136.018 279.008C136.368 278.831 136.655 278.573 136.88 278.236C137.11 277.893 137.261 277.481 137.332 277.002H140.901C140.842 278.043 140.558 278.961 140.049 279.754C139.546 280.541 138.85 281.157 137.963 281.6C137.075 282.044 136.024 282.266 134.811 282.266ZM149.484 282.266C148.105 282.266 146.912 281.973 145.906 281.387C144.906 280.796 144.134 279.973 143.589 278.919C143.045 277.86 142.772 276.632 142.772 275.235C142.772 273.826 143.045 272.595 143.589 271.542C144.134 270.482 144.906 269.66 145.906 269.074C146.912 268.482 148.105 268.186 149.484 268.186C150.863 268.186 152.053 268.482 153.053 269.074C154.059 269.66 154.834 270.482 155.379 271.542C155.923 272.595 156.196 273.826 156.196 275.235C156.196 276.632 155.923 277.86 155.379 278.919C154.834 279.973 154.059 280.796 153.053 281.387C152.053 281.973 150.863 282.266 149.484 282.266ZM149.502 279.337C150.129 279.337 150.653 279.159 151.073 278.804C151.493 278.443 151.81 277.952 152.023 277.33C152.242 276.709 152.351 276.002 152.351 275.208C152.351 274.415 152.242 273.708 152.023 273.087C151.81 272.465 151.493 271.974 151.073 271.613C150.653 271.252 150.129 271.071 149.502 271.071C148.868 271.071 148.336 271.252 147.904 271.613C147.478 271.974 147.155 272.465 146.936 273.087C146.723 273.708 146.616 274.415 146.616 275.208C146.616 276.002 146.723 276.709 146.936 277.33C147.155 277.952 147.478 278.443 147.904 278.804C148.336 279.159 148.868 279.337 149.502 279.337Z" fill="#424242"/>
</g>
<defs>
<clipPath id="clip0_117_2941">
<rect width="850" height="550" fill="white"/>
</clipPath>
</defs>
</svg>
