<svg width="850" height="550" viewBox="0 0 850 550" fill="none" xmlns="http://www.w3.org/2000/svg">
<rect width="850" height="550" fill="white"/>
<path d="M271.166 141.025L402 89" stroke="#D7D7D7" stroke-width="3" stroke-linecap="round"/>
<path d="M402 89L537 145" stroke="#D7D7D7" stroke-width="3" stroke-linecap="round"/>
<line x1="270.637" y1="141.924" x2="218.669" y2="275.766" stroke="#D7D7D7" stroke-width="3" stroke-linecap="round"/>
<path d="M219 277L270 406" stroke="#D7D7D7" stroke-width="3" stroke-linecap="round"/>
<path d="M401.056 461.386L534.179 406.934" stroke="#D7D7D7" stroke-width="3" stroke-linecap="round"/>
<path d="M401.503 461.37L270 406" stroke="#D7D7D7" stroke-width="3" stroke-linecap="round"/>
<path d="M534 407L587.136 275.015" stroke="#D7D7D7" stroke-width="3" stroke-linecap="round"/>
<path d="M537 145L587 275" stroke="#D7D7D7" stroke-width="3" stroke-linecap="round"/>
<path d="M329.188 200.112L402.401 171" stroke="#D7D7D7" stroke-width="3" stroke-linecap="round"/>
<path d="M402.4 171L477.944 202.337" stroke="#D7D7D7" stroke-width="3" stroke-linecap="round"/>
<line x1="328.197" y1="200.678" x2="300.584" y2="275.062" stroke="#D7D7D7" stroke-width="3" stroke-linecap="round"/>
<path d="M299.995 276.203L328.534 348.39" stroke="#D7D7D7" stroke-width="3" stroke-linecap="round"/>
<path d="M401.872 379.383L476.366 348.912" stroke="#D7D7D7" stroke-width="3" stroke-linecap="round"/>
<path d="M402.122 379.374L328.535 348.389" stroke="#D7D7D7" stroke-width="3" stroke-linecap="round"/>
<path d="M476.266 348.95L506 275.092" stroke="#D7D7D7" stroke-width="3" stroke-linecap="round"/>
<path d="M477.945 202.338L505.924 275.084" stroke="#D7D7D7" stroke-width="3" stroke-linecap="round"/>
<path d="M300.482 170.589L402.558 130" stroke="#D7D7D7" stroke-width="3" stroke-linecap="round"/>
<path d="M402.558 130L507.884 173.691" stroke="#D7D7D7" stroke-width="3" stroke-linecap="round"/>
<line x1="300.383" y1="172.002" x2="260.235" y2="275.4" stroke="#D7D7D7" stroke-width="3" stroke-linecap="round"/>
<path d="M259.783 276.677L299.573 377.322" stroke="#D7D7D7" stroke-width="3" stroke-linecap="round"/>
<path d="M401.822 420.533L505.683 378.05" stroke="#D7D7D7" stroke-width="3" stroke-linecap="round"/>
<path d="M402.171 420.521L299.573 377.322" stroke="#D7D7D7" stroke-width="3" stroke-linecap="round"/>
<path d="M505.544 378.102L547 275.128" stroke="#D7D7D7" stroke-width="3" stroke-linecap="round"/>
<path d="M507.885 173.691L546.894 275.116" stroke="#D7D7D7" stroke-width="3" stroke-linecap="round"/>
<line y1="-2.5" x2="172.274" y2="-2.5" transform="matrix(0.928753 -0.370699 0.372083 0.928199 244 114.847)" stroke="#D7D7D7" stroke-width="3"/>
<line y1="-2.5" x2="171.346" y2="-2.5" transform="matrix(0.927949 0.372707 -0.374097 0.92739 398 50.9849)" stroke="#D7D7D7" stroke-width="3"/>
<line y1="-2.5" x2="174.064" y2="-2.5" transform="matrix(-0.384917 0.922951 -0.923541 -0.383501 240 114.847)" stroke="#D7D7D7" stroke-width="3"/>
<line y1="-2.5" x2="173.011" y2="-2.5" transform="matrix(0.398818 0.91703 -0.917659 0.397369 173 275.499)" stroke="#D7D7D7" stroke-width="3"/>
<line y1="-2.5" x2="173.949" y2="-2.5" transform="matrix(0.925559 -0.378602 0.380007 0.924984 401 502.009)" stroke="#D7D7D7" stroke-width="3"/>
<path d="M402 499.514L242 432.412" stroke="#D7D7D7" stroke-width="3"/>
<line y1="-2.5" x2="174.064" y2="-2.5" transform="matrix(0.384917 -0.922951 0.923541 0.3835 562 436.151)" stroke="#D7D7D7" stroke-width="3"/>
<line y1="-2.5" x2="173.681" y2="-2.5" transform="matrix(0.380007 0.924984 -0.925559 0.378602 559 114.847)" stroke="#D7D7D7" stroke-width="3"/>
<path d="M407 49.987C407 52.7393 404.763 54.9741 402 54.9741C399.237 54.9741 397 52.7393 397 49.987C397 47.2348 399.237 45 402 45C404.763 45 407 47.2348 407 49.987Z" fill="white" stroke="#D7D7D7" stroke-width="2"/>
<path d="M249 112.851C249 115.603 246.763 117.838 244 117.838C241.237 117.838 239 115.603 239 112.851C239 110.099 241.237 107.864 244 107.864C246.763 107.864 249 110.099 249 112.851Z" fill="white" stroke="#D7D7D7" stroke-width="2"/>
<path d="M181 275.499C181 278.251 178.763 280.486 176 280.486C173.237 280.486 171 278.251 171 275.499C171 272.747 173.237 270.512 176 270.512C178.763 270.512 181 272.747 181 275.499Z" fill="white" stroke="#D7D7D7" stroke-width="2"/>
<path d="M249 434.155C249 436.908 246.763 439.143 244 439.143C241.237 439.143 239 436.908 239 434.155C239 431.403 241.237 429.168 244 429.168C246.763 429.168 249 431.403 249 434.155Z" fill="white" stroke="#D7D7D7" stroke-width="2"/>
<path d="M406 500.013C406 502.765 403.763 505 401 505C398.237 505 396 502.765 396 500.013C396 497.261 398.237 495.026 401 495.026C403.763 495.026 406 497.261 406 500.013Z" fill="white" stroke="#D7D7D7" stroke-width="2"/>
<path d="M565 434.155C565 436.908 562.763 439.143 560 439.143C557.237 439.143 555 436.908 555 434.155C555 431.403 557.237 429.168 560 429.168C562.763 429.168 565 431.403 565 434.155Z" fill="white" stroke="#D7D7D7" stroke-width="2"/>
<path d="M631 275.499C631 278.251 628.763 280.486 626 280.486C623.237 280.486 621 278.251 621 275.499C621 272.747 623.237 270.512 626 270.512C628.763 270.512 631 272.747 631 275.499Z" fill="white" stroke="#D7D7D7" stroke-width="2"/>
<path d="M565 113.849C565 116.601 562.763 118.836 560 118.836C557.237 118.836 555 116.601 555 113.849C555 111.097 557.237 108.862 560 108.862C562.763 108.862 565 111.097 565 113.849Z" fill="white" stroke="#D7D7D7" stroke-width="2"/>
<path d="M371.58 537V518.818H375.424V526.32H383.228V518.818H387.063V537H383.228V529.489H375.424V537H371.58ZM394.05 537.257C393.18 537.257 392.405 537.107 391.724 536.805C391.043 536.497 390.505 536.044 390.108 535.446C389.718 534.843 389.522 534.091 389.522 533.191C389.522 532.434 389.661 531.798 389.94 531.283C390.218 530.768 390.597 530.353 391.076 530.04C391.555 529.726 392.1 529.489 392.71 529.33C393.325 529.17 393.97 529.057 394.645 528.992C395.438 528.909 396.077 528.832 396.562 528.761C397.048 528.684 397.4 528.572 397.619 528.424C397.838 528.276 397.947 528.057 397.947 527.767V527.714C397.947 527.152 397.77 526.717 397.415 526.409C397.066 526.101 396.568 525.947 395.923 525.947C395.243 525.947 394.701 526.098 394.299 526.4C393.896 526.696 393.63 527.069 393.5 527.518L390.002 527.234C390.179 526.406 390.529 525.69 391.049 525.086C391.57 524.476 392.242 524.009 393.065 523.683C393.893 523.352 394.852 523.186 395.941 523.186C396.699 523.186 397.424 523.275 398.116 523.452C398.815 523.63 399.433 523.905 399.972 524.278C400.516 524.651 400.945 525.13 401.259 525.716C401.573 526.296 401.729 526.992 401.729 527.803V537H398.143V535.109H398.036C397.817 535.535 397.524 535.911 397.157 536.237C396.79 536.556 396.349 536.808 395.835 536.991C395.32 537.169 394.725 537.257 394.05 537.257ZM395.133 534.647C395.69 534.647 396.181 534.538 396.607 534.319C397.033 534.094 397.367 533.792 397.61 533.413C397.853 533.035 397.974 532.605 397.974 532.126V530.679C397.856 530.756 397.693 530.827 397.486 530.892C397.285 530.951 397.057 531.007 396.802 531.061C396.548 531.108 396.293 531.152 396.039 531.194C395.784 531.229 395.553 531.262 395.346 531.292C394.902 531.357 394.515 531.46 394.183 531.602C393.852 531.744 393.594 531.937 393.411 532.179C393.227 532.416 393.136 532.712 393.136 533.067C393.136 533.582 393.322 533.976 393.695 534.248C394.074 534.514 394.553 534.647 395.133 534.647ZM408.445 518.818V537H404.664V518.818H408.445ZM415.364 537.257C414.494 537.257 413.718 537.107 413.038 536.805C412.357 536.497 411.818 536.044 411.422 535.446C411.031 534.843 410.836 534.091 410.836 533.191C410.836 532.434 410.975 531.798 411.253 531.283C411.531 530.768 411.91 530.353 412.389 530.04C412.869 529.726 413.413 529.489 414.023 529.33C414.639 529.17 415.284 529.057 415.958 528.992C416.751 528.909 417.391 528.832 417.876 528.761C418.361 528.684 418.713 528.572 418.932 528.424C419.151 528.276 419.261 528.057 419.261 527.767V527.714C419.261 527.152 419.083 526.717 418.728 526.409C418.379 526.101 417.882 525.947 417.237 525.947C416.556 525.947 416.015 526.098 415.612 526.4C415.21 526.696 414.943 527.069 414.813 527.518L411.315 527.234C411.493 526.406 411.842 525.69 412.363 525.086C412.884 524.476 413.555 524.009 414.378 523.683C415.207 523.352 416.166 523.186 417.255 523.186C418.012 523.186 418.737 523.275 419.43 523.452C420.128 523.63 420.746 523.905 421.285 524.278C421.83 524.651 422.259 525.13 422.572 525.716C422.886 526.296 423.043 526.992 423.043 527.803V537H419.456V535.109H419.35C419.131 535.535 418.838 535.911 418.471 536.237C418.104 536.556 417.663 536.808 417.148 536.991C416.633 537.169 416.038 537.257 415.364 537.257ZM416.447 534.647C417.003 534.647 417.494 534.538 417.92 534.319C418.347 534.094 418.681 533.792 418.924 533.413C419.166 533.035 419.288 532.605 419.288 532.126V530.679C419.169 530.756 419.006 530.827 418.799 530.892C418.598 530.951 418.37 531.007 418.116 531.061C417.861 531.108 417.607 531.152 417.352 531.194C417.098 531.229 416.867 531.262 416.66 531.292C416.216 531.357 415.828 531.46 415.497 531.602C415.165 531.744 414.908 531.937 414.724 532.179C414.541 532.416 414.449 532.712 414.449 533.067C414.449 533.582 414.636 533.976 415.008 534.248C415.387 534.514 415.867 534.647 416.447 534.647ZM429.759 518.818V537H425.977V518.818H429.759Z" fill="#424242"/>
<path d="M159.623 432.184H155.734C155.663 431.681 155.518 431.234 155.299 430.843C155.08 430.446 154.799 430.109 154.456 429.831C154.112 429.553 153.716 429.34 153.266 429.192C152.822 429.044 152.34 428.97 151.819 428.97C150.878 428.97 150.058 429.204 149.36 429.671C148.661 430.133 148.12 430.808 147.735 431.695C147.35 432.577 147.158 433.648 147.158 434.909C147.158 436.205 147.35 437.294 147.735 438.176C148.126 439.058 148.67 439.724 149.369 440.174C150.067 440.623 150.875 440.848 151.792 440.848C152.307 440.848 152.784 440.78 153.222 440.644C153.665 440.508 154.059 440.31 154.402 440.049C154.746 439.783 155.03 439.46 155.255 439.082C155.485 438.703 155.645 438.271 155.734 437.786L159.623 437.803C159.522 438.638 159.27 439.443 158.868 440.218C158.471 440.987 157.936 441.677 157.261 442.287C156.592 442.89 155.793 443.37 154.864 443.725C153.941 444.074 152.896 444.249 151.73 444.249C150.108 444.249 148.658 443.882 147.38 443.148C146.107 442.414 145.101 441.351 144.362 439.961C143.628 438.57 143.261 436.886 143.261 434.909C143.261 432.926 143.634 431.24 144.379 429.849C145.125 428.458 146.137 427.398 147.415 426.67C148.694 425.937 150.132 425.57 151.73 425.57C152.784 425.57 153.76 425.718 154.66 426.013C155.565 426.309 156.367 426.741 157.066 427.31C157.764 427.872 158.332 428.561 158.77 429.378C159.214 430.195 159.498 431.13 159.623 432.184ZM162.308 444V430.364H166.09V444H162.308ZM164.208 428.606C163.646 428.606 163.163 428.419 162.761 428.047C162.364 427.668 162.166 427.215 162.166 426.688C162.166 426.167 162.364 425.721 162.761 425.348C163.163 424.969 163.646 424.779 164.208 424.779C164.77 424.779 165.25 424.969 165.646 425.348C166.049 425.721 166.25 426.167 166.25 426.688C166.25 427.215 166.049 427.668 165.646 428.047C165.25 428.419 164.77 428.606 164.208 428.606ZM172.902 436.116V444H169.12V430.364H172.724V432.77H172.884C173.186 431.976 173.692 431.349 174.402 430.887C175.112 430.42 175.973 430.186 176.985 430.186C177.932 430.186 178.758 430.393 179.462 430.808C180.167 431.222 180.714 431.814 181.105 432.583C181.495 433.347 181.691 434.258 181.691 435.317V444H177.909V435.992C177.915 435.158 177.701 434.507 177.269 434.039C176.837 433.566 176.243 433.329 175.485 433.329C174.976 433.329 174.526 433.438 174.136 433.657C173.751 433.876 173.449 434.196 173.23 434.616C173.017 435.03 172.907 435.531 172.902 436.116ZM184.6 444V441.745L191.276 433.48V433.382H184.831V430.364H195.831V432.823L189.563 440.884V440.982H196.062V444H184.6ZM202.842 444.257C201.972 444.257 201.197 444.107 200.516 443.805C199.835 443.497 199.297 443.044 198.9 442.446C198.51 441.843 198.314 441.091 198.314 440.191C198.314 439.434 198.453 438.798 198.732 438.283C199.01 437.768 199.389 437.353 199.868 437.04C200.347 436.726 200.892 436.489 201.502 436.33C202.117 436.17 202.762 436.057 203.437 435.992C204.23 435.909 204.869 435.832 205.354 435.761C205.84 435.684 206.192 435.572 206.411 435.424C206.63 435.276 206.739 435.057 206.739 434.767V434.714C206.739 434.152 206.562 433.717 206.207 433.409C205.858 433.101 205.36 432.947 204.715 432.947C204.035 432.947 203.493 433.098 203.091 433.4C202.688 433.696 202.422 434.069 202.292 434.518L198.794 434.234C198.971 433.406 199.321 432.69 199.841 432.086C200.362 431.476 201.034 431.009 201.857 430.683C202.685 430.352 203.644 430.186 204.733 430.186C205.491 430.186 206.216 430.275 206.908 430.452C207.607 430.63 208.225 430.905 208.764 431.278C209.308 431.651 209.737 432.13 210.051 432.716C210.365 433.296 210.521 433.992 210.521 434.803V444H206.935V442.109H206.828C206.609 442.535 206.316 442.911 205.949 443.237C205.582 443.556 205.141 443.808 204.627 443.991C204.112 444.169 203.517 444.257 202.842 444.257ZM203.925 441.647C204.482 441.647 204.973 441.538 205.399 441.319C205.825 441.094 206.159 440.792 206.402 440.413C206.645 440.035 206.766 439.605 206.766 439.126V437.679C206.648 437.756 206.485 437.827 206.278 437.892C206.077 437.951 205.849 438.007 205.594 438.061C205.34 438.108 205.085 438.152 204.831 438.194C204.576 438.229 204.345 438.262 204.138 438.292C203.694 438.357 203.307 438.46 202.975 438.602C202.644 438.744 202.386 438.937 202.203 439.179C202.019 439.416 201.928 439.712 201.928 440.067C201.928 440.582 202.114 440.976 202.487 441.248C202.866 441.514 203.345 441.647 203.925 441.647ZM224.801 434.252L221.339 434.465C221.28 434.169 221.153 433.903 220.957 433.666C220.762 433.424 220.505 433.231 220.185 433.089C219.871 432.941 219.495 432.867 219.057 432.867C218.472 432.867 217.977 432.991 217.575 433.24C217.172 433.483 216.971 433.808 216.971 434.217C216.971 434.542 217.101 434.817 217.362 435.042C217.622 435.267 218.069 435.448 218.702 435.584L221.17 436.081C222.496 436.353 223.485 436.791 224.136 437.395C224.787 437.999 225.112 438.792 225.112 439.774C225.112 440.668 224.849 441.452 224.322 442.127C223.801 442.801 223.085 443.328 222.174 443.707C221.268 444.08 220.223 444.266 219.04 444.266C217.235 444.266 215.796 443.891 214.725 443.139C213.66 442.381 213.035 441.351 212.852 440.049L216.572 439.854C216.684 440.404 216.956 440.825 217.388 441.115C217.82 441.399 218.374 441.541 219.049 441.541C219.711 441.541 220.244 441.414 220.647 441.159C221.055 440.899 221.262 440.564 221.268 440.156C221.262 439.813 221.117 439.531 220.833 439.312C220.549 439.088 220.111 438.916 219.519 438.798L217.158 438.327C215.826 438.061 214.835 437.599 214.184 436.942C213.538 436.285 213.216 435.448 213.216 434.43C213.216 433.554 213.453 432.799 213.926 432.166C214.405 431.533 215.077 431.044 215.941 430.701C216.811 430.358 217.829 430.186 218.995 430.186C220.718 430.186 222.073 430.55 223.061 431.278C224.056 432.006 224.636 432.997 224.801 434.252Z" fill="#424242"/>
<path d="M45.6225 105.184H41.734C41.663 104.681 41.518 104.234 41.299 103.843C41.08 103.446 40.7989 103.109 40.4556 102.831C40.1123 102.553 39.7158 102.34 39.266 102.192C38.8221 102.044 38.3397 101.97 37.8189 101.97C36.8778 101.97 36.0581 102.204 35.3597 102.671C34.6613 103.133 34.1198 103.808 33.7351 104.695C33.3504 105.577 33.158 106.648 33.158 107.909C33.158 109.205 33.3504 110.294 33.7351 111.176C34.1257 112.058 34.6702 112.724 35.3686 113.174C36.067 113.623 36.8749 113.848 37.7923 113.848C38.3072 113.848 38.7836 113.78 39.2216 113.644C39.6655 113.508 40.0591 113.31 40.4023 113.049C40.7456 112.783 41.0297 112.46 41.2546 112.082C41.4854 111.703 41.6452 111.271 41.734 110.786L45.6225 110.803C45.5219 111.638 45.2704 112.443 44.8679 113.218C44.4714 113.987 43.9357 114.677 43.261 115.287C42.5922 115.89 41.7932 116.37 40.864 116.725C39.9407 117.074 38.8961 117.249 37.7301 117.249C36.1084 117.249 34.6584 116.882 33.38 116.148C32.1075 115.414 31.1013 114.351 30.3615 112.961C29.6276 111.57 29.2607 109.886 29.2607 107.909C29.2607 105.926 29.6335 104.24 30.3793 102.849C31.125 101.458 32.1371 100.398 33.4155 99.6705C34.6939 98.9366 36.1321 98.5696 37.7301 98.5696C38.7836 98.5696 39.7602 98.7176 40.6598 99.0135C41.5653 99.3094 42.3673 99.7415 43.0657 100.31C43.7641 100.872 44.3323 101.561 44.7702 102.378C45.2141 103.195 45.4982 104.13 45.6225 105.184ZM54.4693 117.266C53.0903 117.266 51.8977 116.973 50.8915 116.387C49.8913 115.796 49.1189 114.973 48.5744 113.919C48.0299 112.86 47.7576 111.632 47.7576 110.235C47.7576 108.826 48.0299 107.595 48.5744 106.542C49.1189 105.482 49.8913 104.66 50.8915 104.074C51.8977 103.482 53.0903 103.186 54.4693 103.186C55.8483 103.186 57.0379 103.482 58.0382 104.074C59.0443 104.66 59.8197 105.482 60.3642 106.542C60.9087 107.595 61.1809 108.826 61.1809 110.235C61.1809 111.632 60.9087 112.86 60.3642 113.919C59.8197 114.973 59.0443 115.796 58.0382 116.387C57.0379 116.973 55.8483 117.266 54.4693 117.266ZM54.487 114.337C55.1144 114.337 55.6382 114.159 56.0584 113.804C56.4786 113.443 56.7953 112.952 57.0083 112.33C57.2273 111.709 57.3368 111.002 57.3368 110.208C57.3368 109.415 57.2273 108.708 57.0083 108.087C56.7953 107.465 56.4786 106.974 56.0584 106.613C55.6382 106.252 55.1144 106.071 54.487 106.071C53.8538 106.071 53.3211 106.252 52.889 106.613C52.4629 106.974 52.1403 107.465 51.9213 108.087C51.7083 108.708 51.6017 109.415 51.6017 110.208C51.6017 111.002 51.7083 111.709 51.9213 112.33C52.1403 112.952 52.4629 113.443 52.889 113.804C53.3211 114.159 53.8538 114.337 54.487 114.337ZM67.4221 109.116V117H63.6401V103.364H67.2445V105.77H67.4043C67.7061 104.976 68.2122 104.349 68.9224 103.887C69.6326 103.42 70.4938 103.186 71.5059 103.186C72.4528 103.186 73.2785 103.393 73.9828 103.808C74.6871 104.222 75.2346 104.814 75.6252 105.583C76.0158 106.347 76.2111 107.258 76.2111 108.317V117H72.4292V108.992C72.4351 108.158 72.222 107.507 71.79 107.039C71.3579 106.566 70.7631 106.329 70.0055 106.329C69.4965 106.329 69.0467 106.438 68.6561 106.657C68.2714 106.876 67.9695 107.196 67.7505 107.616C67.5375 108.03 67.428 108.531 67.4221 109.116ZM86.445 103.364V106.205H78.233V103.364H86.445ZM80.0974 100.097H83.8794V112.81C83.8794 113.159 83.9326 113.431 84.0392 113.626C84.1457 113.816 84.2936 113.949 84.483 114.026C84.6784 114.103 84.9033 114.141 85.1578 114.141C85.3353 114.141 85.5129 114.127 85.6904 114.097C85.868 114.061 86.0041 114.035 86.0988 114.017L86.6936 116.831C86.5042 116.891 86.2379 116.959 85.8946 117.036C85.5513 117.118 85.1341 117.169 84.6428 117.186C83.7314 117.222 82.9324 117.101 82.2458 116.822C81.5652 116.544 81.0355 116.112 80.6567 115.526C80.2779 114.94 80.0915 114.201 80.0974 113.307V100.097ZM92.7971 117.257C91.9271 117.257 91.1518 117.107 90.4711 116.805C89.7905 116.497 89.2519 116.044 88.8554 115.446C88.4648 114.843 88.2694 114.091 88.2694 113.191C88.2694 112.434 88.4085 111.798 88.6867 111.283C88.9649 110.768 89.3437 110.353 89.8231 110.04C90.3025 109.726 90.847 109.489 91.4566 109.33C92.0721 109.17 92.7172 109.057 93.392 108.992C94.185 108.909 94.8242 108.832 95.3096 108.761C95.7949 108.684 96.147 108.572 96.366 108.424C96.585 108.276 96.6945 108.057 96.6945 107.767V107.714C96.6945 107.152 96.517 106.717 96.1618 106.409C95.8126 106.101 95.3155 105.947 94.6704 105.947C93.9897 105.947 93.4482 106.098 93.0457 106.4C92.6433 106.696 92.3769 107.069 92.2467 107.518L88.7488 107.234C88.9264 106.406 89.2756 105.69 89.7964 105.086C90.3173 104.476 90.989 104.009 91.8117 103.683C92.6403 103.352 93.5991 103.186 94.6881 103.186C95.4457 103.186 96.1707 103.275 96.8632 103.452C97.5616 103.63 98.1801 103.905 98.7187 104.278C99.2632 104.651 99.6923 105.13 100.006 105.716C100.32 106.296 100.476 106.992 100.476 107.803V117H96.8898V115.109H96.7833C96.5643 115.535 96.2713 115.911 95.9044 116.237C95.5374 116.556 95.0965 116.808 94.5816 116.991C94.0667 117.169 93.4719 117.257 92.7971 117.257ZM93.8802 114.647C94.4366 114.647 94.9278 114.538 95.354 114.319C95.7801 114.094 96.1145 113.792 96.3572 113.413C96.5998 113.035 96.7211 112.605 96.7211 112.126V110.679C96.6028 110.756 96.44 110.827 96.2329 110.892C96.0316 110.951 95.8038 111.007 95.5493 111.061C95.2948 111.108 95.0403 111.152 94.7858 111.194C94.5313 111.229 94.3005 111.262 94.0933 111.292C93.6494 111.357 93.2617 111.46 92.9303 111.602C92.5989 111.744 92.3414 111.937 92.1579 112.179C91.9745 112.416 91.8827 112.712 91.8827 113.067C91.8827 113.582 92.0692 113.976 92.442 114.248C92.8208 114.514 93.3002 114.647 93.8802 114.647ZM103.411 117V103.364H107.015V105.77H107.175C107.459 104.971 107.932 104.34 108.595 103.879C109.258 103.417 110.051 103.186 110.975 103.186C111.91 103.186 112.706 103.42 113.363 103.887C114.02 104.349 114.458 104.976 114.677 105.77H114.819C115.097 104.988 115.6 104.364 116.328 103.896C117.062 103.423 117.929 103.186 118.929 103.186C120.202 103.186 121.234 103.592 122.027 104.402C122.826 105.207 123.226 106.35 123.226 107.829V117H119.453V108.575C119.453 107.817 119.252 107.249 118.849 106.87C118.447 106.492 117.944 106.302 117.34 106.302C116.653 106.302 116.118 106.521 115.733 106.959C115.348 107.391 115.156 107.962 115.156 108.673V117H111.489V108.495C111.489 107.826 111.297 107.294 110.912 106.897C110.534 106.5 110.033 106.302 109.412 106.302C108.992 106.302 108.613 106.409 108.276 106.622C107.944 106.829 107.681 107.122 107.486 107.501C107.29 107.874 107.193 108.312 107.193 108.815V117H103.411ZM126.213 117V103.364H129.995V117H126.213ZM128.113 101.606C127.551 101.606 127.069 101.419 126.666 101.047C126.27 100.668 126.071 100.215 126.071 99.6882C126.071 99.1674 126.27 98.7205 126.666 98.3477C127.069 97.9689 127.551 97.7795 128.113 97.7795C128.675 97.7795 129.155 97.9689 129.551 98.3477C129.954 98.7205 130.155 99.1674 130.155 99.6882C130.155 100.215 129.954 100.668 129.551 101.047C129.155 101.419 128.675 101.606 128.113 101.606ZM136.807 109.116V117H133.025V103.364H136.629V105.77H136.789C137.091 104.976 137.597 104.349 138.307 103.887C139.017 103.42 139.879 103.186 140.891 103.186C141.838 103.186 142.663 103.393 143.368 103.808C144.072 104.222 144.619 104.814 145.01 105.583C145.401 106.347 145.596 107.258 145.596 108.317V117H141.814V108.992C141.82 108.158 141.607 107.507 141.175 107.039C140.743 106.566 140.148 106.329 139.39 106.329C138.881 106.329 138.431 106.438 138.041 106.657C137.656 106.876 137.354 107.196 137.135 107.616C136.922 108.03 136.813 108.531 136.807 109.116ZM152.465 117.257C151.595 117.257 150.82 117.107 150.139 116.805C149.458 116.497 148.92 116.044 148.523 115.446C148.133 114.843 147.937 114.091 147.937 113.191C147.937 112.434 148.076 111.798 148.355 111.283C148.633 110.768 149.012 110.353 149.491 110.04C149.97 109.726 150.515 109.489 151.125 109.33C151.74 109.17 152.385 109.057 153.06 108.992C153.853 108.909 154.492 108.832 154.978 108.761C155.463 108.684 155.815 108.572 156.034 108.424C156.253 108.276 156.362 108.057 156.362 107.767V107.714C156.362 107.152 156.185 106.717 155.83 106.409C155.481 106.101 154.983 105.947 154.338 105.947C153.658 105.947 153.116 106.098 152.714 106.4C152.311 106.696 152.045 107.069 151.915 107.518L148.417 107.234C148.594 106.406 148.944 105.69 149.464 105.086C149.985 104.476 150.657 104.009 151.48 103.683C152.308 103.352 153.267 103.186 154.356 103.186C155.114 103.186 155.839 103.275 156.531 103.452C157.23 103.63 157.848 103.905 158.387 104.278C158.931 104.651 159.36 105.13 159.674 105.716C159.988 106.296 160.144 106.992 160.144 107.803V117H156.558V115.109H156.451C156.232 115.535 155.939 115.911 155.572 116.237C155.205 116.556 154.764 116.808 154.25 116.991C153.735 117.169 153.14 117.257 152.465 117.257ZM153.548 114.647C154.105 114.647 154.596 114.538 155.022 114.319C155.448 114.094 155.782 113.792 156.025 113.413C156.268 113.035 156.389 112.605 156.389 112.126V110.679C156.271 110.756 156.108 110.827 155.901 110.892C155.7 110.951 155.472 111.007 155.217 111.061C154.963 111.108 154.708 111.152 154.454 111.194C154.199 111.229 153.968 111.262 153.761 111.292C153.317 111.357 152.93 111.46 152.598 111.602C152.267 111.744 152.009 111.937 151.826 112.179C151.642 112.416 151.551 112.712 151.551 113.067C151.551 113.582 151.737 113.976 152.11 114.248C152.489 114.514 152.968 114.647 153.548 114.647ZM166.861 109.116V117H163.079V103.364H166.683V105.77H166.843C167.145 104.976 167.651 104.349 168.361 103.887C169.071 103.42 169.932 103.186 170.944 103.186C171.891 103.186 172.717 103.393 173.421 103.808C174.126 104.222 174.673 104.814 175.064 105.583C175.454 106.347 175.65 107.258 175.65 108.317V117H171.868V108.992C171.874 108.158 171.66 107.507 171.228 107.039C170.796 106.566 170.202 106.329 169.444 106.329C168.935 106.329 168.485 106.438 168.095 106.657C167.71 106.876 167.408 107.196 167.189 107.616C166.976 108.03 166.866 108.531 166.861 109.116ZM185.884 103.364V106.205H177.672V103.364H185.884ZM179.536 100.097H183.318V112.81C183.318 113.159 183.371 113.431 183.478 113.626C183.584 113.816 183.732 113.949 183.922 114.026C184.117 114.103 184.342 114.141 184.596 114.141C184.774 114.141 184.951 114.127 185.129 114.097C185.306 114.061 185.443 114.035 185.537 114.017L186.132 116.831C185.943 116.891 185.676 116.959 185.333 117.036C184.99 117.118 184.573 117.169 184.081 117.186C183.17 117.222 182.371 117.101 181.684 116.822C181.004 116.544 180.474 116.112 180.095 115.526C179.716 114.94 179.53 114.201 179.536 113.307V100.097ZM194.415 117.266C193.012 117.266 191.805 116.982 190.793 116.414C189.787 115.84 189.011 115.029 188.467 113.982C187.922 112.928 187.65 111.682 187.65 110.244C187.65 108.841 187.922 107.61 188.467 106.551C189.011 105.491 189.778 104.666 190.766 104.074C191.761 103.482 192.927 103.186 194.264 103.186C195.164 103.186 196.001 103.331 196.777 103.621C197.558 103.905 198.239 104.334 198.819 104.908C199.404 105.482 199.86 106.205 200.186 107.075C200.511 107.939 200.674 108.951 200.674 110.111V111.15H189.159V108.806H197.114C197.114 108.261 196.996 107.779 196.759 107.359C196.522 106.938 196.194 106.61 195.773 106.373C195.359 106.131 194.877 106.009 194.326 106.009C193.752 106.009 193.243 106.142 192.799 106.409C192.361 106.669 192.018 107.021 191.77 107.465C191.521 107.903 191.394 108.391 191.388 108.93V111.158C191.388 111.833 191.512 112.416 191.761 112.907C192.015 113.399 192.373 113.777 192.835 114.044C193.297 114.31 193.844 114.443 194.477 114.443C194.897 114.443 195.282 114.384 195.631 114.266C195.981 114.147 196.279 113.97 196.528 113.733C196.777 113.496 196.966 113.206 197.096 112.863L200.594 113.094C200.417 113.934 200.053 114.668 199.502 115.295C198.958 115.917 198.253 116.402 197.389 116.751C196.531 117.095 195.54 117.266 194.415 117.266ZM214.488 107.252L211.026 107.465C210.966 107.169 210.839 106.903 210.644 106.666C210.449 106.424 210.191 106.231 209.871 106.089C209.558 105.941 209.182 105.867 208.744 105.867C208.158 105.867 207.664 105.991 207.261 106.24C206.859 106.483 206.658 106.808 206.658 107.217C206.658 107.542 206.788 107.817 207.048 108.042C207.309 108.267 207.756 108.448 208.389 108.584L210.857 109.081C212.183 109.353 213.171 109.791 213.822 110.395C214.473 110.999 214.799 111.792 214.799 112.774C214.799 113.668 214.535 114.452 214.009 115.127C213.488 115.801 212.772 116.328 211.86 116.707C210.955 117.08 209.91 117.266 208.726 117.266C206.921 117.266 205.483 116.891 204.412 116.139C203.346 115.381 202.722 114.351 202.538 113.049L206.258 112.854C206.371 113.404 206.643 113.825 207.075 114.115C207.507 114.399 208.06 114.541 208.735 114.541C209.398 114.541 209.931 114.414 210.333 114.159C210.741 113.899 210.949 113.564 210.955 113.156C210.949 112.813 210.804 112.531 210.52 112.312C210.235 112.088 209.797 111.916 209.206 111.798L206.844 111.327C205.512 111.061 204.521 110.599 203.87 109.942C203.225 109.285 202.902 108.448 202.902 107.43C202.902 106.554 203.139 105.799 203.613 105.166C204.092 104.533 204.764 104.044 205.628 103.701C206.498 103.358 207.516 103.186 208.682 103.186C210.404 103.186 211.759 103.55 212.748 104.278C213.742 105.006 214.322 105.997 214.488 107.252Z" fill="#424242"/>
<path d="M389.288 21.9091C389.288 23.8918 388.913 25.5786 388.161 26.9695C387.415 28.3603 386.397 29.4227 385.107 30.1566C383.823 30.8846 382.378 31.2486 380.775 31.2486C379.159 31.2486 377.709 30.8816 376.424 30.1477C375.14 29.4138 374.125 28.3514 373.379 26.9606C372.634 25.5697 372.261 23.8859 372.261 21.9091C372.261 19.9264 372.634 18.2396 373.379 16.8487C374.125 15.4579 375.14 14.3984 376.424 13.6705C377.709 12.9366 379.159 12.5696 380.775 12.5696C382.378 12.5696 383.823 12.9366 385.107 13.6705C386.397 14.3984 387.415 15.4579 388.161 16.8487C388.913 18.2396 389.288 19.9264 389.288 21.9091ZM385.391 21.9091C385.391 20.6248 385.199 19.5417 384.814 18.6598C384.435 17.7779 383.9 17.1091 383.207 16.6534C382.515 16.1977 381.704 15.9698 380.775 15.9698C379.845 15.9698 379.034 16.1977 378.342 16.6534C377.65 17.1091 377.111 17.7779 376.726 18.6598C376.347 19.5417 376.158 20.6248 376.158 21.9091C376.158 23.1934 376.347 24.2765 376.726 25.1584C377.111 26.0402 377.65 26.709 378.342 27.1648C379.034 27.6205 379.845 27.8484 380.775 27.8484C381.704 27.8484 382.515 27.6205 383.207 27.1648C383.9 26.709 384.435 26.0402 384.814 25.1584C385.199 24.2765 385.391 23.1934 385.391 21.9091ZM404.192 18.6953C404.068 18.2633 403.893 17.8815 403.668 17.5501C403.443 17.2127 403.168 16.9286 402.843 16.6978C402.523 16.4611 402.156 16.2805 401.742 16.1562C401.333 16.032 400.881 15.9698 400.383 15.9698C399.454 15.9698 398.637 16.2006 397.933 16.6623C397.235 17.1239 396.69 17.7957 396.3 18.6776C395.909 19.5535 395.714 20.6248 395.714 21.8913C395.714 23.1579 395.906 24.2351 396.291 25.1229C396.675 26.0107 397.22 26.6883 397.924 27.1559C398.629 27.6175 399.46 27.8484 400.419 27.8484C401.289 27.8484 402.032 27.6945 402.647 27.3867C403.269 27.073 403.742 26.6321 404.068 26.0639C404.399 25.4957 404.565 24.824 404.565 24.0487L405.346 24.1641H400.659V21.2699H408.267V23.5604C408.267 25.1584 407.93 26.5315 407.255 27.6797C406.58 28.822 405.651 29.7038 404.467 30.3253C403.284 30.9408 401.928 31.2486 400.401 31.2486C398.697 31.2486 397.199 30.8728 395.909 30.1211C394.619 29.3635 393.613 28.2893 392.891 26.8984C392.174 25.5017 391.816 23.8445 391.816 21.9268C391.816 20.4531 392.029 19.1392 392.456 17.9851C392.888 16.825 393.491 15.8426 394.267 15.0376C395.042 14.2327 395.945 13.6201 396.974 13.1999C398.004 12.7797 399.12 12.5696 400.321 12.5696C401.351 12.5696 402.31 12.7205 403.198 13.0224C404.085 13.3183 404.873 13.7385 405.559 14.283C406.252 14.8275 406.817 15.4756 407.255 16.2273C407.693 16.973 407.974 17.7957 408.098 18.6953H404.192ZM411.154 12.8182H415.895L420.902 25.0341H421.115L426.123 12.8182H430.863V31H427.135V19.1658H426.984L422.278 30.9112H419.739L415.034 19.1214H414.883V31H411.154V12.8182Z" fill="#424242"/>
<path d="M583.714 444H579.595L585.871 425.818H590.825L597.093 444H592.974L588.419 429.973H588.277L583.714 444ZM583.457 436.853H593.187V439.854H583.457V436.853ZM602.992 425.818V444H599.21V425.818H602.992ZM612.236 444.266C610.834 444.266 609.626 443.982 608.614 443.414C607.608 442.84 606.833 442.029 606.288 440.982C605.744 439.928 605.472 438.682 605.472 437.244C605.472 435.841 605.744 434.61 606.288 433.551C606.833 432.491 607.599 431.666 608.588 431.074C609.582 430.482 610.748 430.186 612.085 430.186C612.985 430.186 613.823 430.331 614.598 430.621C615.379 430.905 616.06 431.334 616.64 431.908C617.226 432.482 617.681 433.205 618.007 434.075C618.333 434.939 618.495 435.951 618.495 437.111V438.15H606.981V435.806H614.935C614.935 435.261 614.817 434.779 614.58 434.359C614.343 433.938 614.015 433.61 613.595 433.373C613.18 433.131 612.698 433.009 612.148 433.009C611.574 433.009 611.065 433.142 610.621 433.409C610.183 433.669 609.839 434.021 609.591 434.465C609.342 434.903 609.215 435.391 609.209 435.93V438.158C609.209 438.833 609.333 439.416 609.582 439.907C609.836 440.399 610.195 440.777 610.656 441.044C611.118 441.31 611.665 441.443 612.299 441.443C612.719 441.443 613.103 441.384 613.453 441.266C613.802 441.147 614.101 440.97 614.349 440.733C614.598 440.496 614.787 440.206 614.918 439.863L618.415 440.094C618.238 440.934 617.874 441.668 617.323 442.295C616.779 442.917 616.075 443.402 615.21 443.751C614.352 444.095 613.361 444.266 612.236 444.266ZM620.963 444V430.364H624.63V432.743H624.772C625.021 431.897 625.438 431.257 626.024 430.825C626.61 430.387 627.284 430.168 628.048 430.168C628.237 430.168 628.441 430.18 628.66 430.204C628.879 430.228 629.072 430.26 629.237 430.301V433.657C629.06 433.604 628.814 433.557 628.501 433.515C628.187 433.474 627.9 433.453 627.639 433.453C627.083 433.453 626.586 433.574 626.148 433.817C625.716 434.054 625.373 434.385 625.118 434.811C624.87 435.238 624.745 435.729 624.745 436.285V444H620.963ZM636.702 449.398C635.476 449.398 634.426 449.229 633.55 448.892C632.68 448.56 631.987 448.107 631.472 447.533C630.958 446.959 630.623 446.314 630.469 445.598L633.967 445.127C634.074 445.4 634.242 445.654 634.473 445.891C634.704 446.128 635.009 446.317 635.388 446.459C635.772 446.607 636.24 446.681 636.79 446.681C637.613 446.681 638.291 446.48 638.823 446.077C639.362 445.681 639.631 445.015 639.631 444.08V441.585H639.471C639.306 441.964 639.057 442.322 638.726 442.659C638.394 442.997 637.968 443.272 637.447 443.485C636.926 443.698 636.305 443.805 635.583 443.805C634.559 443.805 633.627 443.568 632.786 443.094C631.952 442.615 631.286 441.884 630.789 440.902C630.298 439.913 630.052 438.664 630.052 437.155C630.052 435.61 630.304 434.32 630.807 433.284C631.31 432.249 631.979 431.473 632.813 430.958C633.653 430.444 634.574 430.186 635.574 430.186C636.338 430.186 636.977 430.316 637.492 430.577C638.007 430.831 638.421 431.151 638.735 431.536C639.054 431.914 639.3 432.287 639.471 432.654H639.613V430.364H643.369V444.133C643.369 445.293 643.085 446.264 642.517 447.045C641.948 447.826 641.161 448.412 640.155 448.803C639.155 449.199 638.004 449.398 636.702 449.398ZM636.781 440.964C637.391 440.964 637.906 440.813 638.326 440.511C638.752 440.203 639.078 439.765 639.303 439.197C639.534 438.623 639.649 437.936 639.649 437.137C639.649 436.338 639.537 435.646 639.312 435.06C639.087 434.468 638.761 434.009 638.335 433.684C637.909 433.358 637.391 433.196 636.781 433.196C636.16 433.196 635.636 433.364 635.21 433.702C634.784 434.033 634.461 434.495 634.242 435.087C634.023 435.679 633.914 436.362 633.914 437.137C633.914 437.925 634.023 438.605 634.242 439.179C634.467 439.748 634.79 440.188 635.21 440.502C635.636 440.81 636.16 440.964 636.781 440.964ZM652.593 444.266C651.19 444.266 649.983 443.982 648.971 443.414C647.965 442.84 647.189 442.029 646.645 440.982C646.1 439.928 645.828 438.682 645.828 437.244C645.828 435.841 646.1 434.61 646.645 433.551C647.189 432.491 647.956 431.666 648.944 431.074C649.938 430.482 651.104 430.186 652.442 430.186C653.342 430.186 654.179 430.331 654.954 430.621C655.736 430.905 656.416 431.334 656.996 431.908C657.582 432.482 658.038 433.205 658.363 434.075C658.689 434.939 658.852 435.951 658.852 437.111V438.15H647.337V435.806H655.292C655.292 435.261 655.173 434.779 654.937 434.359C654.7 433.938 654.371 433.61 653.951 433.373C653.537 433.131 653.055 433.009 652.504 433.009C651.93 433.009 651.421 433.142 650.977 433.409C650.539 433.669 650.196 434.021 649.947 434.465C649.699 434.903 649.571 435.391 649.566 435.93V438.158C649.566 438.833 649.69 439.416 649.938 439.907C650.193 440.399 650.551 440.777 651.013 441.044C651.474 441.31 652.022 441.443 652.655 441.443C653.075 441.443 653.46 441.384 653.809 441.266C654.158 441.147 654.457 440.97 654.706 440.733C654.954 440.496 655.144 440.206 655.274 439.863L658.772 440.094C658.594 440.934 658.23 441.668 657.68 442.295C657.135 442.917 656.431 443.402 655.567 443.751C654.709 444.095 653.717 444.266 652.593 444.266ZM654.138 428.73L652.353 426.564L650.569 428.73H647.346V428.606L650.942 424.7H653.756L657.36 428.606V428.73H654.138ZM665.102 436.116V444H661.32V430.364H664.924V432.77H665.084C665.386 431.976 665.892 431.349 666.602 430.887C667.312 430.42 668.173 430.186 669.186 430.186C670.133 430.186 670.958 430.393 671.662 430.808C672.367 431.222 672.914 431.814 673.305 432.583C673.695 433.347 673.891 434.258 673.891 435.317V444H670.109V435.992C670.115 435.158 669.902 434.507 669.47 434.039C669.038 433.566 668.443 433.329 667.685 433.329C667.176 433.329 666.726 433.438 666.336 433.657C665.951 433.876 665.649 434.196 665.43 434.616C665.217 435.03 665.108 435.531 665.102 436.116ZM676.872 444V430.364H680.653V444H676.872ZM678.771 428.606C678.209 428.606 677.727 428.419 677.324 428.047C676.928 427.668 676.729 427.215 676.729 426.688C676.729 426.167 676.928 425.721 677.324 425.348C677.727 424.969 678.209 424.779 678.771 424.779C679.334 424.779 679.813 424.969 680.21 425.348C680.612 425.721 680.813 426.167 680.813 426.688C680.813 427.215 680.612 427.668 680.21 428.047C679.813 428.419 679.334 428.606 678.771 428.606ZM689.844 444.266C688.448 444.266 687.246 443.97 686.24 443.379C685.24 442.781 684.47 441.952 683.932 440.893C683.399 439.833 683.133 438.614 683.133 437.235C683.133 435.838 683.402 434.613 683.941 433.56C684.485 432.5 685.257 431.675 686.258 431.083C687.258 430.485 688.448 430.186 689.827 430.186C691.016 430.186 692.058 430.402 692.952 430.834C693.845 431.266 694.552 431.873 695.073 432.654C695.594 433.435 695.881 434.353 695.934 435.406H692.366C692.265 434.726 691.999 434.178 691.567 433.764C691.14 433.344 690.581 433.134 689.889 433.134C689.303 433.134 688.791 433.293 688.353 433.613C687.921 433.927 687.583 434.385 687.341 434.989C687.098 435.593 686.977 436.324 686.977 437.182C686.977 438.052 687.095 438.792 687.332 439.401C687.575 440.011 687.915 440.475 688.353 440.795C688.791 441.115 689.303 441.275 689.889 441.275C690.321 441.275 690.708 441.186 691.052 441.008C691.401 440.831 691.688 440.573 691.913 440.236C692.144 439.893 692.295 439.481 692.366 439.002H695.934C695.875 440.043 695.591 440.961 695.082 441.754C694.579 442.541 693.884 443.157 692.996 443.6C692.108 444.044 691.058 444.266 689.844 444.266ZM704.517 444.266C703.138 444.266 701.946 443.973 700.939 443.387C699.939 442.796 699.167 441.973 698.622 440.919C698.078 439.86 697.805 438.632 697.805 437.235C697.805 435.826 698.078 434.595 698.622 433.542C699.167 432.482 699.939 431.66 700.939 431.074C701.946 430.482 703.138 430.186 704.517 430.186C705.896 430.186 707.086 430.482 708.086 431.074C709.092 431.66 709.868 432.482 710.412 433.542C710.957 434.595 711.229 435.826 711.229 437.235C711.229 438.632 710.957 439.86 710.412 440.919C709.868 441.973 709.092 442.796 708.086 443.387C707.086 443.973 705.896 444.266 704.517 444.266ZM704.535 441.337C705.162 441.337 705.686 441.159 706.106 440.804C706.526 440.443 706.843 439.952 707.056 439.33C707.275 438.709 707.385 438.002 707.385 437.208C707.385 436.415 707.275 435.708 707.056 435.087C706.843 434.465 706.526 433.974 706.106 433.613C705.686 433.252 705.162 433.071 704.535 433.071C703.902 433.071 703.369 433.252 702.937 433.613C702.511 433.974 702.188 434.465 701.969 435.087C701.756 435.708 701.65 436.415 701.65 437.208C701.65 438.002 701.756 438.709 701.969 439.33C702.188 439.952 702.511 440.443 702.937 440.804C703.369 441.159 703.902 441.337 704.535 441.337ZM725.034 434.252L721.571 434.465C721.512 434.169 721.385 433.903 721.19 433.666C720.994 433.424 720.737 433.231 720.417 433.089C720.104 432.941 719.728 432.867 719.29 432.867C718.704 432.867 718.21 432.991 717.807 433.24C717.405 433.483 717.204 433.808 717.204 434.217C717.204 434.542 717.334 434.817 717.594 435.042C717.855 435.267 718.301 435.448 718.935 435.584L721.403 436.081C722.729 436.353 723.717 436.791 724.368 437.395C725.019 437.999 725.345 438.792 725.345 439.774C725.345 440.668 725.081 441.452 724.554 442.127C724.034 442.801 723.317 443.328 722.406 443.707C721.5 444.08 720.456 444.266 719.272 444.266C717.467 444.266 716.029 443.891 714.957 443.139C713.892 442.381 713.268 441.351 713.084 440.049L716.804 439.854C716.917 440.404 717.189 440.825 717.621 441.115C718.053 441.399 718.606 441.541 719.281 441.541C719.944 441.541 720.477 441.414 720.879 441.159C721.287 440.899 721.495 440.564 721.5 440.156C721.495 439.813 721.35 439.531 721.065 439.312C720.781 439.088 720.343 438.916 719.752 438.798L717.39 438.327C716.058 438.061 715.067 437.599 714.416 436.942C713.771 436.285 713.448 435.448 713.448 434.43C713.448 433.554 713.685 432.799 714.158 432.166C714.638 431.533 715.31 431.044 716.174 430.701C717.044 430.358 718.062 430.186 719.228 430.186C720.95 430.186 722.305 430.55 723.294 431.278C724.288 432.006 724.868 432.997 725.034 434.252Z" fill="#424242"/>
<path d="M580.58 117V98.8182H587.754C589.133 98.8182 590.307 99.0816 591.278 99.6083C592.249 100.129 592.989 100.854 593.498 101.783C594.012 102.707 594.27 103.772 594.27 104.979C594.27 106.187 594.009 107.252 593.489 108.175C592.968 109.099 592.213 109.818 591.225 110.333C590.242 110.848 589.053 111.105 587.656 111.105H583.084V108.025H587.034C587.774 108.025 588.384 107.897 588.863 107.643C589.349 107.382 589.71 107.024 589.946 106.569C590.189 106.107 590.31 105.577 590.31 104.979C590.31 104.376 590.189 103.849 589.946 103.399C589.71 102.943 589.349 102.591 588.863 102.343C588.378 102.088 587.762 101.961 587.017 101.961H584.424V117H580.58ZM602.691 117.266C601.288 117.266 600.08 116.982 599.068 116.414C598.062 115.84 597.287 115.029 596.742 113.982C596.198 112.928 595.926 111.682 595.926 110.244C595.926 108.841 596.198 107.61 596.742 106.551C597.287 105.491 598.053 104.666 599.042 104.074C600.036 103.482 601.202 103.186 602.54 103.186C603.439 103.186 604.277 103.331 605.052 103.621C605.833 103.905 606.514 104.334 607.094 104.908C607.68 105.482 608.136 106.205 608.461 107.075C608.787 107.939 608.949 108.951 608.949 110.111V111.15H597.435V108.806H605.389C605.389 108.261 605.271 107.779 605.034 107.359C604.798 106.938 604.469 106.61 604.049 106.373C603.635 106.131 603.152 106.009 602.602 106.009C602.028 106.009 601.519 106.142 601.075 106.409C600.637 106.669 600.294 107.021 600.045 107.465C599.796 107.903 599.669 108.391 599.663 108.93V111.158C599.663 111.833 599.787 112.416 600.036 112.907C600.291 113.399 600.649 113.777 601.11 114.044C601.572 114.31 602.119 114.443 602.753 114.443C603.173 114.443 603.558 114.384 603.907 114.266C604.256 114.147 604.555 113.97 604.803 113.733C605.052 113.496 605.241 113.206 605.372 112.863L608.869 113.094C608.692 113.934 608.328 114.668 607.778 115.295C607.233 115.917 606.529 116.402 605.665 116.751C604.806 117.095 603.815 117.266 602.691 117.266ZM622.763 107.252L619.301 107.465C619.242 107.169 619.115 106.903 618.919 106.666C618.724 106.424 618.466 106.231 618.147 106.089C617.833 105.941 617.457 105.867 617.019 105.867C616.433 105.867 615.939 105.991 615.537 106.24C615.134 106.483 614.933 106.808 614.933 107.217C614.933 107.542 615.063 107.817 615.324 108.042C615.584 108.267 616.031 108.448 616.664 108.584L619.132 109.081C620.458 109.353 621.446 109.791 622.097 110.395C622.749 110.999 623.074 111.792 623.074 112.774C623.074 113.668 622.811 114.452 622.284 115.127C621.763 115.801 621.047 116.328 620.135 116.707C619.23 117.08 618.185 117.266 617.002 117.266C615.196 117.266 613.758 116.891 612.687 116.139C611.622 115.381 610.997 114.351 610.814 113.049L614.534 112.854C614.646 113.404 614.918 113.825 615.35 114.115C615.782 114.399 616.336 114.541 617.01 114.541C617.673 114.541 618.206 114.414 618.608 114.159C619.017 113.899 619.224 113.564 619.23 113.156C619.224 112.813 619.079 112.531 618.795 112.312C618.511 112.088 618.073 111.916 617.481 111.798L615.119 111.327C613.788 111.061 612.796 110.599 612.145 109.942C611.5 109.285 611.178 108.448 611.178 107.43C611.178 106.554 611.414 105.799 611.888 105.166C612.367 104.533 613.039 104.044 613.903 103.701C614.773 103.358 615.791 103.186 616.957 103.186C618.68 103.186 620.035 103.55 621.023 104.278C622.018 105.006 622.598 105.997 622.763 107.252ZM632.709 103.364V106.205H624.497V103.364H632.709ZM626.361 100.097H630.143V112.81C630.143 113.159 630.196 113.431 630.303 113.626C630.409 113.816 630.557 113.949 630.747 114.026C630.942 114.103 631.167 114.141 631.421 114.141C631.599 114.141 631.777 114.127 631.954 114.097C632.132 114.061 632.268 114.035 632.362 114.017L632.957 116.831C632.768 116.891 632.502 116.959 632.158 117.036C631.815 117.118 631.398 117.169 630.907 117.186C629.995 117.222 629.196 117.101 628.509 116.822C627.829 116.544 627.299 116.112 626.92 115.526C626.542 114.94 626.355 114.201 626.361 113.307V100.097ZM635.172 117V103.364H638.954V117H635.172ZM637.072 101.606C636.51 101.606 636.028 101.419 635.625 101.047C635.229 100.668 635.03 100.215 635.03 99.6882C635.03 99.1674 635.229 98.7205 635.625 98.3477C636.028 97.9689 636.51 97.7795 637.072 97.7795C637.634 97.7795 638.114 97.9689 638.51 98.3477C638.913 98.7205 639.114 99.1674 639.114 99.6882C639.114 100.215 638.913 100.668 638.51 101.047C638.114 101.419 637.634 101.606 637.072 101.606ZM648.145 117.266C646.748 117.266 645.547 116.97 644.541 116.379C643.54 115.781 642.771 114.952 642.232 113.893C641.7 112.833 641.433 111.614 641.433 110.235C641.433 108.838 641.703 107.613 642.241 106.56C642.786 105.5 643.558 104.675 644.558 104.083C645.559 103.485 646.748 103.186 648.127 103.186C649.317 103.186 650.359 103.402 651.252 103.834C652.146 104.266 652.853 104.873 653.374 105.654C653.895 106.435 654.182 107.353 654.235 108.406H650.666C650.566 107.726 650.299 107.178 649.867 106.764C649.441 106.344 648.882 106.134 648.189 106.134C647.604 106.134 647.092 106.293 646.654 106.613C646.222 106.927 645.884 107.385 645.642 107.989C645.399 108.593 645.278 109.324 645.278 110.182C645.278 111.052 645.396 111.792 645.633 112.401C645.875 113.011 646.216 113.475 646.654 113.795C647.092 114.115 647.604 114.275 648.189 114.275C648.622 114.275 649.009 114.186 649.352 114.008C649.702 113.831 649.989 113.573 650.214 113.236C650.444 112.893 650.595 112.481 650.666 112.002H654.235C654.176 113.043 653.892 113.961 653.383 114.754C652.88 115.541 652.184 116.157 651.297 116.6C650.409 117.044 649.358 117.266 648.145 117.266ZM656.657 117V103.364H660.439V117H656.657ZM658.557 101.606C657.994 101.606 657.512 101.419 657.109 101.047C656.713 100.668 656.515 100.215 656.515 99.6882C656.515 99.1674 656.713 98.7205 657.109 98.3477C657.512 97.9689 657.994 97.7795 658.557 97.7795C659.119 97.7795 659.598 97.9689 659.995 98.3477C660.397 98.7205 660.598 99.1674 660.598 99.6882C660.598 100.215 660.397 100.668 659.995 101.047C659.598 101.419 659.119 101.606 658.557 101.606ZM668.493 117.222C667.457 117.222 666.519 116.956 665.679 116.423C664.844 115.884 664.181 115.094 663.69 114.053C663.205 113.005 662.962 111.721 662.962 110.2C662.962 108.637 663.214 107.338 663.717 106.302C664.22 105.261 664.889 104.482 665.723 103.967C666.564 103.446 667.484 103.186 668.484 103.186C669.248 103.186 669.884 103.316 670.393 103.577C670.908 103.831 671.322 104.151 671.636 104.536C671.955 104.914 672.198 105.287 672.364 105.654H672.479V98.8182H676.252V117H672.524V114.816H672.364C672.186 115.195 671.935 115.571 671.609 115.944C671.29 116.31 670.872 116.615 670.357 116.858C669.848 117.101 669.227 117.222 668.493 117.222ZM669.692 114.212C670.301 114.212 670.816 114.047 671.236 113.715C671.662 113.378 671.988 112.907 672.213 112.304C672.444 111.7 672.559 110.993 672.559 110.182C672.559 109.371 672.447 108.667 672.222 108.069C671.997 107.471 671.671 107.009 671.245 106.684C670.819 106.358 670.301 106.196 669.692 106.196C669.07 106.196 668.546 106.364 668.12 106.702C667.694 107.039 667.372 107.507 667.153 108.104C666.934 108.702 666.824 109.395 666.824 110.182C666.824 110.975 666.934 111.676 667.153 112.286C667.377 112.89 667.7 113.363 668.12 113.706C668.546 114.044 669.07 114.212 669.692 114.212ZM683.25 117.257C682.38 117.257 681.605 117.107 680.924 116.805C680.244 116.497 679.705 116.044 679.309 115.446C678.918 114.843 678.723 114.091 678.723 113.191C678.723 112.434 678.862 111.798 679.14 111.283C679.418 110.768 679.797 110.353 680.276 110.04C680.756 109.726 681.3 109.489 681.91 109.33C682.525 109.17 683.17 109.057 683.845 108.992C684.638 108.909 685.277 108.832 685.763 108.761C686.248 108.684 686.6 108.572 686.819 108.424C687.038 108.276 687.148 108.057 687.148 107.767V107.714C687.148 107.152 686.97 106.717 686.615 106.409C686.266 106.101 685.769 105.947 685.123 105.947C684.443 105.947 683.901 106.098 683.499 106.4C683.096 106.696 682.83 107.069 682.7 107.518L679.202 107.234C679.38 106.406 679.729 105.69 680.25 105.086C680.77 104.476 681.442 104.009 682.265 103.683C683.093 103.352 684.052 103.186 685.141 103.186C685.899 103.186 686.624 103.275 687.316 103.452C688.015 103.63 688.633 103.905 689.172 104.278C689.716 104.651 690.145 105.13 690.459 105.716C690.773 106.296 690.93 106.992 690.93 107.803V117H687.343V115.109H687.236C687.017 115.535 686.724 115.911 686.358 116.237C685.991 116.556 685.55 116.808 685.035 116.991C684.52 117.169 683.925 117.257 683.25 117.257ZM684.333 114.647C684.89 114.647 685.381 114.538 685.807 114.319C686.233 114.094 686.568 113.792 686.81 113.413C687.053 113.035 687.174 112.605 687.174 112.126V110.679C687.056 110.756 686.893 110.827 686.686 110.892C686.485 110.951 686.257 111.007 686.002 111.061C685.748 111.108 685.493 111.152 685.239 111.194C684.984 111.229 684.754 111.262 684.546 111.292C684.103 111.357 683.715 111.46 683.383 111.602C683.052 111.744 682.795 111.937 682.611 112.179C682.428 112.416 682.336 112.712 682.336 113.067C682.336 113.582 682.522 113.976 682.895 114.248C683.274 114.514 683.753 114.647 684.333 114.647ZM705.21 107.252L701.747 107.465C701.688 107.169 701.561 106.903 701.366 106.666C701.17 106.424 700.913 106.231 700.593 106.089C700.279 105.941 699.904 105.867 699.466 105.867C698.88 105.867 698.386 105.991 697.983 106.24C697.581 106.483 697.379 106.808 697.379 107.217C697.379 107.542 697.51 107.817 697.77 108.042C698.03 108.267 698.477 108.448 699.111 108.584L701.579 109.081C702.904 109.353 703.893 109.791 704.544 110.395C705.195 110.999 705.52 111.792 705.52 112.774C705.52 113.668 705.257 114.452 704.73 115.127C704.209 115.801 703.493 116.328 702.582 116.707C701.676 117.08 700.632 117.266 699.448 117.266C697.643 117.266 696.205 116.891 695.133 116.139C694.068 115.381 693.444 114.351 693.26 113.049L696.98 112.854C697.092 113.404 697.365 113.825 697.797 114.115C698.229 114.399 698.782 114.541 699.457 114.541C700.12 114.541 700.652 114.414 701.055 114.159C701.463 113.899 701.67 113.564 701.676 113.156C701.67 112.813 701.525 112.531 701.241 112.312C700.957 112.088 700.519 111.916 699.927 111.798L697.566 111.327C696.234 111.061 695.243 110.599 694.592 109.942C693.947 109.285 693.624 108.448 693.624 107.43C693.624 106.554 693.861 105.799 694.334 105.166C694.814 104.533 695.485 104.044 696.35 103.701C697.22 103.358 698.238 103.186 699.403 103.186C701.126 103.186 702.481 103.55 703.47 104.278C704.464 105.006 705.044 105.997 705.21 107.252Z" fill="#424242"/>
<path d="M644.58 263.818H649.321L654.328 276.034H654.541L659.548 263.818H664.289V282H660.56V270.166H660.409L655.704 281.911H653.165L648.46 270.121H648.309V282H644.58V263.818ZM673.6 282.266C672.197 282.266 670.99 281.982 669.978 281.414C668.971 280.84 668.196 280.029 667.652 278.982C667.107 277.928 666.835 276.682 666.835 275.244C666.835 273.841 667.107 272.61 667.652 271.551C668.196 270.491 668.963 269.666 669.951 269.074C670.945 268.482 672.111 268.186 673.449 268.186C674.348 268.186 675.186 268.331 675.961 268.621C676.742 268.905 677.423 269.334 678.003 269.908C678.589 270.482 679.045 271.205 679.37 272.075C679.696 272.939 679.859 273.951 679.859 275.111V276.15H668.344V273.806H676.299C676.299 273.261 676.18 272.779 675.943 272.359C675.707 271.938 675.378 271.61 674.958 271.373C674.544 271.131 674.061 271.009 673.511 271.009C672.937 271.009 672.428 271.142 671.984 271.409C671.546 271.669 671.203 272.021 670.954 272.465C670.706 272.903 670.578 273.391 670.572 273.93V276.158C670.572 276.833 670.697 277.416 670.945 277.907C671.2 278.399 671.558 278.777 672.019 279.044C672.481 279.31 673.029 279.443 673.662 279.443C674.082 279.443 674.467 279.384 674.816 279.266C675.165 279.147 675.464 278.97 675.713 278.733C675.961 278.496 676.151 278.206 676.281 277.863L679.779 278.094C679.601 278.934 679.237 279.668 678.687 280.295C678.142 280.917 677.438 281.402 676.574 281.751C675.716 282.095 674.724 282.266 673.6 282.266ZM689.58 268.364V271.205H681.368V268.364H689.58ZM683.232 265.097H687.014V277.81C687.014 278.159 687.067 278.431 687.174 278.626C687.28 278.816 687.428 278.949 687.618 279.026C687.813 279.103 688.038 279.141 688.293 279.141C688.47 279.141 688.648 279.127 688.825 279.097C689.003 279.061 689.139 279.035 689.234 279.017L689.828 281.831C689.639 281.891 689.373 281.959 689.029 282.036C688.686 282.118 688.269 282.169 687.778 282.186C686.866 282.222 686.067 282.101 685.381 281.822C684.7 281.544 684.17 281.112 683.791 280.526C683.413 279.94 683.226 279.201 683.232 278.307V265.097ZM695.932 282.257C695.062 282.257 694.287 282.107 693.606 281.805C692.925 281.497 692.387 281.044 691.99 280.446C691.6 279.843 691.404 279.091 691.404 278.191C691.404 277.434 691.543 276.798 691.821 276.283C692.1 275.768 692.478 275.353 692.958 275.04C693.437 274.726 693.982 274.489 694.591 274.33C695.207 274.17 695.852 274.057 696.527 273.992C697.32 273.909 697.959 273.832 698.444 273.761C698.93 273.684 699.282 273.572 699.501 273.424C699.72 273.276 699.829 273.057 699.829 272.767V272.714C699.829 272.152 699.652 271.717 699.297 271.409C698.947 271.101 698.45 270.947 697.805 270.947C697.124 270.947 696.583 271.098 696.18 271.4C695.778 271.696 695.512 272.069 695.381 272.518L691.884 272.234C692.061 271.406 692.41 270.69 692.931 270.086C693.452 269.476 694.124 269.009 694.946 268.683C695.775 268.352 696.734 268.186 697.823 268.186C698.58 268.186 699.305 268.275 699.998 268.452C700.696 268.63 701.315 268.905 701.853 269.278C702.398 269.651 702.827 270.13 703.141 270.716C703.454 271.296 703.611 271.992 703.611 272.803V282H700.025V280.109H699.918C699.699 280.535 699.406 280.911 699.039 281.237C698.672 281.556 698.231 281.808 697.716 281.991C697.201 282.169 696.607 282.257 695.932 282.257ZM697.015 279.647C697.571 279.647 698.063 279.538 698.489 279.319C698.915 279.094 699.249 278.792 699.492 278.413C699.735 278.035 699.856 277.605 699.856 277.126V275.679C699.738 275.756 699.575 275.827 699.368 275.892C699.166 275.951 698.939 276.007 698.684 276.061C698.43 276.108 698.175 276.152 697.921 276.194C697.666 276.229 697.435 276.262 697.228 276.292C696.784 276.357 696.397 276.46 696.065 276.602C695.734 276.744 695.476 276.937 695.293 277.179C695.109 277.416 695.017 277.712 695.017 278.067C695.017 278.582 695.204 278.976 695.577 279.248C695.956 279.514 696.435 279.647 697.015 279.647ZM706.545 282V268.364H710.327V282H706.545ZM708.445 266.606C707.883 266.606 707.401 266.419 706.998 266.047C706.602 265.668 706.403 265.215 706.403 264.688C706.403 264.167 706.602 263.721 706.998 263.348C707.401 262.969 707.883 262.779 708.445 262.779C709.007 262.779 709.487 262.969 709.883 263.348C710.286 263.721 710.487 264.167 710.487 264.688C710.487 265.215 710.286 265.668 709.883 266.047C709.487 266.419 709.007 266.606 708.445 266.606ZM724.703 272.252L721.24 272.465C721.181 272.169 721.054 271.903 720.859 271.666C720.663 271.424 720.406 271.231 720.086 271.089C719.773 270.941 719.397 270.867 718.959 270.867C718.373 270.867 717.879 270.991 717.476 271.24C717.074 271.483 716.873 271.808 716.873 272.217C716.873 272.542 717.003 272.817 717.263 273.042C717.524 273.267 717.97 273.448 718.604 273.584L721.072 274.081C722.397 274.353 723.386 274.791 724.037 275.395C724.688 275.999 725.013 276.792 725.013 277.774C725.013 278.668 724.75 279.452 724.223 280.127C723.703 280.801 722.986 281.328 722.075 281.707C721.169 282.08 720.125 282.266 718.941 282.266C717.136 282.266 715.698 281.891 714.626 281.139C713.561 280.381 712.937 279.351 712.753 278.049L716.473 277.854C716.585 278.404 716.858 278.825 717.29 279.115C717.722 279.399 718.275 279.541 718.95 279.541C719.613 279.541 720.145 279.414 720.548 279.159C720.956 278.899 721.163 278.564 721.169 278.156C721.163 277.813 721.018 277.531 720.734 277.312C720.45 277.088 720.012 276.916 719.42 276.798L717.059 276.327C715.727 276.061 714.736 275.599 714.085 274.942C713.44 274.285 713.117 273.448 713.117 272.43C713.117 271.554 713.354 270.799 713.827 270.166C714.307 269.533 714.979 269.044 715.843 268.701C716.713 268.358 717.731 268.186 718.897 268.186C720.619 268.186 721.974 268.55 722.963 269.278C723.957 270.006 724.537 270.997 724.703 272.252ZM733.252 282V263.818H740.425C741.804 263.818 742.979 264.082 743.95 264.608C744.921 265.129 745.66 265.854 746.169 266.783C746.684 267.707 746.942 268.772 746.942 269.979C746.942 271.187 746.681 272.252 746.161 273.175C745.64 274.099 744.885 274.818 743.897 275.333C742.914 275.848 741.725 276.105 740.328 276.105H735.756V273.025H739.706C740.446 273.025 741.056 272.897 741.535 272.643C742.02 272.382 742.382 272.024 742.618 271.569C742.861 271.107 742.982 270.577 742.982 269.979C742.982 269.376 742.861 268.849 742.618 268.399C742.382 267.943 742.02 267.591 741.535 267.343C741.05 267.088 740.434 266.961 739.689 266.961H737.096V282H733.252ZM755.362 282.266C753.96 282.266 752.752 281.982 751.74 281.414C750.734 280.84 749.959 280.029 749.414 278.982C748.87 277.928 748.597 276.682 748.597 275.244C748.597 273.841 748.87 272.61 749.414 271.551C749.959 270.491 750.725 269.666 751.714 269.074C752.708 268.482 753.874 268.186 755.211 268.186C756.111 268.186 756.949 268.331 757.724 268.621C758.505 268.905 759.186 269.334 759.766 269.908C760.352 270.482 760.807 271.205 761.133 272.075C761.459 272.939 761.621 273.951 761.621 275.111V276.15H750.107V273.806H758.061C758.061 273.261 757.943 272.779 757.706 272.359C757.469 271.938 757.141 271.61 756.721 271.373C756.306 271.131 755.824 271.009 755.274 271.009C754.7 271.009 754.191 271.142 753.747 271.409C753.309 271.669 752.965 272.021 752.717 272.465C752.468 272.903 752.341 273.391 752.335 273.93V276.158C752.335 276.833 752.459 277.416 752.708 277.907C752.962 278.399 753.32 278.777 753.782 279.044C754.244 279.31 754.791 279.443 755.425 279.443C755.845 279.443 756.229 279.384 756.579 279.266C756.928 279.147 757.227 278.97 757.475 278.733C757.724 278.496 757.913 278.206 758.044 277.863L761.541 278.094C761.364 278.934 761 279.668 760.449 280.295C759.905 280.917 759.201 281.402 758.336 281.751C757.478 282.095 756.487 282.266 755.362 282.266ZM775.435 272.252L771.973 272.465C771.914 272.169 771.786 271.903 771.591 271.666C771.396 271.424 771.138 271.231 770.819 271.089C770.505 270.941 770.129 270.867 769.691 270.867C769.105 270.867 768.611 270.991 768.209 271.24C767.806 271.483 767.605 271.808 767.605 272.217C767.605 272.542 767.735 272.817 767.996 273.042C768.256 273.267 768.703 273.448 769.336 273.584L771.804 274.081C773.13 274.353 774.118 274.791 774.769 275.395C775.42 275.999 775.746 276.792 775.746 277.774C775.746 278.668 775.483 279.452 774.956 280.127C774.435 280.801 773.719 281.328 772.807 281.707C771.902 282.08 770.857 282.266 769.673 282.266C767.868 282.266 766.43 281.891 765.359 281.139C764.294 280.381 763.669 279.351 763.486 278.049L767.205 277.854C767.318 278.404 767.59 278.825 768.022 279.115C768.454 279.399 769.008 279.541 769.682 279.541C770.345 279.541 770.878 279.414 771.28 279.159C771.689 278.899 771.896 278.564 771.902 278.156C771.896 277.813 771.751 277.531 771.467 277.312C771.183 277.088 770.745 276.916 770.153 276.798L767.791 276.327C766.46 276.061 765.468 275.599 764.817 274.942C764.172 274.285 763.85 273.448 763.85 272.43C763.85 271.554 764.086 270.799 764.56 270.166C765.039 269.533 765.711 269.044 766.575 268.701C767.445 268.358 768.463 268.186 769.629 268.186C771.351 268.186 772.707 268.55 773.695 269.278C774.689 270.006 775.269 270.997 775.435 272.252ZM782.016 282.257C781.146 282.257 780.371 282.107 779.69 281.805C779.009 281.497 778.471 281.044 778.074 280.446C777.684 279.843 777.488 279.091 777.488 278.191C777.488 277.434 777.627 276.798 777.905 276.283C778.184 275.768 778.562 275.353 779.042 275.04C779.521 274.726 780.066 274.489 780.675 274.33C781.291 274.17 781.936 274.057 782.611 273.992C783.404 273.909 784.043 273.832 784.528 273.761C785.014 273.684 785.366 273.572 785.585 273.424C785.804 273.276 785.913 273.057 785.913 272.767V272.714C785.913 272.152 785.736 271.717 785.381 271.409C785.031 271.101 784.534 270.947 783.889 270.947C783.208 270.947 782.667 271.098 782.264 271.4C781.862 271.696 781.596 272.069 781.465 272.518L777.968 272.234C778.145 271.406 778.494 270.69 779.015 270.086C779.536 269.476 780.208 269.009 781.03 268.683C781.859 268.352 782.818 268.186 783.907 268.186C784.664 268.186 785.389 268.275 786.082 268.452C786.78 268.63 787.399 268.905 787.937 269.278C788.482 269.651 788.911 270.13 789.225 270.716C789.538 271.296 789.695 271.992 789.695 272.803V282H786.109V280.109H786.002C785.783 280.535 785.49 280.911 785.123 281.237C784.756 281.556 784.315 281.808 783.8 281.991C783.285 282.169 782.691 282.257 782.016 282.257ZM783.099 279.647C783.655 279.647 784.147 279.538 784.573 279.319C784.999 279.094 785.333 278.792 785.576 278.413C785.819 278.035 785.94 277.605 785.94 277.126V275.679C785.822 275.756 785.659 275.827 785.452 275.892C785.25 275.951 785.023 276.007 784.768 276.061C784.514 276.108 784.259 276.152 784.005 276.194C783.75 276.229 783.519 276.262 783.312 276.292C782.868 276.357 782.48 276.46 782.149 276.602C781.818 276.744 781.56 276.937 781.377 277.179C781.193 277.416 781.101 277.712 781.101 278.067C781.101 278.582 781.288 278.976 781.661 279.248C782.04 279.514 782.519 279.647 783.099 279.647ZM797.654 282.222C796.618 282.222 795.68 281.956 794.84 281.423C794.005 280.884 793.343 280.094 792.851 279.053C792.366 278.005 792.123 276.721 792.123 275.2C792.123 273.637 792.375 272.338 792.878 271.302C793.381 270.261 794.05 269.482 794.884 268.967C795.725 268.446 796.645 268.186 797.645 268.186C798.409 268.186 799.045 268.316 799.554 268.577C800.069 268.831 800.483 269.151 800.797 269.536C801.117 269.914 801.359 270.287 801.525 270.654H801.64V263.818H805.413V282H801.685V279.816H801.525C801.347 280.195 801.096 280.571 800.77 280.944C800.451 281.31 800.033 281.615 799.519 281.858C799.01 282.101 798.388 282.222 797.654 282.222ZM798.853 279.212C799.462 279.212 799.977 279.047 800.397 278.715C800.824 278.378 801.149 277.907 801.374 277.304C801.605 276.7 801.72 275.993 801.72 275.182C801.72 274.371 801.608 273.667 801.383 273.069C801.158 272.471 800.832 272.009 800.406 271.684C799.98 271.358 799.462 271.196 798.853 271.196C798.231 271.196 797.707 271.364 797.281 271.702C796.855 272.039 796.533 272.507 796.314 273.104C796.095 273.702 795.985 274.395 795.985 275.182C795.985 275.975 796.095 276.676 796.314 277.286C796.539 277.89 796.861 278.363 797.281 278.706C797.707 279.044 798.231 279.212 798.853 279.212ZM814.684 282.266C813.305 282.266 812.113 281.973 811.106 281.387C810.106 280.796 809.334 279.973 808.789 278.919C808.245 277.86 807.972 276.632 807.972 275.235C807.972 273.826 808.245 272.595 808.789 271.542C809.334 270.482 810.106 269.66 811.106 269.074C812.113 268.482 813.305 268.186 814.684 268.186C816.063 268.186 817.253 268.482 818.253 269.074C819.259 269.66 820.035 270.482 820.579 271.542C821.124 272.595 821.396 273.826 821.396 275.235C821.396 276.632 821.124 277.86 820.579 278.919C820.035 279.973 819.259 280.796 818.253 281.387C817.253 281.973 816.063 282.266 814.684 282.266ZM814.702 279.337C815.329 279.337 815.853 279.159 816.273 278.804C816.693 278.443 817.01 277.952 817.223 277.33C817.442 276.709 817.552 276.002 817.552 275.208C817.552 274.415 817.442 273.708 817.223 273.087C817.01 272.465 816.693 271.974 816.273 271.613C815.853 271.252 815.329 271.071 814.702 271.071C814.069 271.071 813.536 271.252 813.104 271.613C812.678 271.974 812.355 272.465 812.136 273.087C811.923 273.708 811.817 274.415 811.817 275.208C811.817 276.002 811.923 276.709 812.136 277.33C812.355 277.952 812.678 278.443 813.104 278.804C813.536 279.159 814.069 279.337 814.702 279.337ZM835.201 272.252L831.738 272.465C831.679 272.169 831.552 271.903 831.357 271.666C831.161 271.424 830.904 271.231 830.584 271.089C830.271 270.941 829.895 270.867 829.457 270.867C828.871 270.867 828.377 270.991 827.974 271.24C827.572 271.483 827.371 271.808 827.371 272.217C827.371 272.542 827.501 272.817 827.761 273.042C828.022 273.267 828.468 273.448 829.102 273.584L831.57 274.081C832.896 274.353 833.884 274.791 834.535 275.395C835.186 275.999 835.512 276.792 835.512 277.774C835.512 278.668 835.248 279.452 834.721 280.127C834.201 280.801 833.484 281.328 832.573 281.707C831.667 282.08 830.623 282.266 829.439 282.266C827.634 282.266 826.196 281.891 825.124 281.139C824.059 280.381 823.435 279.351 823.251 278.049L826.971 277.854C827.084 278.404 827.356 278.825 827.788 279.115C828.22 279.399 828.773 279.541 829.448 279.541C830.111 279.541 830.644 279.414 831.046 279.159C831.454 278.899 831.662 278.564 831.667 278.156C831.662 277.813 831.517 277.531 831.232 277.312C830.948 277.088 830.51 276.916 829.919 276.798L827.557 276.327C826.225 276.061 825.234 275.599 824.583 274.942C823.938 274.285 823.615 273.448 823.615 272.43C823.615 271.554 823.852 270.799 824.325 270.166C824.805 269.533 825.477 269.044 826.341 268.701C827.211 268.358 828.229 268.186 829.395 268.186C831.117 268.186 832.472 268.55 833.461 269.278C834.455 270.006 835.035 270.997 835.201 272.252Z" fill="#424242"/>
<path d="M16.8651 263.818L21.2596 277.632H21.4283L25.8317 263.818H30.093L23.8253 282H18.8714L12.5948 263.818H16.8651ZM32.2104 282V268.364H35.9924V282H32.2104ZM34.1103 266.606C33.548 266.606 33.0656 266.419 32.6632 266.047C32.2666 265.668 32.0684 265.215 32.0684 264.688C32.0684 264.167 32.2666 263.721 32.6632 263.348C33.0656 262.969 33.548 262.779 34.1103 262.779C34.6725 262.779 35.1519 262.969 35.5485 263.348C35.9509 263.721 36.1522 264.167 36.1522 264.688C36.1522 265.215 35.9509 265.668 35.5485 266.047C35.1519 266.419 34.6725 266.606 34.1103 266.606ZM46.2751 268.364V271.205H38.0631V268.364H46.2751ZM39.9275 265.097H43.7094V277.81C43.7094 278.159 43.7627 278.431 43.8692 278.626C43.9758 278.816 44.1237 278.949 44.3131 279.026C44.5084 279.103 44.7333 279.141 44.9878 279.141C45.1654 279.141 45.343 279.127 45.5205 279.097C45.6981 279.061 45.8342 279.035 45.9289 279.017L46.5237 281.831C46.3343 281.891 46.068 281.959 45.7247 282.036C45.3814 282.118 44.9642 282.169 44.4729 282.186C43.5615 282.222 42.7625 282.101 42.0759 281.822C41.3953 281.544 40.8656 281.112 40.4868 280.526C40.108 279.94 39.9215 279.201 39.9275 278.307V265.097ZM52.6272 282.257C51.7572 282.257 50.9819 282.107 50.3012 281.805C49.6206 281.497 49.082 281.044 48.6855 280.446C48.2948 279.843 48.0995 279.091 48.0995 278.191C48.0995 277.434 48.2386 276.798 48.5168 276.283C48.795 275.768 49.1737 275.353 49.6531 275.04C50.1325 274.726 50.6771 274.489 51.2867 274.33C51.9022 274.17 52.5473 274.057 53.222 273.992C54.0151 273.909 54.6543 273.832 55.1396 273.761C55.625 273.684 55.9771 273.572 56.1961 273.424C56.4151 273.276 56.5246 273.057 56.5246 272.767V272.714C56.5246 272.152 56.347 271.717 55.9919 271.409C55.6427 271.101 55.1456 270.947 54.5004 270.947C53.8198 270.947 53.2783 271.098 52.8758 271.4C52.4733 271.696 52.207 272.069 52.0768 272.518L48.5789 272.234C48.7565 271.406 49.1057 270.69 49.6265 270.086C50.1473 269.476 50.8191 269.009 51.6418 268.683C52.4704 268.352 53.4292 268.186 54.5182 268.186C55.2758 268.186 56.0008 268.275 56.6933 268.452C57.3917 268.63 58.0102 268.905 58.5487 269.278C59.0932 269.651 59.5223 270.13 59.836 270.716C60.1497 271.296 60.3066 271.992 60.3066 272.803V282H56.7199V280.109H56.6134C56.3944 280.535 56.1014 280.911 55.7345 281.237C55.3675 281.556 54.9266 281.808 54.4117 281.991C53.8968 282.169 53.3019 282.257 52.6272 282.257ZM53.7103 279.647C54.2667 279.647 54.7579 279.538 55.184 279.319C55.6102 279.094 55.9446 278.792 56.1872 278.413C56.4299 278.035 56.5512 277.605 56.5512 277.126V275.679C56.4329 275.756 56.2701 275.827 56.0629 275.892C55.8617 275.951 55.6338 276.007 55.3794 276.061C55.1249 276.108 54.8704 276.152 54.6159 276.194C54.3614 276.229 54.1305 276.262 53.9234 276.292C53.4795 276.357 53.0918 276.46 52.7604 276.602C52.4289 276.744 52.1715 276.937 51.988 277.179C51.8045 277.416 51.7128 277.712 51.7128 278.067C51.7128 278.582 51.8992 278.976 52.2721 279.248C52.6509 279.514 53.1303 279.647 53.7103 279.647ZM63.2407 282V268.364H66.8451V270.77H67.0049C67.289 269.971 67.7625 269.34 68.4253 268.879C69.0882 268.417 69.8813 268.186 70.8046 268.186C71.7397 268.186 72.5358 268.42 73.1927 268.887C73.8497 269.349 74.2877 269.976 74.5067 270.77H74.6487C74.9269 269.988 75.43 269.364 76.1579 268.896C76.8918 268.423 77.7589 268.186 78.7591 268.186C80.0316 268.186 81.0644 268.592 81.8575 269.402C82.6565 270.207 83.056 271.35 83.056 272.829V282H79.2829V273.575C79.2829 272.817 79.0817 272.249 78.6792 271.87C78.2768 271.492 77.7737 271.302 77.17 271.302C76.4835 271.302 75.9478 271.521 75.5631 271.959C75.1784 272.391 74.9861 272.962 74.9861 273.673V282H71.3195V273.495C71.3195 272.826 71.1272 272.294 70.7425 271.897C70.3637 271.5 69.8635 271.302 69.2421 271.302C68.8219 271.302 68.4431 271.409 68.1057 271.622C67.7743 271.829 67.5109 272.122 67.3156 272.501C67.1203 272.874 67.0226 273.312 67.0226 273.815V282H63.2407ZM86.0434 282V268.364H89.8254V282H86.0434ZM87.9433 266.606C87.381 266.606 86.8986 266.419 86.4962 266.047C86.0996 265.668 85.9014 265.215 85.9014 264.688C85.9014 264.167 86.0996 263.721 86.4962 263.348C86.8986 262.969 87.381 262.779 87.9433 262.779C88.5055 262.779 88.9849 262.969 89.3815 263.348C89.7839 263.721 89.9852 264.167 89.9852 264.688C89.9852 265.215 89.7839 265.668 89.3815 266.047C88.9849 266.419 88.5055 266.606 87.9433 266.606ZM96.6369 274.116V282H92.8549V268.364H96.4593V270.77H96.6191C96.921 269.976 97.427 269.349 98.1373 268.887C98.8475 268.42 99.7086 268.186 100.721 268.186C101.668 268.186 102.493 268.393 103.198 268.808C103.902 269.222 104.449 269.814 104.84 270.583C105.231 271.347 105.426 272.258 105.426 273.317V282H101.644V273.992C101.65 273.158 101.437 272.507 101.005 272.039C100.573 271.566 99.9779 271.329 99.2203 271.329C98.7114 271.329 98.2615 271.438 97.8709 271.657C97.4862 271.876 97.1844 272.196 96.9654 272.616C96.7523 273.03 96.6428 273.531 96.6369 274.116ZM112.295 282.257C111.425 282.257 110.65 282.107 109.969 281.805C109.289 281.497 108.75 281.044 108.353 280.446C107.963 279.843 107.767 279.091 107.767 278.191C107.767 277.434 107.907 276.798 108.185 276.283C108.463 275.768 108.842 275.353 109.321 275.04C109.801 274.726 110.345 274.489 110.955 274.33C111.57 274.17 112.215 274.057 112.89 273.992C113.683 273.909 114.322 273.832 114.808 273.761C115.293 273.684 115.645 273.572 115.864 273.424C116.083 273.276 116.193 273.057 116.193 272.767V272.714C116.193 272.152 116.015 271.717 115.66 271.409C115.311 271.101 114.814 270.947 114.168 270.947C113.488 270.947 112.946 271.098 112.544 271.4C112.141 271.696 111.875 272.069 111.745 272.518L108.247 272.234C108.424 271.406 108.774 270.69 109.294 270.086C109.815 269.476 110.487 269.009 111.31 268.683C112.138 268.352 113.097 268.186 114.186 268.186C114.944 268.186 115.669 268.275 116.361 268.452C117.06 268.63 117.678 268.905 118.217 269.278C118.761 269.651 119.19 270.13 119.504 270.716C119.818 271.296 119.975 271.992 119.975 272.803V282H116.388V280.109H116.281C116.062 280.535 115.769 280.911 115.402 281.237C115.035 281.556 114.595 281.808 114.08 281.991C113.565 282.169 112.97 282.257 112.295 282.257ZM113.378 279.647C113.935 279.647 114.426 279.538 114.852 279.319C115.278 279.094 115.613 278.792 115.855 278.413C116.098 278.035 116.219 277.605 116.219 277.126V275.679C116.101 275.756 115.938 275.827 115.731 275.892C115.53 275.951 115.302 276.007 115.047 276.061C114.793 276.108 114.538 276.152 114.284 276.194C114.029 276.229 113.799 276.262 113.591 276.292C113.147 276.357 112.76 276.46 112.428 276.602C112.097 276.744 111.839 276.937 111.656 277.179C111.473 277.416 111.381 277.712 111.381 278.067C111.381 278.582 111.567 278.976 111.94 279.248C112.319 279.514 112.798 279.647 113.378 279.647ZM128.766 282V263.818H136.046C137.383 263.818 138.499 264.016 139.393 264.413C140.286 264.81 140.958 265.36 141.408 266.064C141.858 266.763 142.083 267.568 142.083 268.479C142.083 269.189 141.941 269.814 141.656 270.352C141.372 270.885 140.982 271.323 140.485 271.666C139.993 272.004 139.431 272.243 138.798 272.385V272.563C139.49 272.592 140.138 272.788 140.742 273.149C141.352 273.51 141.846 274.016 142.225 274.667C142.603 275.312 142.793 276.081 142.793 276.975C142.793 277.94 142.553 278.801 142.074 279.559C141.6 280.31 140.899 280.905 139.97 281.343C139.04 281.781 137.895 282 136.534 282H128.766ZM132.61 278.857H135.744C136.815 278.857 137.596 278.653 138.088 278.245C138.579 277.83 138.824 277.28 138.824 276.593C138.824 276.09 138.703 275.646 138.46 275.262C138.218 274.877 137.872 274.575 137.422 274.356C136.978 274.137 136.448 274.028 135.833 274.028H132.61V278.857ZM132.61 271.426H135.46C135.986 271.426 136.454 271.335 136.862 271.151C137.277 270.962 137.602 270.696 137.839 270.352C138.082 270.009 138.203 269.598 138.203 269.118C138.203 268.461 137.969 267.932 137.502 267.529C137.04 267.127 136.383 266.925 135.531 266.925H132.61V271.426ZM151.766 263.57C152.701 263.57 153.601 263.726 154.465 264.04C155.335 264.354 156.11 264.854 156.791 265.54C157.477 266.227 158.019 267.138 158.416 268.275C158.818 269.405 159.022 270.793 159.028 272.439C159.028 273.983 158.854 275.362 158.504 276.576C158.161 277.783 157.667 278.81 157.022 279.656C156.377 280.503 155.598 281.148 154.687 281.592C153.775 282.03 152.757 282.249 151.633 282.249C150.42 282.249 149.348 282.015 148.419 281.547C147.49 281.074 146.741 280.432 146.173 279.621C145.611 278.804 145.27 277.887 145.152 276.869H148.943C149.091 277.531 149.402 278.046 149.875 278.413C150.349 278.774 150.935 278.955 151.633 278.955C152.817 278.955 153.716 278.44 154.332 277.41C154.947 276.374 155.258 274.957 155.264 273.158H155.14C154.867 273.69 154.5 274.149 154.039 274.534C153.577 274.913 153.047 275.205 152.45 275.413C151.858 275.62 151.227 275.723 150.559 275.723C149.487 275.723 148.532 275.472 147.691 274.969C146.851 274.466 146.188 273.773 145.703 272.891C145.217 272.009 144.975 271.003 144.975 269.873C144.969 268.654 145.25 267.568 145.818 266.615C146.386 265.662 147.179 264.916 148.197 264.377C149.221 263.833 150.411 263.564 151.766 263.57ZM151.793 266.588C151.195 266.588 150.662 266.73 150.195 267.014C149.733 267.298 149.366 267.68 149.094 268.159C148.828 268.639 148.697 269.174 148.703 269.766C148.703 270.364 148.833 270.903 149.094 271.382C149.36 271.856 149.721 272.234 150.177 272.518C150.639 272.797 151.165 272.936 151.757 272.936C152.201 272.936 152.612 272.853 152.991 272.687C153.37 272.521 153.698 272.294 153.977 272.004C154.261 271.708 154.483 271.367 154.642 270.983C154.802 270.598 154.882 270.19 154.882 269.757C154.876 269.183 154.74 268.657 154.474 268.177C154.207 267.698 153.841 267.313 153.373 267.023C152.905 266.733 152.379 266.588 151.793 266.588Z" fill="#424242"/>
<path d="M376.096 204.443V202.845L381.753 193.909H383.012V196.261H382.213L378.167 202.666V202.768H385.92V204.443H376.096ZM382.302 207V203.957L382.315 203.229V193.909H384.188V207H382.302Z" fill="#616161"/>
<path d="M382.108 166.179C381.524 166.17 380.949 166.064 380.382 165.859C379.82 165.655 379.308 165.314 378.848 164.837C378.388 164.359 378.019 163.718 377.742 162.913C377.469 162.107 377.333 161.102 377.333 159.896C377.333 158.754 377.446 157.739 377.672 156.853C377.902 155.967 378.232 155.219 378.663 154.609C379.093 153.996 379.613 153.529 380.222 153.21C380.832 152.89 381.516 152.73 382.274 152.73C383.054 152.73 383.746 152.884 384.351 153.19C384.957 153.497 385.447 153.921 385.822 154.462C386.201 155.004 386.442 155.619 386.544 156.31H384.594C384.462 155.764 384.2 155.319 383.808 154.974C383.416 154.629 382.905 154.456 382.274 154.456C381.315 154.456 380.567 154.874 380.03 155.709C379.498 156.544 379.229 157.705 379.225 159.192H379.321C379.547 158.822 379.824 158.506 380.152 158.246C380.484 157.982 380.855 157.78 381.264 157.639C381.677 157.494 382.112 157.422 382.568 157.422C383.327 157.422 384.013 157.607 384.626 157.978C385.244 158.344 385.736 158.852 386.103 159.499C386.469 160.147 386.653 160.888 386.653 161.724C386.653 162.559 386.463 163.315 386.084 163.993C385.709 164.67 385.18 165.207 384.498 165.604C383.817 165.996 383.02 166.188 382.108 166.179ZM382.101 164.517C382.604 164.517 383.054 164.393 383.45 164.146C383.847 163.899 384.16 163.567 384.39 163.149C384.62 162.732 384.735 162.265 384.735 161.749C384.735 161.246 384.622 160.788 384.396 160.375C384.175 159.962 383.868 159.634 383.476 159.391C383.088 159.148 382.645 159.026 382.146 159.026C381.767 159.026 381.415 159.099 381.092 159.244C380.772 159.388 380.491 159.589 380.248 159.844C380.005 160.1 379.813 160.394 379.672 160.727C379.536 161.055 379.468 161.402 379.468 161.768C379.468 162.259 379.581 162.712 379.807 163.13C380.037 163.548 380.35 163.884 380.746 164.14C381.147 164.391 381.599 164.517 382.101 164.517Z" fill="#616161"/>
<path d="M381.996 123.179C381.08 123.179 380.27 123.021 379.567 122.706C378.868 122.391 378.321 121.956 377.924 121.402C377.528 120.848 377.332 120.217 377.336 119.51C377.332 118.956 377.445 118.447 377.675 117.982C377.909 117.513 378.227 117.124 378.627 116.812C379.028 116.497 379.475 116.297 379.97 116.212V116.135C379.318 115.977 378.796 115.628 378.404 115.087C378.012 114.545 377.818 113.923 377.822 113.22C377.818 112.551 377.995 111.955 378.353 111.43C378.715 110.902 379.211 110.487 379.842 110.184C380.473 109.881 381.191 109.73 381.996 109.73C382.793 109.73 383.505 109.884 384.131 110.19C384.762 110.493 385.258 110.908 385.62 111.437C385.983 111.961 386.166 112.555 386.17 113.22C386.166 113.923 385.965 114.545 385.569 115.087C385.173 115.628 384.657 115.977 384.022 116.135V116.212C384.512 116.297 384.953 116.497 385.345 116.812C385.742 117.124 386.057 117.513 386.291 117.982C386.53 118.447 386.652 118.956 386.656 119.51C386.652 120.217 386.451 120.848 386.055 121.402C385.659 121.956 385.109 122.391 384.406 122.706C383.707 123.021 382.904 123.179 381.996 123.179ZM381.996 121.562C382.537 121.562 383.006 121.472 383.402 121.293C383.799 121.11 384.105 120.857 384.323 120.533C384.54 120.205 384.651 119.821 384.655 119.382C384.651 118.926 384.532 118.523 384.297 118.174C384.067 117.825 383.754 117.55 383.358 117.349C382.961 117.149 382.507 117.049 381.996 117.049C381.48 117.049 381.022 117.149 380.622 117.349C380.221 117.55 379.906 117.825 379.676 118.174C379.446 118.523 379.333 118.926 379.337 119.382C379.333 119.821 379.437 120.205 379.65 120.533C379.867 120.857 380.176 121.11 380.577 121.293C380.978 121.472 381.451 121.562 381.996 121.562ZM381.996 115.47C382.431 115.47 382.816 115.383 383.153 115.208C383.49 115.033 383.754 114.79 383.946 114.479C384.142 114.168 384.242 113.804 384.246 113.386C384.242 112.977 384.144 112.619 383.952 112.312C383.764 112.006 383.502 111.769 383.166 111.603C382.829 111.433 382.439 111.347 381.996 111.347C381.544 111.347 381.148 111.433 380.807 111.603C380.47 111.769 380.208 112.006 380.021 112.312C379.833 112.619 379.742 112.977 379.746 113.386C379.742 113.804 379.835 114.168 380.027 114.479C380.219 114.79 380.483 115.033 380.82 115.208C381.161 115.383 381.553 115.47 381.996 115.47Z" fill="#616161"/>
<path d="M377.662 70.9091V84H375.681V72.8906H375.604L372.472 74.9361V73.044L375.738 70.9091H377.662ZM385.761 84.2173C384.751 84.2131 383.888 83.9467 383.172 83.4183C382.456 82.8899 381.909 82.1207 381.53 81.1108C381.15 80.1009 380.961 78.8842 380.961 77.4609C380.961 76.0419 381.15 74.8295 381.53 73.8239C381.913 72.8182 382.463 72.0511 383.179 71.5227C383.899 70.9943 384.76 70.7301 385.761 70.7301C386.763 70.7301 387.621 70.9964 388.337 71.5291C389.053 72.0575 389.601 72.8246 389.98 73.8303C390.363 74.8317 390.555 76.0419 390.555 77.4609C390.555 78.8885 390.366 80.1072 389.986 81.1172C389.607 82.1229 389.059 82.892 388.343 83.4247C387.628 83.9531 386.767 84.2173 385.761 84.2173ZM385.761 82.5107C386.647 82.5107 387.34 82.0781 387.839 81.2131C388.341 80.348 388.593 79.0973 388.593 77.4609C388.593 76.3743 388.478 75.456 388.248 74.706C388.022 73.9517 387.696 73.3807 387.27 72.9929C386.848 72.6009 386.345 72.4048 385.761 72.4048C384.879 72.4048 384.187 72.8395 383.684 73.7088C383.181 74.5781 382.927 75.8288 382.923 77.4609C382.923 78.5518 383.036 79.4744 383.262 80.2287C383.492 80.9787 383.818 81.5476 384.24 81.9354C384.662 82.3189 385.169 82.5107 385.761 82.5107Z" fill="#616161"/>
</svg>
